<?xml version="1.0" encoding="UTF-8"?><svg xmlns="http://www.w3.org/2000/svg" xmlns:xlink="http://www.w3.org/1999/xlink" height="504.4" preserveAspectRatio="xMidYMid meet" version="1.0" viewBox="0.0 -4.4 368.3 504.4" width="368.3" zoomAndPan="magnify"><defs><clipPath id="a"><path d="M 0 11 L 368.25 11 L 368.25 500 L 0 500 Z M 0 11"/></clipPath></defs><g><g clip-path="url(#a)" id="change1_1"><path d="M 359.339844 333.386719 L 354.40625 334.652344 C 355.933594 353.65625 362.441406 450.152344 339.492188 474.101562 C 328.890625 485.164062 314.332031 486.226562 309.398438 486.246094 L 309.652344 500 L 52.917969 500 L 53.953125 478.371094 C -5.738281 460.792969 12.929688 348.613281 15.945312 332.484375 L 9.886719 330.519531 C 2.285156 328.050781 -1.816406 319.832031 0.78125 312.273438 C 0.78125 312.273438 6.75 261.28125 25.332031 225.25 C 33.847656 208.730469 51.710938 196.257812 68.121094 187.527344 C 89.699219 176.042969 137.46875 162.363281 156.699219 157.09375 C 158.78125 141.574219 157.578125 124.714844 157.578125 124.714844 C 153.007812 120.019531 150.5625 111.828125 149.457031 102.210938 C 144.804688 104.695312 136.253906 96.761719 137.300781 84.003906 C 137.792969 77.996094 140.613281 76.117188 143.636719 75.898438 C 145.183594 75.785156 147.21875 75.53125 149.105469 75.265625 C 150.433594 53.269531 154.644531 32.871094 154.644531 32.871094 C 159.042969 20.171875 172.234375 11.867188 193.726562 11.867188 C 215.222656 11.867188 250.882812 19.683594 246.488281 73.421875 C 246.1875 77.097656 245.84375 80.585938 245.464844 83.898438 L 251.640625 91.277344 C 255.074219 92.390625 258.136719 95.613281 256.660156 104.058594 C 254.457031 116.640625 243.78125 120.144531 239.699219 115.945312 C 234.558594 135.242188 228.898438 141.324219 228.898438 141.324219 C 226.675781 149.429688 226.320312 155.390625 227 160.117188 C 243.664062 164.695312 279.679688 175.238281 305.289062 187.414062 C 323.859375 196.242188 344.367188 214.476562 353.003906 233.132812 C 367.078125 263.535156 367.96875 319.324219 367.96875 319.324219 C 369.355469 325.574219 365.535156 331.796875 359.339844 333.386719" fill="#fff"/></g><g id="change2_1"><path d="M 207.1875 301.351562 C 207.105469 301.351562 207.019531 301.34375 206.9375 301.332031 C 205.90625 301.195312 205.1875 300.253906 205.324219 299.226562 C 205.628906 296.945312 203.648438 295.859375 202.972656 295.558594 C 199.433594 295.367188 166.542969 293.582031 159.085938 293.183594 C 156.949219 293.066406 155.339844 293.488281 154.429688 294.390625 C 153.441406 295.371094 153.460938 296.695312 153.460938 296.710938 C 153.511719 297.746094 152.710938 298.625 151.675781 298.675781 C 150.585938 298.699219 149.757812 297.921875 149.710938 296.886719 C 149.695312 296.585938 149.632812 293.867188 151.78125 291.730469 C 153.488281 290.03125 156.015625 289.265625 159.285156 289.433594 C 167.167969 289.855469 203.484375 291.828125 203.484375 291.828125 C 203.664062 291.835938 203.839844 291.875 204.011719 291.933594 C 206.015625 292.644531 209.648438 295.1875 209.046875 299.71875 C 208.917969 300.664062 208.113281 301.351562 207.1875 301.351562 Z M 159.117188 299.988281 C 157.25 299.988281 155.738281 298.949219 155.738281 297.667969 C 155.738281 296.382812 157.25 295.34375 159.117188 295.34375 C 160.980469 295.34375 162.492188 296.382812 162.492188 297.667969 C 162.492188 298.949219 160.980469 299.988281 159.117188 299.988281 Z M 202.875 290.800781 L 156.714844 288.640625 C 152.839844 288.457031 149.589844 291.535156 149.5625 295.414062 L 149.335938 325.589844 C 161.066406 326.140625 172.628906 327.015625 172.628906 327.015625 C 172.628906 327.015625 175.160156 319.625 186.5625 321.3125 C 191.128906 321.988281 199.480469 322.257812 208.183594 322.339844 L 209.382812 297.964844 C 209.566406 294.1875 206.652344 290.976562 202.875 290.800781" fill="#65cbc3"/></g><g id="change3_1"><path d="M 216.261719 86.253906 C 214.707031 87.808594 214.707031 90.328125 216.261719 91.886719 C 217.816406 93.4375 220.339844 93.4375 221.894531 91.886719 C 223.449219 90.328125 223.449219 87.808594 221.894531 86.253906 C 220.339844 84.699219 217.816406 84.699219 216.261719 86.253906 Z M 178.609375 82.878906 C 177.054688 84.429688 177.054688 86.953125 178.609375 88.507812 C 180.164062 90.0625 182.6875 90.0625 184.242188 88.507812 C 185.796875 86.953125 185.796875 84.429688 184.242188 82.878906 C 182.6875 81.320312 180.164062 81.320312 178.609375 82.878906 Z M 158.90625 57.1875 C 161.277344 63.359375 159.382812 72.0625 157.269531 78.5 L 163.761719 81.433594 C 166.875 76.410156 172.421875 73.046875 178.753906 73.046875 C 186.378906 73.046875 192.867188 77.917969 195.324219 84.707031 C 197.882812 84.128906 201.703125 83.699219 205.0625 85.0625 C 205.164062 84.671875 205.269531 84.277344 205.367188 83.882812 C 205.644531 82.804688 205.828125 81.714844 206.078125 80.632812 C 206.199219 80.09375 206.363281 79.558594 206.539062 79.027344 L 206.839844 78.238281 C 206.941406 77.976562 207.164062 77.738281 207.886719 77.597656 C 208.503906 78 208.621094 78.300781 208.621094 78.578125 L 208.613281 79.417969 C 208.589844 79.972656 208.550781 80.523438 208.476562 81.066406 C 208.375 81.84375 208.257812 82.613281 208.160156 83.390625 C 211.378906 79.976562 215.929688 77.832031 220.976562 77.832031 C 228.503906 77.832031 234.925781 82.578125 237.453125 89.226562 L 243.160156 87.84375 C 236.824219 65.179688 202.726562 58.761719 176.640625 53.390625 C 167.457031 51.496094 162.558594 46.535156 160.132812 40.667969 C 158.199219 45.441406 156.769531 51.636719 158.90625 57.1875 Z M 234.863281 95.472656 C 234.863281 94.585938 234.773438 93.714844 234.613281 92.871094 C 234.363281 92.628906 234.160156 92.335938 234.074219 91.976562 C 233.992188 91.636719 234.015625 91.300781 234.109375 90.992188 C 232.238281 85.527344 227.066406 81.585938 220.976562 81.585938 C 215.898438 81.585938 211.457031 84.335938 209.035156 88.421875 C 209.132812 89.011719 208.941406 89.640625 208.472656 90.082031 C 208.351562 90.195312 208.21875 90.285156 208.078125 90.359375 C 207.449219 91.945312 207.089844 93.667969 207.089844 95.472656 C 207.089844 103.132812 213.320312 109.359375 220.976562 109.359375 C 228.636719 109.359375 234.863281 103.132812 234.863281 95.472656 Z M 192.640625 90.6875 C 192.640625 90.148438 192.601562 89.613281 192.539062 89.089844 C 192.019531 88.921875 191.574219 88.539062 191.363281 87.996094 C 191.078125 87.273438 191.273438 86.480469 191.796875 85.96875 C 189.859375 80.632812 184.75 76.800781 178.753906 76.800781 C 171.09375 76.800781 164.863281 83.03125 164.863281 90.6875 C 164.863281 98.347656 171.09375 104.574219 178.753906 104.574219 C 186.410156 104.574219 192.640625 98.347656 192.640625 90.6875 Z M 143.539062 75.910156 C 141.28125 53.714844 140.535156 17.1875 159.816406 15.925781 C 160.898438 12.882812 163.175781 10.40625 166.152344 9.039062 C 195.523438 -4.429688 228.84375 -1.761719 244.0625 9.894531 C 246.179688 11.515625 235.992188 14.445312 237.867188 16.371094 C 244.183594 22.847656 249.785156 25.703125 253.597656 33.304688 C 258.414062 38.222656 262.355469 45.851562 261.234375 57.472656 C 259.9375 70.886719 256.085938 82.472656 252.039062 91.421875 C 250.542969 90.855469 248.945312 90.726562 247.601562 90.761719 C 245.636719 93.628906 244.203125 95.191406 244.203125 95.191406 C 244.183594 93.925781 244.066406 92.710938 243.902344 91.527344 L 238.402344 92.855469 C 238.53125 93.714844 238.617188 94.582031 238.617188 95.472656 C 238.617188 105.203125 230.707031 113.113281 220.976562 113.113281 C 214.234375 113.113281 208.367188 109.308594 205.398438 103.730469 C 205.382812 103.75 205.371094 103.757812 205.355469 103.777344 C 204.964844 103.839844 204.671875 103.769531 204.464844 103.644531 C 204.289062 103.53125 204.183594 103.386719 204.128906 103.222656 C 204.003906 102.914062 203.898438 102.613281 203.8125 102.3125 C 203.648438 101.71875 203.527344 101.128906 203.464844 100.550781 C 203.316406 99.382812 203.328125 98.242188 203.332031 97.105469 C 203.339844 96.710938 203.347656 96.3125 203.359375 95.914062 C 203.355469 95.765625 203.335938 95.621094 203.335938 95.472656 C 203.335938 94.738281 203.398438 94.015625 203.484375 93.304688 C 203.558594 92.328125 203.664062 91.355469 203.847656 90.398438 C 203.941406 89.855469 204.046875 89.316406 204.160156 88.777344 C 201.65625 87.5 198.410156 87.867188 196.21875 88.359375 C 196.320312 89.121094 196.394531 89.898438 196.394531 90.6875 C 196.394531 100.414062 188.480469 108.328125 178.753906 108.328125 C 169.023438 108.328125 161.109375 100.414062 161.109375 90.6875 C 161.109375 88.628906 161.484375 86.65625 162.136719 84.816406 L 156.007812 82.050781 C 155.367188 83.722656 154.785156 85.085938 154.386719 85.980469 C 154.164062 83.367188 153.347656 80.792969 151.726562 78.089844 C 151.726562 78.089844 147.449219 75.582031 143.539062 75.910156 Z M 191.71875 106.703125 C 192.238281 107.246094 192.875 107.636719 193.492188 108.0625 C 194.742188 108.890625 196.210938 109.5 197.699219 109.628906 C 199.207031 109.847656 200.628906 109.394531 201.964844 108.992188 C 202.609375 108.730469 203.269531 108.511719 203.871094 108.175781 C 204.164062 107.996094 204.449219 107.789062 204.726562 107.582031 L 205.132812 107.253906 C 205.277344 107.164062 205.363281 106.929688 205.214844 106.171875 C 204.765625 105.523438 204.554688 105.40625 204.398438 105.429688 L 203.910156 105.441406 C 203.59375 105.460938 203.277344 105.480469 202.976562 105.527344 C 202.367188 105.578125 201.789062 105.683594 201.210938 105.777344 C 200.050781 105.859375 198.929688 105.855469 197.882812 105.890625 C 196.832031 105.902344 195.746094 105.960938 194.71875 105.632812 C 194.207031 105.472656 193.75 105.183594 193.324219 104.871094 C 193.105469 104.71875 192.871094 104.570312 192.640625 104.421875 C 192.519531 104.351562 192.386719 104.28125 192.273438 104.203125 C 192.148438 104.121094 191.945312 104.140625 191.277344 104.34375 C 190.773438 104.816406 190.742188 105.105469 190.8125 105.273438 C 190.882812 105.457031 190.960938 105.632812 191.046875 105.800781 C 191.230469 106.132812 191.449219 106.441406 191.71875 106.703125 Z M 210.585938 76.09375 L 211.183594 76.070312 C 211.570312 76.019531 211.972656 76.035156 212.351562 75.980469 C 213.113281 75.863281 213.898438 75.816406 214.675781 75.820312 C 216.253906 75.921875 217.800781 76.234375 219.351562 76.460938 C 220.894531 76.753906 222.480469 76.824219 224.070312 77.050781 C 224.867188 77.152344 225.652344 77.3125 226.460938 77.40625 C 226.863281 77.453125 227.273438 77.484375 227.6875 77.511719 L 228.308594 77.546875 C 228.511719 77.578125 228.75 77.480469 229.210938 76.824219 C 229.285156 76.027344 229.132812 75.789062 228.941406 75.6875 L 228.386719 75.335938 C 228.007812 75.113281 227.628906 74.898438 227.234375 74.722656 C 226.453125 74.351562 225.632812 74.097656 224.816406 73.828125 C 223.175781 73.316406 221.496094 72.8125 219.75 72.738281 C 218.003906 72.632812 216.234375 72.828125 214.5 73.109375 C 213.632812 73.296875 212.761719 73.339844 211.902344 73.585938 C 211.472656 73.699219 211.050781 73.816406 210.648438 74.03125 L 210.054688 74.359375 C 209.859375 74.46875 209.695312 74.695312 209.722656 75.398438 C 210.148438 75.984375 210.382812 76.101562 210.585938 76.09375 Z M 188.863281 117.777344 C 187.890625 117.53125 186.964844 117.121094 186.015625 116.796875 C 185.082031 116.429688 184.171875 115.992188 183.25 115.597656 L 183.195312 115.574219 C 183.035156 115.507812 182.863281 115.460938 182.683594 115.445312 C 181.757812 115.367188 180.945312 116.054688 180.863281 116.980469 C 180.777344 118.007812 180.824219 118.78125 180.933594 119.667969 C 181.046875 120.527344 181.246094 121.375 181.527344 122.207031 C 182.074219 123.878906 183.0625 125.441406 184.34375 126.679688 C 185.621094 127.929688 187.171875 128.820312 188.75 129.429688 C 190.351562 130.015625 191.960938 130.324219 193.59375 130.476562 C 196.84375 130.8125 200.394531 130.113281 203.140625 128.160156 C 204.527344 127.214844 205.648438 125.953125 206.53125 124.597656 C 206.964844 123.910156 207.335938 123.1875 207.632812 122.445312 C 207.933594 121.714844 208.269531 120.933594 207.636719 119.925781 C 206.5625 120.363281 206.304688 120.964844 205.929688 121.585938 C 205.546875 122.183594 205.140625 122.761719 204.703125 123.300781 C 203.84375 124.394531 202.84375 125.347656 201.726562 126.085938 C 199.488281 127.597656 196.683594 127.945312 193.996094 127.414062 C 191.265625 126.890625 188.714844 125.773438 187.011719 124 C 186.15625 123.109375 185.488281 122.074219 184.988281 120.917969 C 184.832031 120.539062 184.707031 120.144531 184.59375 119.746094 C 184.691406 119.78125 184.785156 119.820312 184.882812 119.855469 C 185.925781 120.171875 186.941406 120.570312 188.007812 120.808594 C 190.105469 121.410156 192.277344 121.714844 194.445312 121.90625 C 196.621094 122.074219 198.808594 122.007812 200.964844 121.71875 C 202.042969 121.582031 203.113281 121.355469 204.164062 121.097656 C 205.214844 120.851562 206.292969 120.453125 207 119.292969 C 205.742188 118.867188 204.78125 118.964844 203.777344 119.144531 C 202.777344 119.269531 201.769531 119.367188 200.761719 119.382812 C 198.746094 119.449219 196.730469 119.34375 194.738281 119.085938 C 193.746094 118.910156 192.75 118.792969 191.777344 118.53125 L 190.308594 118.203125 Z M 172.859375 72.675781 L 173.425781 72.492188 C 173.769531 72.328125 174.175781 72.289062 174.527344 72.152344 C 174.882812 72.023438 175.234375 71.882812 175.621094 71.832031 C 176 71.765625 176.363281 71.660156 176.757812 71.652344 C 178.3125 71.566406 179.867188 71.902344 181.410156 72.15625 C 182.949219 72.46875 184.550781 72.671875 186.148438 73.050781 C 186.949219 73.230469 187.734375 73.476562 188.546875 73.664062 C 188.957031 73.753906 189.363281 73.847656 189.785156 73.925781 L 190.414062 74.039062 C 190.617188 74.101562 190.871094 74.03125 191.417969 73.445312 C 191.589844 72.660156 191.457031 72.40625 191.273438 72.273438 L 190.738281 71.84375 C 190.371094 71.578125 190.003906 71.304688 189.613281 71.082031 C 188.839844 70.617188 188.011719 70.261719 187.179688 69.910156 C 185.515625 69.230469 183.78125 68.5625 181.910156 68.449219 C 180.054688 68.289062 178.140625 68.464844 176.304688 68.972656 C 175.84375 69.070312 175.390625 69.257812 174.933594 69.378906 C 174.476562 69.492188 174.03125 69.671875 173.601562 69.894531 C 173.175781 70.117188 172.738281 70.308594 172.386719 70.660156 L 171.863281 71.160156 C 171.691406 71.328125 171.585938 71.601562 171.816406 72.261719 C 172.40625 72.691406 172.664062 72.738281 172.859375 72.675781 Z M 141.671875 176.96875 L 142.59375 176.546875 C 143.199219 176.253906 143.808594 175.957031 144.402344 175.636719 C 145.542969 174.921875 146.648438 174.136719 147.742188 173.335938 C 149.84375 171.625 152.007812 169.871094 153.5625 167.546875 C 155.183594 165.300781 156.40625 162.746094 157.191406 160.078125 C 157.582031 158.746094 157.960938 157.40625 158.128906 156.019531 C 158.234375 155.332031 158.226562 154.621094 158.191406 153.921875 C 158.152344 153.566406 158.125 153.21875 158.054688 152.867188 C 157.996094 152.523438 157.796875 152.148438 157.074219 151.917969 C 156.445312 152.332031 156.285156 152.609375 156.242188 152.921875 C 156.214844 153.222656 156.132812 153.527344 156.085938 153.828125 C 155.96875 154.429688 155.863281 155.03125 155.722656 155.628906 C 155.503906 156.828125 155.113281 158.003906 154.640625 159.136719 C 153.613281 161.382812 152.121094 163.367188 150.585938 165.277344 L 149.410156 166.703125 C 148.988281 167.15625 148.574219 167.613281 148.175781 168.089844 C 147.398438 169.0625 146.453125 169.902344 145.59375 170.820312 C 144.667969 171.679688 143.6875 172.480469 142.765625 173.371094 C 142.273438 173.777344 141.796875 174.207031 141.316406 174.644531 L 140.609375 175.316406 C 140.359375 175.527344 140.1875 175.851562 140.324219 176.6875 C 141.007812 177.164062 141.378906 177.121094 141.671875 176.96875 Z M 228.636719 145.476562 L 228.589844 144.242188 C 228.59375 143.835938 228.460938 143.410156 227.734375 142.90625 C 226.925781 143.222656 226.714844 143.617188 226.640625 144.027344 L 226.359375 145.246094 C 226.179688 146.0625 226.007812 146.882812 225.867188 147.703125 C 225.527344 149.34375 225.511719 151.027344 225.335938 152.691406 C 225.074219 156.027344 225.003906 159.433594 225.503906 162.816406 C 226.058594 166.191406 227 169.566406 228.722656 172.652344 C 229.195312 173.410156 229.554688 174.210938 230.144531 174.902344 C 230.414062 175.261719 230.675781 175.621094 230.953125 175.972656 L 231.914062 176.941406 C 232.589844 177.550781 233.355469 178.085938 234.203125 178.46875 C 234.609375 178.683594 235.085938 178.785156 235.519531 178.929688 C 235.964844 179.03125 236.523438 179.011719 237.023438 178.378906 C 236.855469 178.027344 236.730469 177.753906 236.589844 177.597656 C 236.453125 177.402344 236.304688 177.300781 236.140625 177.230469 C 235.835938 177.023438 235.515625 176.878906 235.234375 176.628906 C 234.648438 176.214844 234.117188 175.707031 233.609375 175.1875 C 232.5625 174.164062 231.800781 172.824219 231.160156 171.449219 C 229.972656 168.613281 229.59375 165.457031 229.214844 162.347656 C 229.132812 160.761719 228.898438 159.203125 228.851562 157.597656 C 228.773438 156 228.589844 154.402344 228.640625 152.785156 C 228.660156 151.171875 228.585938 149.554688 228.648438 147.925781 C 228.664062 147.113281 228.652344 146.296875 228.636719 145.476562 Z M 136.941406 181.40625 C 137.964844 184.519531 139.21875 187.554688 140.644531 190.511719 C 143.519531 196.410156 147.085938 202.03125 151.566406 206.933594 C 153.785156 209.398438 156.226562 211.695312 158.941406 213.65625 C 161.644531 215.617188 164.535156 217.390625 167.667969 218.652344 C 170.78125 219.929688 174.042969 220.917969 177.386719 221.378906 C 179.046875 221.707031 180.730469 221.75 182.410156 221.890625 C 183.253906 221.957031 184.09375 221.898438 184.933594 221.90625 C 185.769531 221.878906 186.617188 221.933594 187.449219 221.839844 C 190.808594 221.5625 194.082031 221.097656 197.320312 220.339844 C 200.574219 219.664062 203.757812 218.640625 206.863281 217.449219 C 209.957031 216.210938 212.957031 214.738281 215.835938 213.054688 C 218.683594 211.320312 221.402344 209.378906 223.945312 207.226562 C 229 202.890625 233.316406 197.722656 236.65625 192.011719 C 238.347656 189.167969 239.761719 186.175781 240.957031 183.105469 C 241.550781 181.570312 242.085938 180.011719 242.5625 178.433594 C 243.046875 176.867188 243.355469 175.207031 242.9375 173.453125 C 241.84375 174.863281 241.234375 176.3125 240.703125 177.816406 C 240.148438 179.308594 239.542969 180.78125 238.878906 182.226562 C 237.550781 185.117188 235.980469 187.886719 234.289062 190.5625 C 230.855469 195.878906 226.691406 200.707031 221.824219 204.691406 C 212.105469 212.742188 199.652344 216.957031 187.1875 218.105469 C 186.414062 218.214844 185.636719 218.175781 184.859375 218.21875 C 184.082031 218.226562 183.300781 218.304688 182.527344 218.257812 C 180.980469 218.15625 179.417969 218.160156 177.894531 217.886719 C 174.808594 217.535156 171.808594 216.6875 168.914062 215.582031 C 166 214.511719 163.277344 212.957031 160.695312 211.203125 C 158.105469 209.453125 155.738281 207.359375 153.558594 205.082031 C 149.183594 200.519531 145.703125 195.117188 142.816406 189.4375 C 141.371094 186.59375 140.085938 183.664062 138.890625 180.699219 C 138.289062 179.214844 137.753906 177.703125 137.238281 176.1875 C 136.726562 174.667969 136.136719 173.1875 135.117188 171.761719 C 134.808594 173.496094 135.074219 175.140625 135.507812 176.714844 C 135.949219 178.289062 136.414062 179.859375 136.941406 181.40625 Z M 171.121094 142.34375 C 170.167969 141.390625 169.242188 140.414062 168.304688 139.4375 L 166.910156 137.964844 C 166.449219 137.464844 165.910156 137.046875 164.957031 136.886719 C 164.804688 137.847656 165.097656 138.515625 165.488281 139.089844 C 165.882812 139.664062 166.28125 140.238281 166.695312 140.796875 C 167.527344 141.917969 168.433594 142.980469 169.367188 144.015625 C 171.261719 146.066406 173.296875 147.996094 175.46875 149.792969 C 177.621094 151.613281 179.953125 153.265625 182.515625 154.621094 C 183.796875 155.289062 185.148438 155.859375 186.546875 156.34375 C 187.960938 156.773438 189.421875 157.109375 190.925781 157.273438 C 192.40625 157.402344 194.027344 157.386719 195.394531 157.179688 C 196.101562 157.085938 196.816406 157.035156 197.515625 156.902344 L 199.613281 156.488281 C 202.382812 155.855469 205.09375 155.035156 207.722656 154.03125 C 210.34375 153.007812 212.90625 151.855469 215.34375 150.476562 C 216.574219 149.8125 217.753906 149.054688 218.914062 148.28125 C 219.488281 147.878906 220.0625 147.480469 220.625 147.0625 C 221.195312 146.667969 221.699219 146.128906 221.824219 145.101562 C 220.816406 144.855469 220.179688 145.070312 219.582031 145.398438 C 218.988281 145.710938 218.375 146.003906 217.769531 146.300781 C 216.550781 146.882812 215.328125 147.445312 214.097656 147.996094 C 211.632812 149.070312 209.152344 150.082031 206.613281 150.917969 C 204.074219 151.738281 201.488281 152.382812 198.890625 152.855469 C 197.585938 153.050781 196.289062 153.277344 194.980469 153.394531 C 193.632812 153.589844 192.5 153.609375 191.25 153.542969 C 186.316406 153.1875 181.433594 150.773438 177.148438 147.65625 C 175.003906 146.070312 173.023438 144.246094 171.121094 142.34375 Z M 36.898438 267 C 37.289062 267.605469 37.667969 268.226562 38.082031 268.8125 C 38.890625 270 39.691406 271.199219 40.40625 272.453125 C 41.796875 274.980469 43.003906 277.597656 44.1875 280.203125 C 45.324219 282.828125 46.664062 285.367188 47.734375 288.035156 C 48.320312 289.351562 48.761719 290.714844 49.320312 292.050781 L 50.136719 294.066406 L 50.566406 295.078125 C 50.691406 295.421875 50.945312 295.726562 51.792969 295.90625 C 52.453125 295.378906 52.527344 294.976562 52.46875 294.605469 L 52.351562 293.484375 C 52.253906 292.742188 52.175781 291.988281 52 291.261719 C 51.6875 289.796875 51.308594 288.34375 50.847656 286.917969 C 49.988281 284.046875 48.964844 281.203125 47.546875 278.550781 C 46.175781 275.878906 44.453125 273.398438 42.691406 270.984375 C 41.828125 269.761719 40.953125 268.550781 40.042969 267.367188 C 39.570312 266.785156 39.082031 266.21875 38.546875 265.6875 C 38.28125 265.421875 38.003906 265.164062 37.722656 264.910156 C 37.449219 264.652344 37.0625 264.476562 36.308594 264.660156 C 36.046875 265.390625 36.140625 265.765625 36.335938 266.074219 Z M 50.144531 325.203125 C 51.148438 325.554688 52.171875 325.863281 53.191406 326.175781 L 54.730469 326.621094 C 55.238281 326.789062 55.792969 326.828125 56.578125 326.308594 C 56.375 325.394531 55.945312 325.035156 55.46875 324.800781 L 54.050781 324.054688 C 53.101562 323.566406 52.152344 323.078125 51.1875 322.632812 C 49.269531 321.703125 47.316406 320.859375 45.375 319.992188 C 41.480469 318.28125 37.617188 316.492188 33.632812 315.003906 C 29.667969 313.472656 25.628906 312.117188 21.617188 310.695312 C 19.621094 309.960938 17.640625 309.191406 15.652344 308.429688 C 14.660156 308.054688 13.652344 307.714844 12.636719 307.386719 L 11.101562 306.925781 C 10.589844 306.773438 10.03125 306.734375 9.285156 307.167969 C 9.519531 308 9.949219 308.359375 10.421875 308.605469 L 11.84375 309.339844 C 12.800781 309.8125 13.761719 310.269531 14.738281 310.691406 C 16.695312 311.527344 18.652344 312.347656 20.597656 313.214844 C 24.46875 314.980469 28.3125 316.8125 32.230469 318.472656 C 36.128906 320.175781 40.144531 321.578125 44.132812 323.058594 C 46.132812 323.785156 48.121094 324.539062 50.144531 325.203125 Z M 317.757812 293.699219 L 319.046875 292.359375 C 319.914062 291.46875 320.75 290.554688 321.503906 289.574219 C 322.28125 288.609375 323.078125 287.660156 323.828125 286.671875 L 325.980469 283.644531 C 328.8125 279.585938 331.511719 275.40625 333.679688 270.953125 C 335.90625 266.53125 337.78125 261.945312 339.480469 257.316406 C 340.34375 255.003906 341.222656 252.703125 342.007812 250.363281 C 342.386719 249.1875 342.765625 248.015625 343.0625 246.816406 C 343.21875 246.21875 343.351562 245.613281 343.488281 245.011719 C 343.628906 244.410156 343.640625 243.757812 343.152344 242.984375 C 342.328125 243.386719 341.992188 243.90625 341.761719 244.472656 L 341.0625 246.15625 L 339.726562 249.542969 L 338.398438 252.933594 L 336.96875 256.277344 C 334.957031 260.699219 332.65625 264.972656 330.363281 269.222656 C 328.046875 273.464844 325.777344 277.726562 323.222656 281.828125 L 321.296875 284.898438 C 320.601562 285.886719 319.949219 286.90625 319.28125 287.914062 L 318.289062 289.4375 L 317.257812 290.933594 L 316.242188 292.449219 C 315.886719 292.945312 315.640625 293.523438 315.847656 294.5 C 316.820312 294.527344 317.339844 294.152344 317.757812 293.699219 Z M 361.851562 308.105469 L 360.058594 308.175781 C 358.875 308.277344 357.699219 308.433594 356.523438 308.605469 C 355.34375 308.757812 354.195312 309.015625 353.039062 309.257812 C 351.878906 309.492188 350.730469 309.769531 349.59375 310.070312 C 345.019531 311.21875 340.5 312.542969 336.136719 314.269531 C 331.757812 315.949219 327.503906 317.925781 323.277344 319.921875 L 316.90625 322.839844 C 315.847656 323.335938 314.8125 323.882812 313.78125 324.4375 L 312.253906 325.304688 C 311.746094 325.601562 311.289062 326.003906 311.058594 326.871094 C 311.878906 327.234375 312.476562 327.148438 313.023438 326.945312 L 314.660156 326.351562 C 315.75 325.941406 316.828125 325.511719 317.898438 325.066406 C 320.03125 324.160156 322.171875 323.257812 324.335938 322.425781 C 328.675781 320.785156 333.070312 319.304688 337.429688 317.785156 C 341.800781 316.296875 346.097656 314.609375 350.492188 313.253906 C 351.585938 312.890625 352.683594 312.550781 353.789062 312.257812 C 354.898438 311.980469 355.988281 311.570312 357.097656 311.320312 C 358.210938 311.058594 359.3125 310.722656 360.421875 310.4375 L 362.09375 310.054688 C 362.65625 309.945312 363.195312 309.703125 363.703125 308.855469 C 363.054688 308.160156 362.441406 308.066406 361.851562 308.105469 Z M 337.984375 424.890625 C 337.84375 424.125 337.761719 423.335938 337.480469 422.605469 C 337.003906 421.117188 336.472656 419.636719 335.699219 418.257812 C 335.042969 416.816406 334.136719 415.515625 333.261719 414.1875 C 332.277344 412.953125 331.253906 411.714844 330.027344 410.707031 C 327.667969 408.585938 324.90625 406.988281 322.0625 405.753906 C 320.640625 405.136719 319.21875 404.527344 317.746094 404.054688 C 317.007812 403.820312 316.257812 403.636719 315.492188 403.507812 C 315.113281 403.433594 314.71875 403.402344 314.332031 403.355469 C 313.949219 403.3125 313.515625 403.402344 313.03125 404.007812 C 313.277344 404.746094 313.574219 404.984375 313.914062 405.121094 C 314.253906 405.257812 314.589844 405.382812 314.921875 405.535156 L 316.929688 406.351562 C 317.597656 406.609375 318.253906 406.910156 318.917969 407.1875 L 320.828125 408.171875 C 323.304688 409.640625 325.492188 411.488281 327.476562 413.445312 C 329.4375 415.421875 331.363281 417.46875 332.824219 419.886719 C 333.644531 421.042969 334.191406 422.347656 334.875 423.609375 C 335.246094 424.226562 335.488281 424.90625 335.792969 425.5625 L 336.257812 426.554688 C 336.394531 426.894531 336.664062 427.191406 337.523438 427.371094 C 338.167969 426.835938 338.226562 426.417969 338.152344 426.039062 Z M 248.433594 326.914062 C 247.511719 325.878906 246.542969 324.835938 245.542969 323.800781 C 244.453125 322.75 243.234375 321.792969 241.859375 321.078125 C 240.480469 320.375 238.992188 319.917969 237.539062 319.648438 C 236.085938 319.375 234.667969 319.269531 233.339844 319.09375 C 232.011719 318.917969 230.773438 318.652344 229.667969 318.148438 C 228.542969 317.65625 227.710938 316.894531 226.367188 315.96875 C 223.859375 314.355469 221.15625 313.339844 218.417969 312.585938 C 217.050781 312.210938 215.675781 311.875 214.292969 311.601562 C 212.914062 311.328125 211.484375 311.214844 210 311.671875 C 211.261719 312.558594 212.554688 313.007812 213.882812 313.363281 C 215.207031 313.710938 216.511719 314.121094 217.800781 314.5625 C 220.355469 315.480469 222.875 316.523438 225.015625 317.980469 L 226.625 319.210938 C 227.230469 319.699219 227.929688 320.082031 228.628906 320.421875 C 230.050781 321.089844 231.5625 321.414062 232.980469 321.617188 C 235.828125 322 238.40625 322.269531 240.578125 323.476562 C 241.652344 324.085938 242.609375 324.894531 243.488281 325.800781 C 244.382812 326.796875 245.273438 327.824219 246.160156 328.898438 L 251.453125 335.3125 L 262.003906 348.210938 C 269.0625 356.792969 276.277344 365.25 283.480469 373.714844 C 287.082031 377.949219 290.660156 382.203125 294.3125 386.394531 C 296.113281 388.511719 297.976562 390.578125 299.820312 392.660156 L 302.585938 395.78125 C 303.492188 396.832031 304.511719 397.796875 305.992188 398.375 C 305.707031 396.8125 304.957031 395.628906 304.097656 394.535156 L 301.558594 391.222656 C 299.863281 389.019531 298.1875 386.800781 296.449219 384.628906 C 293.019531 380.253906 289.515625 375.9375 286.027344 371.609375 C 279.050781 362.949219 272.066406 354.296875 264.875 345.8125 L 253.984375 333.171875 Z M 284.25 466.890625 C 277.867188 459.875 272.289062 452.128906 267.289062 444.03125 C 262.285156 435.933594 257.800781 427.507812 253.746094 418.878906 C 249.714844 410.257812 246.011719 401.402344 242.914062 392.464844 C 242.679688 391.800781 242.0625 391.304688 241.316406 391.269531 C 228.8125 390.667969 216.277344 389.914062 203.851562 388.769531 C 202.296875 388.628906 200.753906 388.457031 199.210938 388.285156 C 197.742188 388.109375 196.324219 387.820312 194.90625 387.414062 C 192.074219 386.605469 189.339844 385.332031 186.738281 383.824219 C 184.132812 382.300781 181.664062 380.511719 179.320312 378.566406 C 176.992188 376.632812 174.714844 374.484375 172.757812 372.28125 L 172.726562 372.246094 C 172.640625 372.148438 172.542969 372.0625 172.433594 371.980469 C 172.339844 371.914062 172.242188 371.863281 172.144531 371.816406 C 171.898438 371.378906 171.683594 371.25 171.476562 371.230469 L 170.757812 371.15625 C 170.28125 371.128906 169.804688 371.117188 169.332031 371.140625 C 168.390625 371.1875 167.449219 371.292969 166.503906 371.300781 C 164.605469 371.316406 162.703125 371.261719 160.820312 371.390625 C 158.929688 371.472656 157.074219 371.875 155.210938 372.207031 C 154.28125 372.382812 153.347656 372.523438 152.425781 372.761719 C 151.960938 372.871094 151.503906 373.015625 151.042969 373.160156 L 150.355469 373.398438 C 150.125 373.457031 149.910156 373.652344 149.757812 374.449219 C 150.074219 375.191406 150.324219 375.339844 150.5625 375.347656 L 151.285156 375.4375 C 151.765625 375.484375 152.242188 375.523438 152.71875 375.535156 C 153.671875 375.574219 154.613281 375.515625 155.5625 375.492188 C 157.453125 375.425781 159.351562 375.429688 161.214844 375.113281 C 163.082031 374.84375 164.933594 374.386719 166.789062 374.003906 C 167.484375 373.863281 168.179688 373.769531 168.875 373.671875 C 167.054688 375.9375 164.925781 377.960938 162.488281 379.59375 C 159.617188 381.546875 156.394531 383.007812 153.03125 384.066406 C 149.660156 385.117188 146.148438 385.777344 142.59375 386.09375 C 139.0625 386.410156 135.394531 386.449219 131.957031 386.089844 L 131.898438 386.082031 C 131.113281 386 130.367188 386.511719 130.179688 387.304688 C 127.773438 397.488281 124.800781 407.542969 121.011719 417.285156 C 117.242188 427.03125 112.445312 436.367188 106.664062 445.03125 C 100.78125 453.597656 93.792969 461.496094 85.355469 467.558594 C 81.179688 470.621094 76.632812 473.179688 71.851562 475.171875 C 69.449219 476.140625 66.984375 476.933594 64.488281 477.613281 C 61.988281 478.304688 59.480469 478.941406 56.859375 479.449219 C 59.507812 479.921875 62.230469 479.695312 64.859375 479.21875 C 67.488281 478.710938 70.046875 477.882812 72.554688 476.957031 C 77.542969 475.015625 82.296875 472.484375 86.683594 469.417969 C 91.046875 466.324219 95.09375 462.792969 98.757812 458.917969 C 102.425781 455.039062 105.722656 450.835938 108.777344 446.472656 C 114.753906 437.660156 119.640625 428.15625 123.601562 418.316406 C 127.40625 408.90625 130.445312 399.210938 132.953125 389.398438 C 136.304688 389.699219 139.566406 389.6875 142.878906 389.429688 C 146.640625 389.128906 150.394531 388.464844 154.046875 387.363281 C 157.691406 386.257812 161.246094 384.695312 164.46875 382.542969 C 167.085938 380.828125 169.441406 378.695312 171.464844 376.28125 C 175.433594 380.492188 179.84375 384.105469 184.835938 387.070312 C 187.65625 388.707031 190.652344 390.117188 193.859375 391.039062 C 195.453125 391.5 197.117188 391.839844 198.769531 392.039062 C 200.34375 392.214844 201.917969 392.390625 203.488281 392.535156 C 209.777344 393.152344 216.054688 393.523438 222.332031 393.894531 C 228.222656 394.222656 234.109375 394.503906 240.007812 394.734375 C 243.179688 403.476562 246.816406 411.933594 250.808594 420.277344 C 254.996094 428.960938 259.578125 437.46875 264.78125 445.609375 C 269.996094 453.730469 275.746094 461.566406 282.496094 468.542969 C 285.859375 472.03125 289.46875 475.300781 293.359375 478.214844 C 297.230469 481.117188 301.46875 483.75 306.273438 484.796875 C 302.304688 481.972656 298.332031 479.527344 294.597656 476.597656 C 290.886719 473.667969 287.449219 470.386719 284.25 466.890625 Z M 76.6875 374.777344 L 96.433594 353.726562 C 103.046875 346.78125 109.527344 339.566406 116.476562 333.195312 L 116.539062 333.136719 L 116.597656 333.078125 C 118.679688 330.972656 121.183594 328.972656 123.71875 327.203125 C 126.28125 325.433594 128.949219 323.808594 131.746094 322.414062 C 134.546875 321.035156 137.425781 319.804688 140.40625 318.835938 C 141.898438 318.367188 143.402344 317.925781 144.933594 317.585938 C 146.464844 317.230469 147.976562 316.84375 149.476562 315.894531 C 147.804688 315.328125 146.148438 315.375 144.554688 315.667969 C 142.949219 315.925781 141.359375 316.285156 139.777344 316.679688 C 136.628906 317.503906 133.527344 318.554688 130.558594 319.921875 C 127.59375 321.28125 124.703125 322.832031 121.988281 324.65625 C 119.253906 326.488281 116.6875 328.417969 114.226562 330.800781 L 114.347656 330.6875 C 112.511719 332.320312 110.648438 333.941406 108.9375 335.640625 C 107.171875 337.3125 105.453125 339.015625 103.757812 340.734375 C 100.332031 344.152344 96.972656 347.609375 93.683594 351.140625 C 87.046875 358.140625 80.65625 365.359375 74.230469 372.539062 L 55.140625 394.25 C 51.9375 397.84375 48.753906 401.460938 45.601562 405.101562 L 40.9375 410.621094 C 39.410156 412.488281 37.683594 414.179688 36.871094 416.671875 C 39.25 415.5625 40.71875 413.648438 42.390625 411.914062 L 47.324219 406.640625 L 57.039062 395.949219 C 63.511719 388.824219 70.09375 381.796875 76.6875 374.777344 Z M 244.765625 366.980469 L 244.613281 366.707031 C 244.585938 366.617188 244.402344 366.515625 243.640625 366.425781 C 242.875 366.5 242.683594 366.5625 242.652344 366.636719 L 242.480469 366.855469 C 242.371094 367.003906 242.273438 367.148438 242.195312 367.292969 C 242.035156 367.582031 241.957031 367.871094 241.839844 368.152344 C 241.621094 368.71875 241.300781 369.222656 241.257812 369.761719 C 241.15625 370.289062 241.222656 370.878906 241.097656 371.378906 C 241.042969 371.636719 240.890625 371.820312 240.769531 372.003906 C 240.703125 372.085938 240.675781 372.230469 240.625 372.34375 L 240.566406 372.554688 C 240.539062 372.628906 240.589844 372.816406 240.824219 373.460938 C 241.199219 374.023438 241.390625 374.121094 241.503906 374.105469 C 241.617188 374.09375 241.738281 374.078125 241.859375 374.054688 C 242.09375 374 242.277344 373.886719 242.464844 373.757812 C 242.820312 373.492188 243.082031 373.148438 243.378906 372.855469 C 243.980469 372.253906 244.539062 371.605469 244.832031 370.875 C 245.179688 370.15625 245.136719 369.367188 245.109375 368.632812 C 245.085938 368.261719 245.082031 367.898438 244.976562 367.53125 C 244.933594 367.347656 244.851562 367.160156 244.765625 366.980469 Z M 245.71875 354.628906 L 245.972656 354.359375 C 246.128906 354.171875 246.261719 353.96875 246.339844 353.75 C 246.527344 353.320312 246.625 352.871094 246.792969 352.433594 C 247.125 351.558594 247.492188 350.636719 247.546875 349.691406 C 247.664062 348.746094 247.386719 347.820312 247.113281 346.9375 C 246.964844 346.496094 246.839844 346.054688 246.601562 345.640625 C 246.488281 345.433594 246.347656 345.238281 246.191406 345.042969 L 245.941406 344.761719 C 245.882812 344.664062 245.660156 344.597656 244.90625 344.75 C 244.21875 345.097656 244.066406 345.230469 244.0625 345.335938 L 243.984375 345.65625 C 243.945312 345.863281 243.902344 346.074219 243.882812 346.273438 C 243.835938 346.675781 243.863281 347.058594 243.847656 347.445312 C 243.832031 348.214844 243.683594 348.964844 243.800781 349.691406 C 243.871094 350.425781 244.082031 351.179688 244.117188 351.949219 C 244.148438 352.335938 244.054688 352.703125 244 353.074219 C 243.980469 353.265625 243.980469 353.460938 243.984375 353.664062 L 244.027344 353.984375 C 244.039062 354.09375 244.175781 354.246094 244.765625 354.601562 C 245.425781 354.761719 245.636719 354.714844 245.71875 354.628906 Z M 116.566406 375.574219 C 116.21875 375.367188 115.851562 375.183594 115.472656 375.015625 L 114.894531 374.78125 C 114.699219 374.699219 114.433594 374.726562 113.863281 375.152344 C 113.625 375.824219 113.691406 376.085938 113.832031 376.25 L 114.257812 376.734375 C 114.550781 377.035156 114.859375 377.328125 115.1875 377.582031 C 115.847656 378.101562 116.542969 378.558594 117.195312 379.089844 C 118.492188 380.152344 119.800781 381.242188 121.25 382.128906 C 122.671875 383.066406 124.300781 383.65625 125.953125 384.199219 C 126.773438 384.472656 127.628906 384.71875 128.507812 384.855469 C 128.957031 384.910156 129.410156 384.9375 129.859375 384.949219 L 130.5625 384.894531 C 130.789062 384.894531 131.042969 384.757812 131.316406 384.019531 C 131.183594 383.21875 131.035156 383.019531 130.851562 382.953125 L 130.335938 382.710938 C 129.988281 382.519531 129.644531 382.332031 129.300781 382.179688 C 128.617188 381.8125 127.910156 381.53125 127.21875 381.144531 C 125.832031 380.425781 124.515625 379.535156 123.070312 378.859375 C 121.644531 378.144531 120.128906 377.535156 118.671875 376.804688 C 117.941406 376.441406 117.265625 375.988281 116.566406 375.574219 Z M 125.738281 355.59375 C 125.65625 354.832031 125.398438 354.023438 125.296875 353.195312 C 125.242188 352.777344 125.289062 352.367188 125.289062 351.953125 C 125.292969 351.746094 125.257812 351.535156 125.214844 351.316406 L 125.117188 350.988281 C 125.085938 350.878906 124.921875 350.75 124.28125 350.519531 C 123.597656 350.5 123.398438 350.585938 123.328125 350.6875 L 123.132812 350.996094 C 123.019531 351.203125 122.929688 351.417969 122.871094 351.636719 C 122.761719 352.074219 122.71875 352.523438 122.589844 352.964844 C 122.34375 353.851562 122.03125 354.765625 121.996094 355.726562 C 121.910156 356.691406 122.230469 357.679688 122.636719 358.660156 C 122.839844 359.144531 123.105469 359.664062 123.488281 360.101562 C 123.710938 360.324219 123.960938 360.519531 124.203125 360.6875 L 124.652344 360.882812 C 124.777344 360.960938 125.027344 360.925781 125.546875 360.371094 C 125.910156 359.675781 125.996094 359.496094 125.964844 359.425781 L 125.9375 359.1875 C 125.933594 359.003906 125.9375 358.84375 125.910156 358.714844 C 125.90625 358.386719 125.824219 358.113281 125.816406 357.761719 C 125.773438 357.082031 125.882812 356.347656 125.738281 355.59375 Z M 125.125 329.125 C 124.476562 328.90625 124.261719 328.933594 124.164062 329.015625 L 123.890625 329.257812 C 123.726562 329.429688 123.574219 329.609375 123.464844 329.808594 C 123.242188 330.203125 123.085938 330.628906 122.851562 331.027344 C 122.390625 331.828125 121.867188 332.664062 121.644531 333.628906 C 121.375 334.582031 121.480469 335.632812 121.757812 336.679688 C 121.804688 336.933594 121.914062 337.199219 122.003906 337.453125 C 122.089844 337.710938 122.203125 337.960938 122.382812 338.195312 C 122.550781 338.425781 122.703125 338.652344 122.9375 338.835938 L 123.285156 339.09375 C 123.378906 339.1875 123.613281 339.203125 124.28125 338.835938 C 124.835938 338.289062 124.957031 338.125 124.941406 338.039062 L 124.957031 337.753906 C 124.945312 337.585938 125.007812 337.382812 125 337.230469 C 125.011719 336.910156 125.007812 336.59375 125.035156 336.273438 C 125.078125 335.628906 125.34375 334.964844 125.339844 334.246094 C 125.390625 333.53125 125.320312 332.71875 125.417969 331.917969 C 125.460938 331.511719 125.609375 331.144531 125.710938 330.753906 C 125.765625 330.5625 125.792969 330.355469 125.800781 330.140625 L 125.796875 329.804688 C 125.796875 329.695312 125.675781 329.53125 125.125 329.125 Z M 206.582031 375.3125 C 201.714844 375.066406 196.863281 374.550781 192.050781 373.800781 C 192.355469 373.957031 192.660156 374.113281 192.964844 374.269531 C 194.148438 374.902344 195.34375 375.511719 196.589844 375.855469 C 197.84375 376.226562 199.027344 376.292969 200.378906 376.164062 C 201.714844 376.0625 203.085938 375.84375 204.449219 375.660156 C 205.160156 375.550781 205.871094 375.429688 206.582031 375.3125 Z M 183.492188 344.203125 C 178.851562 344.9375 174.195312 345.554688 169.523438 345.835938 L 175.199219 346.851562 C 180.847656 347.777344 186.511719 348.628906 192.136719 349.667969 C 197.773438 350.660156 203.347656 351.96875 208.9375 353.199219 C 211.730469 353.824219 214.527344 354.425781 217.304688 355.121094 C 218.699219 355.445312 220.085938 355.816406 221.46875 356.1875 L 222.238281 356.398438 C 223.234375 356.441406 224.226562 356.484375 225.21875 356.53125 C 225.785156 356.554688 226.226562 357.03125 226.203125 357.597656 C 226.183594 358.148438 225.726562 358.578125 225.179688 358.585938 C 224.980469 358.585938 224.78125 358.582031 224.585938 358.582031 C 224.085938 358.746094 223.617188 358.753906 223.164062 358.6875 L 222.214844 358.574219 C 211.957031 358.558594 201.707031 358.351562 191.441406 358.03125 C 185.808594 357.820312 180.1875 357.636719 174.503906 357.070312 C 171.730469 356.785156 168.945312 356.5 166.257812 356.433594 C 164.929688 356.410156 163.578125 356.4375 162.519531 356.675781 C 162 356.785156 161.578125 356.960938 161.414062 357.113281 C 161.246094 357.253906 161.160156 357.390625 161.070312 357.8125 C 160.988281 358.210938 160.996094 358.800781 161.046875 359.402344 L 161.0625 359.566406 C 161.0625 359.566406 161.0625 359.570312 161.085938 359.609375 C 161.152344 359.710938 161.265625 359.875 161.449219 360.050781 C 162.164062 360.765625 163.324219 361.476562 164.46875 362.089844 C 166.808594 363.316406 169.363281 364.347656 171.945312 365.28125 C 177.128906 367.132812 182.511719 368.566406 187.941406 369.722656 C 198.796875 372.007812 209.964844 373.371094 221.019531 372.613281 L 221.039062 372.609375 C 221.742188 372.5625 222.351562 373.09375 222.402344 373.796875 C 222.445312 374.441406 221.996094 375.011719 221.378906 375.132812 C 215.867188 376.234375 210.363281 377.246094 204.757812 377.953125 C 203.355469 378.128906 201.945312 378.257812 200.492188 378.304688 C 199.058594 378.390625 197.410156 378.222656 196.003906 377.710938 C 193.550781 376.820312 191.25 375.511719 189.757812 373.421875 C 188.933594 373.28125 188.105469 373.148438 187.28125 372.996094 C 181.703125 371.917969 176.175781 370.5625 170.742188 368.742188 C 168.023438 367.820312 165.332031 366.800781 162.699219 365.40625 C 161.460938 364.726562 160.234375 364.035156 159.015625 362.917969 L 158.945312 362.941406 C 158.621094 363.046875 158.300781 363.144531 157.980469 363.210938 C 157.339844 363.359375 156.695312 363.414062 156.050781 363.503906 C 154.761719 363.660156 153.476562 363.886719 152.183594 363.792969 C 150.890625 363.753906 149.597656 363.496094 148.304688 363.351562 C 147.65625 363.269531 147.011719 363.285156 146.363281 363.246094 C 146.042969 363.226562 145.71875 363.171875 145.394531 363.097656 L 144.90625 362.957031 C 144.746094 362.914062 144.582031 362.734375 144.40625 362.0625 C 144.558594 361.382812 144.714844 361.199219 144.875 361.148438 L 145.355469 360.992188 C 145.675781 360.90625 146 360.839844 146.320312 360.808594 C 146.964844 360.742188 147.609375 360.738281 148.253906 360.632812 C 149.539062 360.4375 150.824219 360.132812 152.113281 360.050781 C 153.402344 359.90625 154.699219 360.085938 155.988281 360.199219 C 156.453125 360.242188 156.914062 360.285156 157.378906 360.34375 C 157.355469 360.242188 157.328125 360.140625 157.316406 360.039062 L 157.285156 359.722656 C 157.226562 358.929688 157.175781 358.101562 157.355469 357.117188 C 157.507812 356.167969 158.054688 354.941406 158.996094 354.203125 C 159.914062 353.445312 160.875 353.171875 161.714844 352.972656 C 163.410156 352.636719 164.894531 352.675781 166.367188 352.71875 C 169.296875 352.84375 172.101562 353.183594 174.910156 353.519531 C 180.398438 354.140625 186.003906 354.550781 191.589844 354.898438 C 195.382812 355.136719 199.183594 355.339844 202.984375 355.527344 C 199.113281 354.859375 195.25 354.175781 191.414062 353.339844 C 185.816406 352.164062 180.25 350.808594 174.671875 349.519531 L 166.28125 347.714844 C 164.882812 347.40625 163.488281 347.09375 162.101562 346.730469 L 160.046875 346.175781 C 157.800781 346.203125 155.554688 346.207031 153.316406 346.203125 L 145.765625 346.28125 C 144.507812 346.273438 143.25 346.257812 141.992188 346.191406 L 140.105469 346.066406 C 139.476562 346.019531 138.84375 345.851562 138.214844 345.171875 C 138.839844 344.488281 139.464844 344.308594 140.089844 344.253906 L 141.964844 344.085938 C 143.214844 343.976562 144.464844 343.921875 145.714844 343.855469 C 148.214844 343.746094 150.71875 343.65625 153.214844 343.488281 C 158.210938 343.125 163.1875 342.601562 168.160156 342.175781 C 173.132812 341.714844 178.113281 341.453125 183.058594 340.929688 C 185.402344 340.710938 187.71875 340.375 190.050781 340.09375 C 188.484375 339.710938 186.925781 339.277344 185.378906 338.789062 C 184.714844 338.570312 184.046875 338.386719 183.390625 338.140625 L 181.4375 337.339844 C 180.113281 336.875 178.894531 336.074219 177.644531 335.414062 C 177.046875 335.003906 176.453125 334.582031 175.875 334.148438 C 175.300781 333.710938 174.785156 333.148438 174.257812 332.648438 C 174.007812 332.378906 173.789062 332.054688 173.558594 331.761719 C 173.324219 331.472656 173.109375 331.160156 172.9375 330.804688 C 172.539062 330.191406 172.3125 329.230469 172.980469 328.421875 C 173.4375 328.703125 173.699219 328.882812 173.976562 329.085938 C 174.203125 329.292969 174.410156 329.503906 174.585938 329.738281 C 174.746094 329.976562 174.953125 330.191406 175.1875 330.394531 C 175.414062 330.597656 175.605469 330.816406 175.851562 331.003906 C 176.375 331.351562 176.820312 331.757812 177.371094 332.066406 C 177.933594 332.363281 178.46875 332.691406 179.015625 333 C 180.207031 333.5 181.328125 334.078125 182.582031 334.46875 L 184.417969 335.113281 C 185.039062 335.308594 185.6875 335.449219 186.320312 335.621094 C 191.394531 336.96875 196.6875 337.605469 201.980469 338.226562 L 205.960938 338.695312 L 209.964844 339.046875 L 213.980469 339.402344 L 218.007812 339.609375 C 220.695312 339.707031 223.386719 339.816406 226.082031 339.773438 C 227.429688 339.777344 228.777344 339.785156 230.125 339.84375 L 232.152344 339.945312 C 232.828125 339.980469 233.507812 340.140625 234.207031 340.808594 C 233.558594 341.503906 232.886719 341.691406 232.207031 341.757812 L 230.179688 341.949219 C 228.824219 342.066406 227.46875 342.132812 226.113281 342.195312 C 223.402344 342.351562 220.679688 342.273438 217.960938 342.328125 L 213.878906 342.417969 L 209.789062 342.355469 L 205.691406 342.265625 L 201.597656 341.949219 C 199.71875 341.808594 197.84375 341.585938 195.976562 341.289062 L 194.65625 341.761719 C 193.433594 342.113281 192.207031 342.464844 190.96875 342.769531 C 188.492188 343.351562 185.992188 343.820312 183.492188 344.203125 Z M 155.738281 297.667969 C 155.738281 298.949219 157.25 299.988281 159.117188 299.988281 C 160.980469 299.988281 162.492188 298.949219 162.492188 297.667969 C 162.492188 296.382812 160.980469 295.34375 159.117188 295.34375 C 157.25 295.34375 155.738281 296.382812 155.738281 297.667969 Z M 205.324219 299.226562 C 205.628906 296.945312 203.648438 295.859375 202.972656 295.558594 C 199.433594 295.367188 166.542969 293.582031 159.085938 293.183594 C 156.949219 293.066406 155.339844 293.488281 154.429688 294.390625 C 153.441406 295.371094 153.460938 296.695312 153.460938 296.710938 C 153.511719 297.746094 152.710938 298.625 151.675781 298.675781 C 150.585938 298.699219 149.757812 297.921875 149.710938 296.886719 C 149.695312 296.585938 149.632812 293.867188 151.78125 291.730469 C 153.488281 290.03125 156.015625 289.265625 159.285156 289.433594 C 167.167969 289.855469 203.484375 291.828125 203.484375 291.828125 C 203.664062 291.835938 203.839844 291.875 204.011719 291.933594 C 206.015625 292.644531 209.648438 295.1875 209.046875 299.71875 C 208.917969 300.664062 208.113281 301.351562 207.1875 301.351562 C 207.105469 301.351562 207.019531 301.34375 206.9375 301.332031 C 205.90625 301.195312 205.1875 300.253906 205.324219 299.226562" fill="#312e5f"/></g><g id="change4_1"><path d="M 156.582031 274.652344 C 155.949219 274.304688 155.285156 274.210938 154.660156 274.117188 C 154.183594 274.074219 153.699219 274.035156 153.238281 273.972656 C 152.3125 273.847656 151.417969 273.664062 150.703125 273.332031 C 149.984375 273 149.496094 272.554688 149.195312 271.90625 C 148.894531 271.257812 148.796875 270.394531 148.820312 269.5 C 148.824219 268.601562 148.976562 267.683594 149.136719 266.71875 C 149.46875 264.691406 149.820312 262.410156 148.792969 260.09375 C 148.273438 258.964844 147.402344 258.0625 146.539062 257.394531 C 145.671875 256.722656 144.792969 256.191406 143.933594 255.675781 L 142.65625 254.902344 C 142.28125 254.632812 141.898438 254.421875 141.570312 254.109375 C 140.882812 253.542969 140.304688 252.84375 139.835938 252.058594 C 138.914062 250.464844 138.40625 248.710938 137.554688 246.75 C 135.992188 250.898438 139.21875 255.570312 142.765625 257.492188 C 144.410156 258.625 146.070312 259.652344 146.628906 261.070312 C 147.230469 262.488281 147.035156 264.410156 146.710938 266.277344 C 146.539062 267.285156 146.359375 268.351562 146.347656 269.457031 C 146.324219 270.554688 146.40625 271.742188 146.933594 272.933594 C 147.453125 274.132812 148.550781 275.105469 149.652344 275.589844 C 150.757812 276.097656 151.855469 276.300781 152.910156 276.449219 C 153.4375 276.523438 153.957031 276.566406 154.476562 276.609375 C 154.839844 276.679688 155.179688 276.710938 155.429688 276.863281 C 155.945312 277.109375 156.316406 277.621094 156.550781 278.402344 C 156.792969 279.167969 156.871094 280.085938 156.90625 281.023438 C 156.9375 281.980469 156.703125 282.871094 157.3125 284.058594 C 158.457031 283.316406 158.574219 282.226562 158.789062 281.1875 C 158.992188 280.132812 159.0625 279.023438 158.835938 277.835938 C 158.625 276.6875 157.886719 275.308594 156.582031 274.652344 Z M 233.851562 250.054688 C 232.777344 250.085938 231.679688 250.257812 230.570312 250.738281 C 229.492188 251.195312 228.308594 252.214844 227.953125 253.632812 C 227.75 254.324219 227.804688 254.996094 227.847656 255.621094 C 227.910156 256.101562 227.980469 256.578125 228.015625 257.042969 C 228.097656 257.972656 228.109375 258.886719 227.945312 259.65625 C 227.773438 260.433594 227.449219 261.003906 226.882812 261.4375 C 226.3125 261.875 225.492188 262.15625 224.613281 262.328125 C 223.734375 262.519531 222.808594 262.570312 221.828125 262.625 C 219.777344 262.746094 217.476562 262.898438 215.441406 264.402344 C 214.449219 265.15625 213.757812 266.203125 213.296875 267.1875 C 212.824219 268.1875 212.5 269.15625 212.183594 270.109375 L 211.707031 271.519531 C 211.523438 271.949219 211.40625 272.367188 211.171875 272.753906 C 210.769531 273.550781 210.210938 274.269531 209.546875 274.894531 C 208.191406 276.140625 206.589844 277.019531 204.863281 278.277344 C 209.25 278.898438 213.105469 274.730469 214.214844 270.851562 C 214.960938 269 215.601562 267.15625 216.863281 266.300781 C 218.113281 265.410156 220.035156 265.175781 221.925781 265.089844 C 222.949219 265.035156 224.027344 264.980469 225.109375 264.75 C 226.1875 264.535156 227.328125 264.195312 228.375 263.421875 C 229.433594 262.65625 230.144531 261.371094 230.375 260.191406 C 230.632812 259 230.589844 257.886719 230.503906 256.824219 C 230.460938 256.292969 230.394531 255.777344 230.320312 255.261719 C 230.3125 254.890625 230.269531 254.550781 230.359375 254.273438 C 230.492188 253.71875 230.90625 253.246094 231.621094 252.847656 C 232.3125 252.441406 233.195312 252.167969 234.101562 251.929688 C 235.027344 251.6875 235.949219 251.722656 236.972656 250.871094 C 236 249.917969 234.910156 250.035156 233.851562 250.054688 Z M 187.296875 254.054688 C 187.835938 255.132812 188.054688 256.582031 187.6875 257.835938 C 187.335938 259.085938 186.636719 260.054688 185.917969 260.882812 C 185.203125 261.730469 184.382812 262.433594 183.605469 263.097656 C 182.160156 264.324219 180.785156 265.683594 180.34375 267.152344 C 179.863281 268.601562 180.484375 270.453125 181.027344 272.375 C 182.527344 276.121094 182.023438 281.777344 178.167969 283.96875 C 178.765625 281.914062 179.496094 280.246094 179.808594 278.425781 C 179.949219 277.527344 179.949219 276.617188 179.78125 275.742188 C 179.734375 275.292969 179.570312 274.886719 179.453125 274.4375 L 178.96875 273.027344 C 178.636719 272.082031 178.300781 271.113281 178.0625 270.039062 C 177.824219 268.976562 177.730469 267.722656 178.054688 266.523438 C 178.746094 264.085938 180.472656 262.558594 182.023438 261.207031 C 182.761719 260.566406 183.464844 259.957031 184.042969 259.269531 C 184.632812 258.597656 185.109375 257.871094 185.292969 257.179688 C 185.476562 256.488281 185.382812 255.835938 185.042969 255.121094 C 184.703125 254.410156 184.136719 253.695312 183.503906 253.007812 C 183.1875 252.664062 182.839844 252.328125 182.5 251.988281 C 182.082031 251.515625 181.628906 251.019531 181.367188 250.347656 C 180.78125 249.007812 181.09375 247.476562 181.667969 246.457031 C 182.25 245.402344 183.015625 244.59375 183.84375 243.910156 C 184.671875 243.246094 185.460938 242.488281 186.816406 242.648438 C 186.523438 243.949219 185.773438 244.484375 185.1875 245.242188 C 184.617188 245.984375 184.089844 246.738281 183.785156 247.484375 C 183.46875 248.234375 183.429688 248.863281 183.664062 249.382812 C 183.761719 249.660156 184.003906 249.902344 184.238281 250.1875 C 184.609375 250.554688 184.980469 250.917969 185.339844 251.3125 C 186.054688 252.101562 186.769531 252.957031 187.296875 254.054688" fill="#f1e510"/></g><g id="change5_1"><path d="M 122.410156 170.992188 C 122.125 171.019531 121.835938 171.058594 121.554688 171.101562 C 120.988281 171.195312 120.433594 171.3125 119.898438 171.492188 C 119.355469 171.648438 118.820312 171.835938 118.285156 172.015625 C 118.019531 172.117188 117.742188 172.175781 117.503906 172.351562 C 117.382812 172.4375 117.273438 172.5625 117.171875 172.699219 C 117.125 172.78125 117.0625 172.824219 117.03125 172.945312 C 117 173.078125 117.007812 173.320312 117.070312 173.742188 C 117.273438 174.117188 117.410156 174.3125 117.515625 174.402344 C 117.617188 174.480469 117.6875 174.476562 117.777344 174.515625 C 117.941406 174.5625 118.101562 174.597656 118.25 174.59375 C 118.546875 174.589844 118.804688 174.472656 119.074219 174.394531 C 119.613281 174.214844 120.152344 174.046875 120.683594 173.84375 C 121.21875 173.664062 121.734375 173.425781 122.242188 173.160156 C 122.496094 173.027344 122.746094 172.886719 122.992188 172.734375 C 123.246094 172.601562 123.503906 172.484375 123.507812 171.597656 C 122.972656 170.886719 122.695312 170.949219 122.410156 170.992188 Z M 106.382812 177.796875 C 105.855469 177.808594 105.339844 177.882812 104.820312 177.945312 L 103.285156 178.253906 C 102.265625 178.464844 101.238281 178.652344 100.21875 178.886719 L 97.191406 179.667969 C 93.183594 180.820312 89.214844 182.164062 85.421875 183.898438 C 81.613281 185.585938 77.886719 187.460938 74.273438 189.527344 C 72.472656 190.574219 70.679688 191.636719 68.976562 192.839844 C 68.128906 193.449219 67.292969 194.070312 66.5 194.757812 C 65.714844 195.441406 64.808594 195.992188 64.519531 197.335938 C 65.886719 197.441406 66.65625 196.796875 67.574219 196.320312 C 68.476562 195.835938 69.363281 195.324219 70.25 194.816406 L 75.515625 191.695312 C 79.054688 189.660156 82.699219 187.8125 86.421875 186.152344 C 90.140625 184.480469 93.941406 183.007812 97.8125 181.738281 L 100.726562 180.8125 C 101.703125 180.535156 102.695312 180.296875 103.679688 180.035156 C 105.652344 179.476562 107.652344 179.234375 109.566406 178.03125 C 108.488281 177.769531 107.433594 177.75 106.382812 177.796875 Z M 156.351562 22.882812 C 156.011719 22.96875 155.746094 23.171875 155.4375 23.3125 C 154.859375 23.648438 154.289062 24.039062 153.820312 24.519531 C 152.859375 25.460938 152.101562 26.578125 151.507812 27.742188 C 150.300781 30.066406 149.570312 32.546875 149.113281 35.027344 C 148.644531 37.511719 148.484375 40.023438 148.484375 42.511719 C 148.503906 43.757812 148.558594 45 148.648438 46.238281 C 148.71875 47.472656 148.824219 48.730469 149.78125 49.871094 C 150.496094 48.578125 150.46875 47.394531 150.472656 46.1875 C 150.492188 44.980469 150.550781 43.777344 150.644531 42.582031 C 150.800781 40.1875 151.109375 37.816406 151.550781 35.496094 C 152.019531 33.1875 152.679688 30.921875 153.726562 28.902344 C 154.242188 27.886719 154.882812 26.976562 155.5625 26.109375 C 155.894531 25.664062 156.246094 25.238281 156.621094 24.816406 C 156.980469 24.351562 157.464844 24.15625 157.558594 23.058594 C 157.089844 22.824219 156.695312 22.8125 156.351562 22.882812 Z M 204.546875 4.441406 C 200.6875 4.488281 196.84375 4.921875 193.09375 5.757812 C 189.351562 6.617188 185.695312 7.765625 182.121094 9.121094 C 180.332031 9.800781 178.566406 10.535156 176.867188 11.410156 C 176.015625 11.847656 175.1875 12.328125 174.378906 12.847656 C 173.589844 13.386719 172.6875 13.761719 172.304688 15.015625 C 173.5625 15.34375 174.339844 14.855469 175.230469 14.542969 C 176.117188 14.234375 176.976562 13.878906 177.847656 13.550781 C 179.570312 12.847656 181.28125 12.117188 183.015625 11.457031 C 186.484375 10.125 190.03125 9.003906 193.640625 8.164062 C 197.257812 7.382812 200.902344 6.800781 204.585938 6.605469 C 206.414062 6.617188 208.269531 6.507812 210.089844 6.761719 C 211.949219 6.859375 213.667969 7.359375 215.738281 6.972656 C 214.136719 5.75 212.234375 5.136719 210.316406 4.953125 C 208.410156 4.574219 206.480469 4.566406 204.546875 4.441406 Z M 357.636719 334.007812 C 357.382812 333.003906 356.359375 332.398438 355.355469 332.65625 L 309.359375 344.421875 C 314.765625 313.972656 320.820312 276.535156 320.820312 261.5625 C 320.820312 235.820312 330.609375 218.328125 330.707031 218.15625 C 331.21875 217.253906 330.90625 216.109375 330.007812 215.597656 C 329.105469 215.082031 327.960938 215.394531 327.445312 216.296875 C 327.023438 217.035156 317.066406 234.769531 317.066406 261.5625 C 317.066406 287.679688 297.59375 387.160156 297.394531 388.160156 C 297.195312 389.179688 297.859375 390.164062 298.875 390.363281 C 298.996094 390.390625 299.121094 390.402344 299.238281 390.402344 C 300.117188 390.402344 300.902344 389.78125 301.078125 388.886719 C 301.40625 387.207031 304.773438 370.019531 308.632812 348.480469 L 356.285156 336.292969 C 357.289062 336.035156 357.894531 335.011719 357.636719 334.007812 Z M 82.695312 469.242188 C 81.722656 468.886719 80.644531 469.390625 80.289062 470.363281 C 77.082031 479.183594 65.179688 491.976562 65.058594 492.101562 C 64.351562 492.859375 64.390625 494.046875 65.148438 494.753906 C 65.511719 495.09375 65.972656 495.261719 66.429688 495.261719 C 66.933594 495.261719 67.429688 495.0625 67.800781 494.667969 C 68.3125 494.121094 80.347656 481.1875 83.816406 471.644531 C 84.171875 470.671875 83.667969 469.597656 82.695312 469.242188 Z M 67.445312 379.195312 C 67.09375 378.003906 62.867188 363.429688 58.578125 345.289062 L 18.191406 336.875 C 17.175781 336.664062 16.523438 335.667969 16.738281 334.652344 C 16.949219 333.636719 17.945312 332.988281 18.957031 333.199219 L 57.640625 341.257812 C 53.59375 323.636719 49.746094 303.460938 49.355469 289.0625 C 48.53125 259.011719 34.5 231.449219 34.359375 231.175781 C 33.882812 230.253906 34.246094 229.121094 35.167969 228.648438 C 36.089844 228.175781 37.222656 228.535156 37.695312 229.457031 C 38.289062 230.609375 52.257812 258.0625 53.105469 288.960938 C 53.933594 319.191406 70.875 377.558594 71.046875 378.144531 C 71.339844 379.140625 70.765625 380.183594 69.773438 380.472656 C 69.597656 380.523438 69.417969 380.546875 69.246094 380.546875 C 68.433594 380.546875 67.683594 380.015625 67.445312 379.195312" fill="#e3386a"/></g></g></svg>