<?xml version="1.0" encoding="UTF-8"?><svg xmlns="http://www.w3.org/2000/svg" xmlns:xlink="http://www.w3.org/1999/xlink" height="263.3" preserveAspectRatio="xMidYMid meet" version="1.0" viewBox="91.1 81.0 243.0 263.3" width="243.0" zoomAndPan="magnify"><g><g id="change1_1"><path d="M 157.074219 330.75 C 150.464844 330.75 145.085938 325.371094 145.085938 318.761719 L 145.085938 112.402344 C 145.085938 105.792969 150.464844 100.414062 157.074219 100.414062 L 266.023438 100.414062 C 272.636719 100.414062 278.015625 105.792969 278.015625 112.402344 L 278.015625 318.761719 C 278.015625 325.371094 272.636719 330.75 266.023438 330.75 L 157.074219 330.75" fill="#48c2c6"/></g><g id="change2_1"><path d="M 266.023438 98.160156 L 157.074219 98.160156 C 149.222656 98.160156 142.835938 104.550781 142.835938 112.402344 L 142.835938 318.761719 C 142.835938 326.613281 149.222656 333 157.074219 333 L 266.023438 333 C 273.875 333 280.265625 326.613281 280.265625 318.761719 L 280.265625 112.402344 C 280.265625 104.550781 273.875 98.160156 266.023438 98.160156 Z M 266.023438 102.664062 C 271.402344 102.664062 275.765625 107.023438 275.765625 112.402344 L 275.765625 318.761719 C 275.765625 324.140625 271.402344 328.5 266.023438 328.5 L 157.074219 328.5 C 151.695312 328.5 147.335938 324.140625 147.335938 318.761719 L 147.335938 112.402344 C 147.335938 107.023438 151.695312 102.664062 157.074219 102.664062 L 266.023438 102.664062" fill="#313185"/></g><g id="change3_1"><path d="M 268.859375 302.347656 L 268.859375 123.261719 C 268.859375 118.460938 264.96875 114.570312 260.167969 114.570312 L 236.441406 114.570312 L 236.441406 119.980469 C 236.441406 121.773438 234.988281 123.226562 233.195312 123.226562 L 189.902344 123.226562 C 188.109375 123.226562 186.65625 121.773438 186.65625 119.980469 L 186.65625 114.570312 L 162.929688 114.570312 C 158.128906 114.570312 154.238281 118.460938 154.238281 123.261719 L 154.238281 302.347656 L 268.859375 302.347656" fill="#feffff"/></g><path d="M 2688.59375 1228.523438 L 2688.59375 3019.382812 C 2688.59375 3067.390625 2649.6875 3106.296875 2601.679688 3106.296875 L 2364.414062 3106.296875 L 2364.414062 3052.195312 C 2364.414062 3034.265625 2349.882812 3019.734375 2331.953125 3019.734375 L 1899.023438 3019.734375 C 1881.09375 3019.734375 1866.5625 3034.265625 1866.5625 3052.195312 L 1866.5625 3106.296875 L 1629.296875 3106.296875 C 1581.289062 3106.296875 1542.382812 3067.390625 1542.382812 3019.382812 L 1542.382812 1228.523438 Z M 2688.59375 1228.523438" fill="none" stroke="#313185" stroke-linecap="round" stroke-linejoin="round" stroke-miterlimit="10" stroke-width="45" transform="matrix(.1 0 0 -.1 0 425.2)"/><g id="change4_1"><path d="M 199.644531 322.949219 C 196.613281 322.949219 194.148438 320.484375 194.148438 317.453125 L 194.148438 315.828125 C 194.148438 312.796875 196.613281 310.332031 199.644531 310.332031 L 223.457031 310.332031 C 226.488281 310.332031 228.953125 312.796875 228.953125 315.828125 L 228.953125 317.453125 C 228.953125 320.484375 226.488281 322.949219 223.457031 322.949219 L 199.644531 322.949219" fill="#fabd26"/></g><g id="change2_2"><path d="M 223.457031 308.082031 L 199.644531 308.082031 C 195.371094 308.082031 191.898438 311.558594 191.898438 315.828125 L 191.898438 317.453125 C 191.898438 321.726562 195.371094 325.199219 199.644531 325.199219 L 223.457031 325.199219 C 227.726562 325.199219 231.203125 321.726562 231.203125 317.453125 L 231.203125 315.828125 C 231.203125 311.558594 227.726562 308.082031 223.457031 308.082031 Z M 223.457031 312.582031 C 225.25 312.582031 226.703125 314.035156 226.703125 315.828125 L 226.703125 317.453125 C 226.703125 319.246094 225.25 320.699219 223.457031 320.699219 L 199.644531 320.699219 C 197.851562 320.699219 196.398438 319.246094 196.398438 317.453125 L 196.398438 315.828125 C 196.398438 314.035156 197.851562 312.582031 199.644531 312.582031 L 223.457031 312.582031" fill="#313185"/></g><g id="change4_2"><path d="M 197.539062 115.75 C 195.65625 115.75 194.125 114.21875 194.125 112.335938 L 194.125 111.753906 C 194.125 109.871094 195.65625 108.339844 197.539062 108.339844 L 225.558594 108.339844 C 227.441406 108.339844 228.976562 109.871094 228.976562 111.753906 L 228.976562 112.335938 C 228.976562 114.21875 227.441406 115.75 225.558594 115.75 L 197.539062 115.75" fill="#fabd26"/></g><g id="change2_3"><path d="M 225.558594 106.089844 L 197.539062 106.089844 C 194.417969 106.089844 191.875 108.628906 191.875 111.753906 L 191.875 112.335938 C 191.875 115.457031 194.417969 118 197.539062 118 L 225.558594 118 C 228.683594 118 231.226562 115.457031 231.226562 112.335938 L 231.226562 111.753906 C 231.226562 108.628906 228.683594 106.089844 225.558594 106.089844 Z M 225.558594 110.589844 C 226.203125 110.589844 226.726562 111.109375 226.726562 111.753906 L 226.726562 112.335938 C 226.726562 112.976562 226.203125 113.5 225.558594 113.5 L 197.539062 113.5 C 196.898438 113.5 196.375 112.976562 196.375 112.335938 L 196.375 111.753906 C 196.375 111.109375 196.898438 110.589844 197.539062 110.589844 L 225.558594 110.589844" fill="#313185"/></g><g id="change5_1"><path d="M 202.464844 182.753906 C 202.464844 173.191406 194.710938 165.4375 185.144531 165.4375 L 143.660156 165.4375 C 134.09375 165.4375 126.34375 173.191406 126.34375 182.753906 C 126.34375 192.316406 134.09375 200.070312 143.660156 200.070312 L 176.015625 200.070312 C 177.589844 204.582031 181.492188 212.046875 190.558594 214.789062 C 190.558594 214.789062 186.359375 207.984375 186.265625 200.015625 C 195.304688 199.433594 202.464844 191.941406 202.464844 182.753906" fill="#f14a4d"/></g><path d="M 2024.648438 2424.460938 C 2024.648438 2520.085938 1947.109375 2597.625 1851.445312 2597.625 L 1436.601562 2597.625 C 1340.9375 2597.625 1263.4375 2520.085938 1263.4375 2424.460938 C 1263.4375 2328.835938 1340.9375 2251.296875 1436.601562 2251.296875 L 1760.15625 2251.296875 C 1775.898438 2206.179688 1814.921875 2131.53125 1905.585938 2104.109375 C 1905.585938 2104.109375 1863.59375 2172.15625 1862.65625 2251.84375 C 1953.046875 2257.664062 2024.648438 2332.585938 2024.648438 2424.460938 Z M 2024.648438 2424.460938" fill="none" stroke="#313185" stroke-linecap="round" stroke-linejoin="round" stroke-miterlimit="10" stroke-width="45" transform="matrix(.1 0 0 -.1 0 425.2)"/><g id="change5_2"><path d="M 212.574219 225.320312 C 212.574219 213.730469 221.96875 204.332031 233.5625 204.332031 L 283.835938 204.332031 C 295.421875 204.332031 304.820312 213.730469 304.820312 225.320312 C 304.820312 236.910156 295.421875 246.304688 283.835938 246.304688 L 244.625 246.304688 C 242.71875 251.769531 237.984375 260.816406 227 264.140625 C 227 264.140625 232.085938 255.898438 232.203125 246.234375 C 221.25 245.535156 212.574219 236.453125 212.574219 225.320312" fill="#f14a4d"/></g><path d="M 2125.742188 1998.796875 C 2125.742188 2114.695312 2219.6875 2208.679688 2335.625 2208.679688 L 2838.359375 2208.679688 C 2954.21875 2208.679688 3048.203125 2114.695312 3048.203125 1998.796875 C 3048.203125 1882.898438 2954.21875 1788.953125 2838.359375 1788.953125 L 2446.25 1788.953125 C 2427.1875 1734.304688 2379.84375 1643.835938 2270 1610.59375 C 2270 1610.59375 2320.859375 1693.015625 2322.03125 1789.65625 C 2212.5 1796.648438 2125.742188 1887.46875 2125.742188 1998.796875 Z M 2125.742188 1998.796875" fill="none" stroke="#313185" stroke-linecap="round" stroke-linejoin="round" stroke-miterlimit="10" stroke-width="45" transform="matrix(.1 0 0 -.1 0 425.2)"/><path d="M 1239.765625 1247.429688 L 1239.765625 1088.289062" fill="none" stroke="#313185" stroke-linecap="round" stroke-linejoin="round" stroke-miterlimit="10" stroke-width="45" transform="matrix(.1 0 0 -.1 0 425.2)"/><path d="M 1319.296875 1167.859375 L 1160.195312 1167.859375" fill="none" stroke="#313185" stroke-linecap="round" stroke-linejoin="round" stroke-miterlimit="10" stroke-width="45" transform="matrix(.1 0 0 -.1 0 425.2)"/><path d="M 1061.5625 1088.289062 L 1061.5625 832.078125" fill="none" stroke="#313185" stroke-linecap="round" stroke-linejoin="round" stroke-miterlimit="10" stroke-width="45" transform="matrix(.1 0 0 -.1 0 425.2)"/><path d="M 1189.6875 960.164062 L 933.476562 960.164062" fill="none" stroke="#313185" stroke-linecap="round" stroke-linejoin="round" stroke-miterlimit="10" stroke-width="45" transform="matrix(.1 0 0 -.1 0 425.2)"/><path d="M 3238.984375 3419.929688 L 3238.984375 3260.789062" fill="none" stroke="#313185" stroke-linecap="round" stroke-linejoin="round" stroke-miterlimit="10" stroke-width="45" transform="matrix(.1 0 0 -.1 0 425.2)"/><path d="M 3318.515625 3340.359375 L 3159.414062 3340.359375" fill="none" stroke="#313185" stroke-linecap="round" stroke-linejoin="round" stroke-miterlimit="10" stroke-width="45" transform="matrix(.1 0 0 -.1 0 425.2)"/><path d="M 3060.820312 3260.789062 L 3060.820312 3004.578125" fill="none" stroke="#313185" stroke-linecap="round" stroke-linejoin="round" stroke-miterlimit="10" stroke-width="45" transform="matrix(.1 0 0 -.1 0 425.2)"/><path d="M 3188.90625 3132.664062 L 2932.695312 3132.664062" fill="none" stroke="#313185" stroke-linecap="round" stroke-linejoin="round" stroke-miterlimit="10" stroke-width="45" transform="matrix(.1 0 0 -.1 0 425.2)"/><path d="M 1126.40625 3078.835938 L 1126.40625 2919.734375" fill="none" stroke="#313185" stroke-linecap="round" stroke-linejoin="round" stroke-miterlimit="10" stroke-width="45" transform="matrix(.1 0 0 -.1 0 425.2)"/><path d="M 1205.9375 2999.304688 L 1046.835938 2999.304688" fill="none" stroke="#313185" stroke-linecap="round" stroke-linejoin="round" stroke-miterlimit="10" stroke-width="45" transform="matrix(.1 0 0 -.1 0 425.2)"/><path d="M 3205.15625 1100.085938 L 3205.15625 940.945312" fill="none" stroke="#313185" stroke-linecap="round" stroke-linejoin="round" stroke-miterlimit="10" stroke-width="45" transform="matrix(.1 0 0 -.1 0 425.2)"/><path d="M 3284.726562 1020.515625 L 3125.625 1020.515625" fill="none" stroke="#313185" stroke-linecap="round" stroke-linejoin="round" stroke-miterlimit="10" stroke-width="45" transform="matrix(.1 0 0 -.1 0 425.2)"/></g></svg>