<?xml version="1.0" encoding="UTF-8"?><svg xmlns="http://www.w3.org/2000/svg" xmlns:xlink="http://www.w3.org/1999/xlink" height="409.7" preserveAspectRatio="xMidYMid meet" version="1.0" viewBox="-30.3 -2.5 507.9 409.7" width="507.9" zoomAndPan="magnify"><defs><clipPath id="a"><path d="M 291 76 L 477.601562 76 L 477.601562 287 L 291 287 Z M 291 76"/></clipPath><clipPath id="b"><path d="M 64 181 L 453 181 L 453 407.230469 L 64 407.230469 Z M 64 181"/></clipPath><clipPath id="c"><path d="M 333 76 L 477.601562 76 L 477.601562 288 L 333 288 Z M 333 76"/></clipPath></defs><g><g clip-path="url(#a)" id="change1_5"><path d="M 463.792969 117.484375 C 449.542969 108.484375 432.222656 98.363281 427.464844 95.59375 C 426.714844 95.152344 426.3125 94.324219 426.433594 93.472656 C 427.152344 88.621094 428.523438 72.941406 415.472656 76.761719 C 402.324219 80.613281 378.472656 76.371094 375.042969 89.953125 C 374.855469 90.683594 374.28125 91.253906 373.554688 91.453125 L 334.171875 102.03125 C 333.59375 102.191406 333.105469 102.582031 332.832031 103.121094 L 291.5625 181.722656 C 290.902344 183.03125 294.273438 183.234375 295.722656 183.402344 C 300.792969 184.023438 311.792969 185.492188 324.59375 188.140625 L 336.703125 177.160156 L 336.703125 181.722656 L 339.382812 191.613281 C 349.824219 194.351562 360.414062 197.871094 369.265625 202.28125 C 369.265625 202.28125 369.273438 202.28125 369.28125 202.292969 C 370.0625 202.542969 395.152344 210.894531 414.792969 228.242188 L 378.402344 268.851562 C 377.714844 269.621094 377.683594 270.78125 378.332031 271.582031 L 389.171875 286.222656 C 389.882812 287.101562 391.171875 286.160156 392.082031 285.492188 C 396.742188 282.0625 410.53125 271.671875 422.445312 260.472656 C 437.03125 246.761719 453.464844 230.152344 455.632812 225.53125 C 457.792969 220.910156 464.03125 203.242188 467.871094 184.171875 C 471.703125 165.101562 477.105469 132.003906 477.105469 132.003906 C 477.105469 132.003906 480.472656 128.023438 463.792969 117.484375" fill="#ad3221"/></g><g id="change2_1"><path d="M 222.21875 205.59375 C 222.21875 205.59375 277.90625 210.007812 285.542969 212.558594 L 225.261719 267.199219 L 150.964844 250.855469 L 222.21875 205.59375" fill="#fff"/></g><g id="change3_2"><path d="M 152.257812 250.628906 L 225.117188 266.652344 L 284.539062 212.792969 C 274.769531 210.328125 225.613281 206.367188 222.34375 206.105469 Z M 225.40625 267.742188 L 225.15625 267.6875 L 149.671875 251.085938 L 222.089844 205.082031 L 222.257812 205.09375 C 224.53125 205.273438 278.09375 209.539062 285.699219 212.085938 L 286.511719 212.355469 L 225.40625 267.742188" fill="#100f0d"/></g><g id="change2_2"><path d="M 164.410156 249.578125 C 164.410156 249.578125 231.136719 202.941406 232.773438 202.941406 C 234.414062 202.941406 301.261719 209.070312 300.777344 209.070312 C 300.289062 209.070312 238.113281 264.730469 238.113281 264.730469 L 204.710938 258.433594 L 164.410156 249.578125" fill="#fff"/></g><g id="change3_3"><path d="M 204.808594 257.941406 L 237.964844 264.191406 C 284.472656 222.558594 296.40625 212.089844 299.574219 209.453125 C 290.839844 208.636719 234.339844 203.441406 232.773438 203.441406 C 230.898438 204.015625 191.945312 230.953125 165.632812 249.335938 Z M 238.261719 265.265625 L 204.601562 258.921875 L 163.191406 249.824219 L 164.125 249.171875 C 179.808594 238.207031 231.105469 202.441406 232.773438 202.441406 C 233.734375 202.441406 254.902344 204.351562 267.433594 205.492188 C 275.835938 206.253906 284.183594 207.019531 290.429688 207.59375 C 293.554688 207.882812 296.152344 208.125 297.972656 208.296875 C 299.425781 208.433594 300.238281 208.507812 300.695312 208.589844 C 300.738281 208.570312 300.757812 208.570312 300.777344 208.570312 L 300.777344 208.605469 C 301.28125 208.707031 301.28125 208.824219 301.28125 209.070312 L 301.28125 209.570312 L 300.929688 209.570312 C 298.472656 211.453125 259.1875 246.535156 238.445312 265.101562 L 238.261719 265.265625" fill="#100f0d"/></g><g clip-path="url(#b)" id="change3_21"><path d="M 452.761719 294.144531 C 452.761719 356.5 365.777344 407.230469 258.859375 407.230469 C 151.9375 407.230469 64.953125 356.5 64.953125 294.144531 C 64.953125 231.789062 151.9375 181.058594 258.859375 181.058594 C 323.15625 181.058594 380.226562 199.414062 415.527344 227.601562 C 415.171875 227.703125 414.929688 227.945312 414.796875 228.246094 C 379.6875 200.273438 322.871094 182.058594 258.859375 182.058594 C 152.488281 182.058594 65.953125 232.339844 65.953125 294.144531 C 65.953125 355.949219 152.488281 406.230469 258.859375 406.230469 C 365.226562 406.230469 451.761719 355.949219 451.761719 294.144531 C 451.761719 278.007812 445.851562 262.65625 435.238281 248.78125 C 435.609375 248.707031 435.871094 248.488281 436.023438 248.207031 C 446.773438 262.25 452.761719 277.796875 452.761719 294.144531" fill="#100f0d"/></g><g id="change2_3"><path d="M 217.859375 79.890625 C 236.070312 77.863281 249.011719 115.792969 249.011719 115.792969 C 249.011719 115.792969 249.859375 98.941406 250.144531 96.21875 C 250.429688 93.496094 262.28125 94.515625 265.007812 95.066406 C 267.730469 95.617188 269.09375 112.558594 269.6875 135.707031 C 270.28125 158.855469 257.859375 173.15625 245.945312 169.238281 C 234.027344 165.324219 230.304688 157.113281 230.304688 157.113281 L 221.835938 176.15625 L 219.558594 199.027344 C 219.558594 199.027344 181.773438 241.238281 141.503906 225.921875 C 101.230469 210.601562 113.6875 171.964844 101.433594 149.15625 C 89.175781 126.347656 111.136719 107.964844 114.710938 105.410156 C 118.285156 102.855469 135.304688 87.746094 135.304688 87.746094 C 135.304688 87.746094 199.644531 81.921875 217.859375 79.890625" fill="#fff"/></g><g id="change3_4"><path d="M 199.410156 131.367188 C 200.367188 133.835938 185.191406 175.027344 185.191406 175.027344 C 184.863281 164.8125 171.675781 136.558594 171.675781 136.558594 C 171.675781 136.558594 198.453125 128.898438 199.410156 131.367188" fill="#100f0d"/></g><g id="change3_5"><path d="M 220.515625 176.65625 L 221.074219 177.484375 C 219.023438 178.867188 211.40625 180.871094 199.882812 183.902344 C 194.238281 185.386719 187.84375 187.070312 180.714844 189.039062 C 159.335938 194.949219 145.125 204.203125 144.984375 204.296875 L 144.433594 203.460938 C 144.507812 203.414062 148.15625 201.035156 154.5 197.925781 C 152.144531 191.964844 135.945312 157.679688 135.777344 157.324219 L 136.683594 156.898438 C 137.363281 158.339844 152.914062 191.253906 155.402344 197.488281 C 161.632812 194.488281 170.230469 190.902344 180.449219 188.078125 C 187.582031 186.105469 193.980469 184.421875 199.628906 182.9375 C 210.644531 180.035156 218.605469 177.941406 220.515625 176.65625 Z M 257.945312 166.523438 C 254.203125 169.308594 250.109375 170.082031 246.101562 168.765625 C 234.554688 164.972656 230.796875 156.984375 230.761719 156.90625 L 230.300781 155.894531 L 221.378906 175.953125 L 219.078125 198.8125 C 217.164062 200.886719 190.835938 228.738281 159.609375 228.738281 C 153.761719 228.738281 147.738281 227.757812 141.679688 225.453125 C 114.777344 215.21875 111.691406 194.777344 108.707031 175.003906 C 107.261719 165.441406 105.898438 156.410156 101.871094 148.917969 C 88.929688 124.824219 114.738281 106.003906 115 105.816406 C 118.433594 103.363281 133.847656 89.703125 135.515625 88.226562 C 139.148438 87.898438 200.351562 82.34375 217.914062 80.390625 C 235.507812 78.414062 248.40625 115.578125 248.535156 115.953125 L 248.683594 116.390625 C 248.335938 124.582031 247.9375 133.285156 247.746094 134.882812 C 247.640625 135.769531 247.179688 137.074219 246.597656 138.730469 C 245.191406 142.730469 243.0625 148.777344 243.472656 156.160156 L 244.46875 156.105469 C 244.074219 148.921875 246.160156 142.988281 247.539062 139.0625 C 248.144531 137.351562 248.617188 136 248.738281 135.003906 C 249.117188 131.832031 250.257812 102.378906 250.3125 101.019531 C 250.445312 98.800781 250.5625 97.007812 250.640625 96.269531 C 250.644531 96.214844 250.664062 96.046875 250.945312 95.835938 C 253.050781 94.292969 262.339844 95.035156 264.90625 95.558594 C 265.890625 95.753906 268.269531 100.066406 269.1875 135.71875 C 269.535156 149.304688 265.230469 161.105469 257.945312 166.523438 Z M 270.1875 135.695312 C 269.269531 99.976562 266.988281 94.957031 265.105469 94.578125 C 263.226562 94.195312 253.027344 93.070312 250.355469 95.03125 C 249.929688 95.34375 249.691406 95.726562 249.644531 96.167969 C 249.566406 96.921875 249.445312 98.738281 249.3125 100.96875 C 249.3125 100.96875 249.3125 100.988281 249.3125 100.992188 C 249.070312 104.960938 248.792969 110.246094 248.636719 113.3125 C 245.453125 104.976562 233.753906 77.621094 217.804688 79.394531 C 199.804688 81.398438 135.902344 87.1875 135.261719 87.246094 L 135.097656 87.261719 L 134.972656 87.371094 C 134.804688 87.523438 117.929688 102.496094 114.417969 105.003906 C 114.148438 105.195312 87.636719 124.53125 100.992188 149.390625 C 104.9375 156.730469 106.285156 165.679688 107.71875 175.152344 C 110.601562 194.273438 113.875 215.945312 141.324219 226.390625 C 147.507812 228.742188 153.640625 229.734375 159.597656 229.734375 C 192.292969 229.734375 219.609375 199.71875 219.933594 199.363281 L 220.042969 199.238281 L 222.324219 176.285156 L 230.347656 158.246094 C 231.710938 160.546875 236.039062 166.511719 245.785156 169.714844 C 250.054688 171.117188 254.585938 170.269531 258.542969 167.324219 C 266.082031 161.71875 270.546875 149.597656 270.1875 135.695312" fill="#100f0d"/></g><g id="change3_6"><path d="M 375.660156 288.40625 L 286.972656 357.578125 C 285.820312 358.476562 284.203125 358.464844 283.0625 357.550781 L 213.160156 301.34375 C 211.394531 299.925781 211.660156 297.164062 213.65625 296.105469 L 283.84375 258.894531 C 284.871094 258.347656 285.519531 257.277344 285.519531 256.109375 L 285.519531 254.40625 C 285.519531 253.3125 286.085938 252.296875 287.019531 251.722656 L 384.773438 191.789062 C 387.039062 190.398438 389.902344 192.269531 389.535156 194.90625 L 376.84375 286.359375 C 376.730469 287.167969 376.304688 287.90625 375.660156 288.40625" fill="#100f0d"/></g><g id="change2_4"><path d="M 346.96875 260.363281 C 343.710938 260.363281 339.78125 263.902344 337.558594 269.152344 C 336.28125 272.171875 335.757812 275.289062 336.09375 277.933594 C 336.414062 280.480469 337.488281 282.261719 339.117188 282.949219 C 342.578125 284.414062 347.511719 280.617188 350.113281 274.476562 C 352.71875 268.335938 352.019531 262.144531 348.558594 260.675781 C 348.054688 260.464844 347.523438 260.363281 346.96875 260.363281 Z M 340.648438 284.253906 C 339.980469 284.253906 339.335938 284.128906 338.726562 283.871094 C 336.753906 283.035156 335.46875 280.972656 335.101562 278.058594 C 334.742188 275.242188 335.289062 271.941406 336.636719 268.761719 C 339.453125 262.113281 344.976562 258.070312 348.949219 259.757812 C 352.917969 261.441406 353.855469 268.21875 351.035156 274.867188 C 348.648438 280.492188 344.324219 284.253906 340.648438 284.253906 Z M 249.890625 310.582031 L 285.027344 290.230469 L 284.304688 338.246094 Z M 270.03125 293.144531 L 257.085938 284.007812 L 285.363281 267.875 L 285.113281 284.484375 Z M 285.527344 257.058594 L 285.378906 266.914062 L 285.292969 266.761719 L 255.226562 283.917969 L 269.976562 294.328125 L 285.097656 285.648438 L 285.046875 289.066406 L 248.125 310.449219 L 284.285156 339.515625 L 284.097656 352.046875 L 214.59375 296.847656 L 213.972656 297.632812 L 285.066406 354.09375 L 286.527344 257.074219 L 285.527344 257.058594" fill="#fff"/></g><g id="change2_5"><path d="M 324.582031 106.855469 C 324.582031 107.878906 290.625 188.304688 290.625 188.304688 C 288.835938 191.113281 230.878906 213.835938 230.878906 213.835938 C 242.625 202.601562 262.605469 121.15625 262.605469 121.15625 L 324.582031 106.855469" fill="#fff"/></g><g id="change3_7"><path d="M 263.015625 121.574219 C 261.542969 127.550781 244.144531 197.425781 232.605469 212.621094 C 255.75 203.519531 288.898438 189.976562 290.203125 188.035156 C 301.074219 162.273438 321.238281 114.332031 323.820312 107.546875 Z M 228.703125 215.226562 L 230.535156 213.472656 C 242.039062 202.46875 261.917969 121.847656 262.117188 121.035156 L 262.191406 120.738281 L 325.082031 106.230469 L 325.082031 106.855469 C 325.082031 107.898438 299.058594 169.609375 291.085938 188.496094 C 289.222656 191.433594 237.011719 211.96875 231.0625 214.300781 L 228.703125 215.226562" fill="#100f0d"/></g><g id="change1_1"><path d="M 227.476562 132.941406 C 227.789062 132.699219 227.980469 132.371094 228.019531 131.988281 C 228.097656 131.265625 227.789062 130.558594 227.179688 130.050781 C 226.453125 129.445312 225.394531 129.199219 224.246094 129.335938 C 224.921875 127.679688 225.964844 124.371094 224.058594 123.4375 C 223.601562 123.214844 223.136719 123.214844 222.710938 123.445312 C 221.695312 123.992188 221.117188 125.8125 220.820312 127.183594 C 220.191406 126.21875 219.136719 125.1875 217.621094 125.566406 C 216.894531 125.746094 216.625 126.183594 216.523438 126.515625 C 216.253906 127.417969 216.964844 128.640625 217.578125 129.476562 C 216.257812 129.488281 214.261719 129.746094 213.957031 131.175781 C 213.875 131.558594 213.96875 131.914062 214.222656 132.199219 C 214.972656 133.046875 217.195312 133.085938 218.445312 133.035156 C 217.976562 134.398438 217.304688 136.777344 217.925781 137.710938 C 218.113281 137.992188 218.410156 138.15625 218.757812 138.167969 C 218.769531 138.167969 218.785156 138.167969 218.800781 138.167969 C 220.128906 138.167969 221.332031 136.230469 221.988281 134.941406 C 222.5 135.90625 223.375 137.09375 224.460938 136.734375 C 224.777344 136.628906 225.027344 136.40625 225.175781 136.089844 C 225.519531 135.355469 225.296875 134.195312 225.070312 133.417969 C 225.800781 133.460938 226.851562 133.414062 227.476562 132.941406 Z M 192.65625 110.058594 C 192.4375 109.65625 192.070312 109.382812 191.601562 109.261719 C 190.261719 108.917969 188.179688 109.875 186.941406 110.550781 C 187.179688 109.179688 187.398438 106.949219 186.566406 105.796875 C 186.238281 105.339844 185.765625 105.078125 185.203125 105.039062 C 183.980469 104.949219 182.90625 105.378906 182.175781 106.242188 C 181.425781 107.132812 181.097656 108.402344 181.230469 109.820312 C 180.101562 109.246094 178.300781 108.515625 177.25 109.015625 C 176.9375 109.160156 176.546875 109.480469 176.449219 110.167969 C 176.183594 112.019531 178.265625 113.472656 179.589844 114.195312 C 178.558594 114.671875 177.125 115.511719 176.765625 116.609375 C 176.589844 117.144531 176.675781 117.691406 177.023438 118.191406 C 177.371094 118.695312 177.875 119.003906 178.472656 119.070312 C 179.550781 119.199219 180.769531 118.554688 181.621094 117.976562 C 181.527344 118.878906 181.539062 120.039062 182.054688 120.78125 C 182.347656 121.199219 182.777344 121.449219 183.292969 121.503906 C 183.351562 121.511719 183.410156 121.511719 183.46875 121.511719 C 183.863281 121.511719 184.242188 121.371094 184.570312 121.097656 C 185.464844 120.34375 185.886719 118.671875 186.078125 117.515625 C 186.835938 118.347656 188.070312 119.449219 189.359375 119.5625 C 190.101562 119.628906 190.757812 119.382812 191.320312 118.824219 C 191.984375 118.171875 192.019531 117.519531 191.929688 117.085938 C 191.667969 115.78125 189.917969 114.675781 188.699219 114.050781 C 190.097656 113.523438 192.234375 112.539062 192.730469 111.332031 C 192.90625 110.902344 192.882812 110.460938 192.65625 110.058594 Z M 175.355469 10.011719 C 175.394531 9.75 175.324219 9.492188 175.152344 9.273438 C 174.761719 8.765625 173.859375 8.507812 173.226562 8.386719 C 173.519531 7.886719 173.863281 7.125 173.753906 6.515625 C 173.695312 6.203125 173.53125 5.953125 173.273438 5.785156 C 172.789062 5.472656 172.179688 5.433594 171.601562 5.683594 C 170.910156 5.984375 170.355469 6.644531 170.039062 7.503906 C 169.109375 6.433594 167.144531 4.507812 165.796875 5.519531 C 165.472656 5.761719 165.304688 6.09375 165.316406 6.476562 C 165.339844 7.390625 166.421875 8.453125 167.285156 9.160156 C 166.375 9.257812 165.265625 9.632812 164.988281 10.84375 C 164.859375 11.421875 165.066406 11.769531 165.265625 11.960938 C 165.808594 12.476562 166.929688 12.410156 167.742188 12.277344 C 167.277344 13.21875 166.742188 14.726562 167.644531 15.453125 C 167.886719 15.648438 168.171875 15.710938 168.46875 15.632812 C 169.335938 15.40625 170.160156 13.847656 170.574219 12.941406 C 171.371094 13.765625 172.8125 15.09375 173.699219 14.988281 C 173.96875 14.957031 174.1875 14.808594 174.320312 14.566406 C 174.324219 14.554688 174.332031 14.546875 174.335938 14.535156 C 174.816406 13.59375 173.875 12.046875 173.195312 11.121094 C 174.0625 11.101562 175.21875 10.910156 175.355469 10.011719 Z M 145.378906 53.113281 C 145.210938 52.566406 144.867188 52.160156 144.355469 51.902344 C 143.378906 51.414062 142.019531 51.609375 141.144531 51.820312 C 141.449219 50.242188 141.789062 47.285156 140.175781 46.863281 C 139.738281 46.746094 139.320312 46.820312 138.96875 47.070312 C 138.113281 47.6875 137.800781 49.292969 137.636719 50.964844 C 136.769531 50.238281 135.335938 49.414062 134.042969 50.394531 C 133.496094 50.8125 133.390625 51.3125 133.398438 51.660156 C 133.421875 52.46875 134.097656 53.289062 134.71875 53.875 C 133.960938 53.988281 133.0625 54.238281 132.558594 54.777344 C 132.257812 55.097656 132.113281 55.5 132.148438 55.9375 C 132.175781 56.320312 132.359375 56.644531 132.675781 56.878906 C 133.5625 57.527344 135.4375 57.351562 136.597656 57.15625 C 136.28125 58.128906 135.941406 59.621094 136.449219 60.421875 C 136.671875 60.773438 137.027344 60.972656 137.472656 60.996094 C 137.5 60.996094 137.53125 60.996094 137.558594 60.996094 C 139.023438 60.996094 139.8125 59.164062 140.171875 57.957031 C 140.949219 58.828125 142.160156 59.960938 143.125 59.855469 C 143.539062 59.8125 143.875 59.554688 144.074219 59.136719 C 144.695312 57.832031 143.800781 56.660156 143.011719 55.941406 C 143.777344 55.75 144.703125 55.382812 145.171875 54.695312 C 145.484375 54.238281 145.554688 53.691406 145.378906 53.113281 Z M 222.324219 176.285156 C 213.453125 179.65625 198.136719 183.328125 198.136719 183.328125 L 199.464844 141.496094 C 199.464844 141.496094 194.367188 148.8125 172.488281 145.070312 C 150.609375 141.324219 137.6875 102.515625 132.640625 89.75 C 127.59375 76.984375 133.601562 70.296875 133.601562 70.296875 C 133.601562 70.296875 119.984375 48.050781 132.753906 27.621094 C 145.519531 7.199219 162.367188 -2.503906 185.191406 0.558594 C 208.011719 3.621094 217.6875 31.878906 217.6875 31.878906 C 225 45.839844 216.378906 74.613281 216.378906 74.613281 L 224.324219 77.664062 C 237.773438 82.089844 231.4375 172.824219 222.324219 176.285156 Z M 223.542969 130.503906 L 222.453125 130.828125 L 222.949219 129.804688 C 223.691406 128.277344 224.828125 124.929688 223.617188 124.335938 C 223.40625 124.230469 223.28125 124.273438 223.183594 124.324219 C 222.390625 124.753906 221.753906 127.214844 221.550781 128.828125 L 221.285156 130.960938 L 220.582031 128.929688 C 220.570312 128.902344 219.585938 126.101562 217.863281 126.535156 C 217.539062 126.617188 217.496094 126.753906 217.480469 126.804688 C 217.300781 127.402344 218.304688 128.878906 219.039062 129.6875 L 219.921875 130.65625 L 218.621094 130.519531 C 217.5 130.402344 215.128906 130.464844 214.9375 131.382812 C 214.917969 131.460938 214.933594 131.496094 214.972656 131.535156 C 215.429688 132.054688 217.722656 132.113281 219.128906 131.988281 L 219.925781 131.917969 L 219.640625 132.664062 C 218.792969 134.886719 218.476562 136.910156 218.769531 137.167969 C 218.773438 137.167969 218.777344 137.167969 218.785156 137.167969 C 219.628906 137.167969 220.914062 135.015625 221.527344 133.550781 L 222.011719 132.398438 L 222.457031 133.566406 C 222.902344 134.730469 223.71875 135.933594 224.144531 135.785156 C 224.183594 135.773438 224.226562 135.75 224.269531 135.660156 C 224.511719 135.15625 224.191406 133.8125 223.886719 133.019531 L 223.574219 132.203125 L 224.4375 132.347656 C 225.125 132.460938 226.394531 132.503906 226.871094 132.144531 C 226.96875 132.070312 227.015625 131.992188 227.027344 131.882812 C 227.066406 131.492188 226.894531 131.113281 226.542969 130.820312 C 225.867188 130.261719 224.746094 130.140625 223.542969 130.503906 Z M 172.519531 9.082031 L 171.828125 9.011719 L 172.238281 8.453125 C 172.566406 8.007812 173.054688 7.121094 172.96875 6.65625 C 172.953125 6.5625 172.914062 6.5 172.839844 6.453125 C 172.578125 6.28125 172.25 6.269531 171.914062 6.414062 C 171.273438 6.691406 170.789062 7.441406 170.613281 8.421875 L 170.453125 9.3125 L 169.90625 8.59375 C 169.089844 7.519531 167.128906 5.511719 166.273438 6.152344 C 166.125 6.265625 166.105469 6.367188 166.109375 6.457031 C 166.128906 7.171875 167.640625 8.511719 168.710938 9.230469 L 170.125 10.1875 L 168.433594 9.953125 C 168.410156 9.949219 166.074219 9.644531 165.761719 11.019531 C 165.703125 11.277344 165.785156 11.355469 165.816406 11.386719 C 166.175781 11.730469 167.582031 11.546875 168.417969 11.316406 L 169.417969 11.042969 L 168.855469 11.914062 C 168.371094 12.664062 167.5625 14.367188 168.144531 14.835938 C 168.195312 14.875 168.222656 14.875 168.265625 14.863281 C 168.796875 14.726562 169.660156 13.121094 170.078125 12.082031 L 170.316406 11.492188 L 170.742188 11.964844 C 172.011719 13.359375 173.328125 14.3125 173.617188 14.199219 C 173.617188 14.195312 173.621094 14.191406 173.621094 14.1875 C 173.925781 13.589844 172.867188 11.90625 172.050781 10.945312 L 171.40625 10.1875 L 172.394531 10.292969 C 173.375 10.398438 174.519531 10.25 174.570312 9.894531 C 174.574219 9.863281 174.574219 9.824219 174.527344 9.761719 C 174.253906 9.410156 173.1875 9.152344 172.519531 9.082031 Z M 191.351562 110.230469 C 190.242188 109.949219 187.78125 111.148438 186.488281 111.972656 L 185.421875 112.65625 L 185.734375 111.429688 C 186 110.386719 186.523438 107.445312 185.757812 106.382812 C 185.601562 106.164062 185.402344 106.054688 185.132812 106.035156 C 184.226562 105.96875 183.464844 106.265625 182.9375 106.890625 C 182.214844 107.746094 182.011719 109.113281 182.382812 110.640625 L 182.664062 111.804688 L 181.636719 111.183594 C 180.425781 110.453125 178.398438 109.574219 177.675781 109.917969 C 177.578125 109.964844 177.476562 110.046875 177.4375 110.308594 C 177.21875 111.855469 179.9375 113.335938 181.003906 113.773438 L 182.226562 114.28125 L 180.972656 114.710938 C 179.871094 115.089844 178.007812 116.027344 177.714844 116.921875 C 177.664062 117.070312 177.625 117.304688 177.84375 117.621094 C 178.035156 117.894531 178.269531 118.042969 178.589844 118.078125 C 179.710938 118.21875 181.433594 116.925781 181.996094 116.421875 L 183.21875 115.320312 L 182.816406 116.914062 C 182.585938 117.824219 182.398438 119.523438 182.875 120.207031 C 183.003906 120.390625 183.167969 120.484375 183.398438 120.511719 C 183.585938 120.527344 183.757812 120.472656 183.925781 120.332031 C 184.808594 119.589844 185.160156 117.140625 185.222656 116.257812 L 185.320312 114.855469 L 186.132812 116.003906 C 186.605469 116.679688 188.128906 118.449219 189.449219 118.566406 C 189.882812 118.605469 190.269531 118.457031 190.617188 118.113281 C 190.992188 117.746094 190.988281 117.464844 190.949219 117.285156 C 190.738281 116.230469 188.519531 114.984375 187.167969 114.445312 L 185.839844 113.914062 L 187.210938 113.503906 C 188.777344 113.03125 191.40625 111.925781 191.804688 110.953125 C 191.863281 110.800781 191.859375 110.679688 191.78125 110.539062 C 191.695312 110.378906 191.558594 110.28125 191.351562 110.230469 Z M 144.421875 53.40625 C 144.511719 53.695312 144.484375 53.925781 144.34375 54.132812 C 143.875 54.824219 142.277344 55.101562 141.753906 55.144531 L 140.195312 55.273438 L 141.539062 56.074219 C 141.558594 56.085938 143.769531 57.449219 143.171875 58.707031 C 143.101562 58.855469 143.046875 58.859375 143.019531 58.863281 C 142.523438 58.914062 141.207031 57.722656 140.316406 56.574219 L 139.632812 55.6875 L 139.429688 56.785156 C 139.234375 57.855469 138.535156 60.03125 137.519531 59.996094 C 137.371094 59.988281 137.324219 59.9375 137.292969 59.886719 C 136.96875 59.378906 137.421875 57.675781 137.832031 56.6875 L 138.199219 55.789062 L 137.257812 56.007812 C 135.972656 56.304688 133.882812 56.523438 133.269531 56.070312 C 133.171875 56 133.148438 55.9375 133.144531 55.863281 C 133.132812 55.703125 133.175781 55.578125 133.289062 55.460938 C 133.765625 54.949219 135.195312 54.78125 136 54.78125 L 137.640625 54.800781 L 136.289062 53.871094 C 135.679688 53.449219 134.417969 52.351562 134.398438 51.632812 C 134.398438 51.519531 134.421875 51.363281 134.652344 51.191406 C 135.871094 50.261719 137.648438 52.367188 137.664062 52.390625 L 138.460938 53.34375 L 138.550781 52.105469 C 138.625 51 138.804688 48.417969 139.554688 47.882812 C 139.628906 47.828125 139.730469 47.78125 139.921875 47.828125 C 140.59375 48.007812 140.496094 50.390625 139.988281 52.417969 L 139.761719 53.324219 L 140.644531 53.007812 C 141.242188 52.796875 142.988281 52.339844 143.90625 52.796875 C 144.171875 52.929688 144.335938 53.125 144.421875 53.40625" fill="#ad3221"/></g><g id="change3_8"><path d="M 179.738281 102.128906 C 187.199219 100.976562 193.722656 96.390625 199.121094 88.5 L 198.296875 87.9375 C 193.0625 95.585938 186.769531 100.027344 179.59375 101.140625 C 167.785156 102.964844 157.503906 95.054688 157.398438 94.972656 L 156.785156 95.761719 C 156.878906 95.835938 165.414062 102.410156 175.996094 102.410156 C 177.21875 102.410156 178.46875 102.324219 179.738281 102.128906 Z M 214.34375 120.492188 C 221.703125 106.40625 224.582031 85.15625 224.609375 84.941406 L 223.617188 84.808594 C 223.589844 85.019531 220.738281 106.097656 213.457031 120.03125 C 206.179688 133.957031 199.179688 141.074219 199.109375 141.144531 L 199.820312 141.847656 C 199.890625 141.777344 206.988281 134.566406 214.34375 120.492188 Z M 182.503906 130.484375 C 182.210938 130.484375 181.917969 130.476562 181.621094 130.464844 C 156.167969 129.1875 140.457031 96.675781 140.300781 96.347656 L 141.203125 95.917969 C 141.355469 96.242188 156.820312 128.21875 181.671875 129.464844 C 206.351562 130.710938 215.792969 75.09375 215.882812 74.53125 L 216.871094 74.695312 C 216.492188 76.996094 207.429688 130.484375 182.503906 130.484375" fill="#100f0d"/></g><g clip-path="url(#c)" id="change3_1"><path d="M 413.261719 107.820312 L 412.582031 107.085938 C 412.492188 107.167969 403.441406 115.363281 389.90625 111.566406 C 376.476562 107.800781 375.808594 92.777344 375.796875 92.554688 C 374.871094 87.496094 379.40625 83.882812 379.449219 83.847656 L 378.835938 83.058594 C 378.628906 83.21875 373.78125 87.074219 374.804688 92.660156 C 374.8125 92.820312 375.492188 108.5625 389.636719 112.53125 C 392.265625 113.265625 394.734375 113.566406 397.011719 113.566406 C 406.914062 113.566406 413.1875 107.890625 413.261719 107.820312 Z M 477.589844 129.214844 C 477.253906 122.765625 433.148438 98.128906 426.734375 94.582031 C 426.929688 92.792969 427.699219 84.574219 425.921875 80.132812 C 425.203125 78.335938 424.175781 77.148438 422.863281 76.597656 C 421.226562 75.90625 419.769531 76.496094 419.710938 76.523438 L 420.09375 77.445312 C 420.105469 77.441406 421.222656 76.988281 422.476562 77.519531 C 423.53125 77.960938 424.378906 78.964844 424.992188 80.503906 C 426.855469 85.164062 425.714844 94.699219 425.703125 94.796875 L 425.660156 95.132812 L 425.957031 95.296875 C 446.179688 106.460938 476.355469 124.722656 476.59375 129.265625 C 476.960938 136.261719 464.417969 210.097656 454.878906 225.832031 C 445.246094 241.710938 393.769531 285.699219 390.453125 286.1875 C 389.78125 286.1875 387.777344 284.8125 384.339844 280.933594 C 380.136719 276.1875 377.230469 271.644531 377.3125 270.929688 C 378.007812 269.320312 400.675781 244.574219 415.734375 228.339844 L 418.507812 225.464844 L 418.527344 225.292969 C 419.863281 212.578125 430.128906 188.0625 430.234375 187.816406 L 430.28125 187.699219 L 430.269531 187.574219 C 428.257812 166.113281 432.265625 144.863281 432.308594 144.652344 L 431.324219 144.464844 C 431.285156 144.660156 427.8125 163.085938 428.929688 183.003906 C 420.054688 169.699219 422.078125 150.261719 422.101562 150.0625 L 421.105469 149.949219 C 421.082031 150.164062 418.878906 171.292969 429.050781 184.910156 C 429.113281 185.789062 429.183594 186.664062 429.261719 187.546875 C 428.492188 189.394531 418.925781 212.566406 417.550781 225.015625 L 415.007812 227.652344 C 408.644531 234.511719 376.875 268.824219 376.355469 270.632812 C 376.117188 271.472656 377.316406 273.648438 379.917969 277.101562 C 382.546875 280.589844 388.132812 287.1875 390.453125 287.1875 C 392.316406 287.1875 407.582031 274.507812 420.660156 262.761719 C 429.238281 255.054688 449.835938 236.078125 455.734375 226.351562 C 465.335938 210.511719 477.960938 136.25 477.589844 129.214844 Z M 338.808594 191.460938 C 331.171875 166.539062 334.265625 126.199219 334.296875 125.796875 L 335.292969 125.875 C 335.261719 126.277344 332.183594 166.429688 339.765625 191.167969 L 338.808594 191.460938" fill="#100f0d"/></g><g id="change3_9"><path d="M 109.773438 198.164062 C 109.773438 198.164062 124.199219 208.53125 130.09375 210.757812 C 135.984375 212.984375 139.96875 222.167969 143.59375 257.066406 C 143.59375 257.066406 180.195312 285.808594 185.410156 293.738281 C 190.625 301.664062 173.53125 303.125 173.53125 303.125 C 173.53125 303.125 163.730469 294.453125 158.964844 294.144531 C 158.964844 294.144531 161.6875 314.601562 154.199219 322.941406 C 146.710938 331.28125 135.476562 324.816406 130.027344 318.855469 C 124.582031 312.898438 119.136719 301.835938 119.136719 301.835938 C 119.136719 301.835938 114.152344 310.6875 97.75 319.027344 C 81.347656 327.367188 85.679688 344.980469 85.679688 344.980469 C 85.679688 344.980469 67.730469 393.578125 18.710938 378.515625 C -30.3125 363.453125 32.496094 236.304688 32.496094 236.304688 L 109.773438 198.164062" fill="#100f0d"/></g><g id="change2_6"><path d="M 173.6875 282.527344 C 173.332031 282.527344 165.015625 282.675781 158.757812 293.5 L 149.707031 289.410156 C 148.226562 286.253906 146.746094 282.96875 145.988281 280.898438 C 144.164062 275.933594 144.09375 257.253906 144.09375 257.066406 L 143.09375 257.066406 C 143.097656 257.84375 143.167969 276.113281 145.050781 281.242188 C 146.90625 286.316406 153.007812 298.53125 153.070312 298.65625 L 153.964844 298.207031 C 153.933594 298.144531 152.234375 294.742188 150.363281 290.804688 L 159.175781 294.789062 L 159.402344 294.386719 C 165.382812 283.707031 173.609375 283.527344 173.691406 283.527344 Z M 118.65625 301.988281 C 118.589844 301.773438 111.84375 280.699219 105.96875 277.628906 C 99.855469 274.433594 84.722656 261.242188 84.082031 260.679688 L 84.742188 259.925781 C 84.894531 260.0625 100.425781 273.601562 106.429688 276.742188 C 112.667969 280.003906 119.332031 300.800781 119.613281 301.683594 L 118.65625 301.988281" fill="#fff"/></g><g id="change4_1"><path d="M 390.453125 284.558594 C 390.453125 284.558594 388.027344 270.515625 379.859375 270.773438 C 379.859375 270.773438 377.050781 276.390625 370.539062 276.390625 C 364.027344 276.390625 357.773438 273.964844 353.945312 274.730469 C 350.113281 275.496094 341.6875 278.816406 336.710938 279.707031 C 331.730469 280.601562 336.199219 289.535156 343.476562 287.367188 C 350.753906 285.199219 357.390625 288.261719 357.390625 288.261719 C 357.390625 288.261719 351.136719 303.070312 347.5625 306.390625 C 343.984375 309.707031 332.753906 321.960938 329.304688 323.367188 C 325.859375 324.773438 327.136719 332.433594 336.710938 327.453125 C 336.710938 327.453125 333.136719 331.664062 336.964844 332.941406 C 340.792969 334.21875 345.390625 331.15625 345.390625 331.15625 C 345.390625 331.15625 348.453125 333.960938 354.453125 329.113281 C 354.453125 329.113281 352.28125 333.453125 358.410156 331.15625 C 364.539062 328.855469 367.730469 326.304688 369.519531 324.390625 C 371.304688 322.472656 376.664062 317.621094 379.21875 311.113281 C 381.773438 304.601562 390.453125 284.558594 390.453125 284.558594 Z M 372.453125 19.664062 C 372.453125 19.664062 366.070312 30.644531 366.199219 37.664062 C 366.324219 44.6875 366.324219 56.429688 366.324219 56.429688 C 366.324219 56.429688 363.902344 67.539062 367.984375 74.175781 C 372.070312 80.8125 378.835938 89.878906 378.964844 92.050781 C 379.09375 94.21875 384.324219 95.75 384.324219 95.75 C 384.324219 95.75 387.644531 103.410156 398.367188 102.132812 C 409.09375 100.855469 418.710938 90.050781 419.984375 84.8125 C 421.261719 79.578125 422.503906 68.519531 422.503906 68.519531 C 422.503906 68.519531 424.921875 70.472656 429.773438 67.15625 C 434.625 63.835938 440.878906 54.898438 438.710938 48.132812 C 436.539062 41.367188 425.433594 49.921875 425.433594 49.921875 C 425.433594 49.921875 424.640625 44.871094 423.304688 42.347656 C 422.015625 39.90625 420.179688 40.019531 420.15625 38.175781 C 420.121094 35.359375 420.433594 34.804688 419.984375 31.539062 C 419.1875 25.699219 422.398438 22.722656 418.792969 21.835938 C 410.496094 19.792969 403.21875 33.578125 388.027344 31.539062 C 372.835938 29.496094 372.453125 19.664062 372.453125 19.664062 Z M 220.667969 176.8125 C 213.175781 189.578125 217.773438 199.027344 217.773438 199.027344 L 230.367188 191.453125 C 242.878906 191.539062 255.136719 188.21875 260.410156 185.664062 C 265.6875 183.113281 267.476562 179.707031 269.859375 177.070312 C 272.242188 174.429688 269.6875 172.132812 269.6875 172.132812 C 271.476562 169.070312 268.921875 167.621094 268.921875 166.855469 C 268.921875 166.089844 269.773438 164.644531 270.199219 163.453125 C 270.625 162.261719 269.6875 160.644531 265.601562 158.347656 C 261.519531 156.050781 255.523438 158.601562 255.523438 158.601562 C 255.523438 158.601562 256.242188 156.898438 259.136719 155.453125 C 262.027344 154.007812 275.476562 153.410156 280.242188 151.367188 C 285.007812 149.324219 285.859375 144.984375 278.367188 146.429688 C 270.878906 147.878906 251.050781 146.773438 249.007812 151.453125 C 246.964844 156.132812 226.710938 173.410156 226.710938 173.410156 Z M 263.816406 97.496094 C 263.816406 97.496094 264.710938 97.664062 266.242188 96.132812 C 267.773438 94.601562 275.304688 81.964844 276.835938 75.835938 C 278.367188 69.707031 290.367188 59.878906 286.410156 59.496094 C 282.453125 59.113281 274.15625 67.027344 274.15625 67.027344 C 274.15625 67.027344 274.921875 65.496094 278.753906 55.28125 C 282.582031 45.070312 282.453125 41.621094 280.15625 42.390625 C 277.859375 43.15625 272.367188 51.707031 272.367188 51.707031 C 272.753906 49.410156 278.753906 38.8125 275.050781 38.429688 C 271.347656 38.050781 260.753906 60.007812 260.753906 60.007812 C 259.984375 48.898438 269.816406 35.496094 260.753906 41.367188 C 251.6875 47.238281 251.175781 75.835938 247.476562 76.855469 C 243.773438 77.878906 241.984375 75.199219 241.984375 75.199219 C 235.859375 67.027344 228.453125 70.601562 229.347656 72.515625 C 230.242188 74.429688 236.753906 76.984375 239.816406 82.984375 C 242.878906 88.984375 252.324219 97.15625 252.324219 97.15625 Z M 209.683594 58.984375 C 209.054688 67.921875 209.902344 76.851562 196.84375 91.410156 C 183.773438 105.964844 164.824219 94.140625 153.214844 82.523438 C 149.105469 78.410156 146.675781 69.523438 146.933594 59.691406 C 154.054688 50.882812 168.292969 35.632812 182.621094 34.433594 C 195.445312 33.351562 205.542969 37.402344 211.242188 40.523438 C 214.203125 52.5625 210.253906 51.09375 209.683594 58.984375" fill="#be7f55"/></g><g id="change5_1"><path d="M 185.667969 294.074219 C 185.667969 294.074219 184.792969 290.972656 181.859375 296.558594 C 180.867188 298.445312 177.195312 299.949219 173.6875 301.792969 C 173.6875 301.792969 172.539062 312.390625 170.878906 315.707031 C 169.21875 319.027344 175.09375 332.941406 173.941406 336.773438 C 172.792969 340.601562 180.070312 343.535156 180.582031 325.664062 C 180.582031 325.664062 189.773438 336.8125 193.859375 339.664062 C 193.859375 339.664062 201.519531 355.664062 204.835938 356.046875 C 208.15625 356.433594 206.625 351.070312 206.625 351.070312 C 206.625 351.070312 209.6875 357.324219 209.433594 347.75 C 209.433594 347.75 209.304688 348.898438 211.476562 348.644531 C 213.644531 348.390625 209.816406 334.984375 209.816406 334.984375 C 209.816406 334.984375 210.710938 339.960938 212.753906 340.089844 C 214.792969 340.21875 208.539062 322.347656 208.539062 322.347656 C 208.539062 322.347656 201.015625 310.488281 192.710938 301.792969 C 184.40625 293.101562 185.667969 294.074219 185.667969 294.074219 Z M 125.941406 131.367188 C 125.941406 131.367188 133.984375 135.835938 134.753906 145.539062 C 135.519531 155.238281 137.941406 154.601562 142.15625 155.878906 C 146.367188 157.15625 139.984375 163.027344 139.984375 163.027344 C 139.984375 163.027344 143.175781 185.621094 139.09375 190.855469 C 135.007812 196.089844 115.21875 196.601562 111.136719 193.664062 L 125.941406 131.367188" fill="#f4caac"/></g><g id="change2_7"><path d="M 132.835938 152.050781 C 132.835938 152.050781 128.941406 153.007812 125.367188 160.730469 C 125.367188 160.730469 131.242188 162.964844 132.835938 161.878906 C 134.433594 160.792969 132.835938 152.050781 132.835938 152.050781 Z M 180.324219 60.984375 C 180.324219 60.984375 175.730469 58.347656 170.285156 59.28125 C 164.835938 60.21875 161.941406 64.441406 161.941406 64.441406 C 161.941406 64.441406 165.261719 72.730469 172.753906 69.921875 C 180.242188 67.113281 180.324219 60.984375 180.324219 60.984375 Z M 207.496094 52.644531 C 207.496094 52.644531 199.921875 51.792969 194.21875 58.832031 C 194.21875 58.832031 194.050781 64.132812 198.984375 63.367188 C 203.921875 62.601562 208.519531 56.898438 207.496094 52.644531 Z M 378.09375 53.804688 C 378.09375 53.804688 370.96875 48.617188 367.527344 48.398438 C 364.089844 48.179688 367.507812 56.929688 371.460938 58.957031 C 380.132812 63.402344 378.09375 53.804688 378.09375 53.804688 Z M 409.464844 52.726562 C 409.464844 52.726562 410.234375 60.765625 400.996094 62.050781 C 391.761719 63.335938 391.527344 55.203125 391.527344 55.203125 C 403.691406 48.988281 409.464844 52.726562 409.464844 52.726562" fill="#fff"/></g><g id="change1_2"><path d="M 122.816406 151.007812 C 122.816406 151.007812 130.859375 148.472656 132.007812 146.6875 C 133.15625 144.898438 132.390625 143.878906 132.390625 143.878906 C 130.121094 141.144531 122.816406 151.007812 122.816406 151.007812 Z M 140.898438 172.039062 C 140.898438 172.039062 141.902344 168.070312 140.175781 168.199219 C 138.453125 168.324219 136.285156 174.324219 131.558594 175.027344 C 131.558594 175.027344 136.347656 177.835938 138.324219 177.773438 C 140.304688 177.707031 140.859375 177.707031 141.1875 177.261719 C 141.519531 176.8125 141.8125 173.265625 140.898438 172.039062 Z M 199.410156 78.945312 C 199.410156 78.945312 197.171875 86.480469 189.917969 90.421875 C 182.664062 94.367188 175.410156 85.351562 175.410156 85.351562 C 175.410156 85.351562 177.101562 85.5625 182.523438 82.816406 C 187.945312 80.070312 191.535156 80.28125 191.535156 80.28125 C 194.492188 78.875 197.351562 79.929688 197.351562 79.929688 L 199.410156 78.945312" fill="#ad3221"/></g><g id="change3_10"><path d="M 141.261719 172.382812 L 140.539062 171.691406 C 140.515625 171.71875 138.117188 174.128906 132.605469 174.484375 C 132.945312 173.761719 133.109375 173.167969 133.125 173.113281 L 132.15625 172.855469 C 132.148438 172.882812 131.4375 175.492188 129.910156 176.09375 L 130.273438 177.023438 C 131.011719 176.734375 131.585938 176.144531 132.023438 175.507812 C 138.40625 175.285156 141.148438 172.507812 141.261719 172.382812 Z M 382.691406 55.953125 C 383.273438 52.253906 380.519531 48.792969 378.445312 46.765625 C 377.761719 45.65625 376.496094 44.175781 374.28125 43.28125 C 371.347656 42.097656 366.253906 41.601562 366.253906 41.601562 L 366.269531 43.285156 C 366.269531 43.285156 368.378906 44.101562 369.484375 44.441406 C 370.464844 44.742188 376 47.605469 378.386719 48.148438 C 380.183594 50.070312 382.15625 52.910156 381.703125 55.800781 C 381.449219 57.425781 380.191406 59.339844 378.855469 61.363281 C 376.898438 64.332031 374.875 67.402344 375.703125 70.136719 C 376.1875 71.726562 377.550781 72.972656 379.875 73.957031 L 380.265625 73.035156 C 378.230469 72.175781 377.050781 71.132812 376.660156 69.847656 C 375.96875 67.5625 377.859375 64.691406 379.691406 61.914062 C 381.085938 59.796875 382.40625 57.792969 382.691406 55.953125 Z M 391.136719 48.101562 C 392.753906 47.984375 399.902344 46.175781 401.773438 44.898438 C 403.644531 43.621094 411.21875 43.621094 409.464844 42.429688 C 407.714844 41.238281 399.644531 41.410156 395.136719 42.429688 C 390.625 43.453125 389.519531 45.324219 389.519531 45.324219 C 389.519531 45.324219 389.519531 48.21875 391.136719 48.101562 Z M 409.480469 53.921875 L 409.464844 52.726562 C 409.464844 52.726562 408.027344 49.8125 399.859375 51.613281 C 391.6875 53.410156 391.527344 55.203125 391.527344 55.203125 C 391.527344 55.203125 398.289062 52.929688 404.171875 52.457031 C 401.402344 53.847656 397.308594 57.605469 398.234375 62.152344 C 398.234375 62.152344 404.351562 63.195312 407.878906 58.515625 C 407.878906 58.515625 409.371094 57.027344 409.453125 53.898438 Z M 371.753906 57.898438 C 369.597656 54.917969 372.703125 52.640625 374.234375 51.753906 C 369.910156 49.585938 366.113281 49.347656 366.113281 49.347656 C 366.410156 46.984375 370.28125 48.707031 370.28125 48.707031 C 377.585938 51.273438 378.132812 53.683594 378.167969 54.171875 C 379.949219 58.140625 375.703125 63.371094 371.753906 57.898438" fill="#100f0d"/></g><g id="change3_11"><path d="M 211.488281 338.441406 C 211.476562 338.394531 210.242188 333.574219 209.3125 330.78125 C 208.375 327.976562 205.902344 322.933594 205.796875 322.722656 L 204.898438 323.160156 C 204.925781 323.214844 207.449219 328.355469 208.363281 331.101562 C 209.28125 333.859375 210.511719 338.640625 210.523438 338.6875 Z M 209.921875 347.652344 C 209.914062 347.613281 209.136719 343.78125 207.621094 337.714844 C 206.085938 331.578125 200.636719 323.03125 200.40625 322.671875 L 199.566406 323.210938 C 199.621094 323.296875 205.15625 331.980469 206.648438 337.957031 C 208.160156 344 208.933594 347.8125 208.941406 347.851562 Z M 207.082031 350.867188 C 207.082031 350.867188 201.890625 339.164062 199.421875 333.550781 C 196.945312 327.910156 191.957031 322.804688 191.746094 322.589844 L 191.03125 323.292969 C 191.085938 323.34375 196.101562 328.480469 198.507812 333.949219 C 200.976562 339.570312 206.167969 351.273438 206.167969 351.273438 Z M 133.347656 161.453125 C 133.722656 160.945312 133.941406 153.410156 131.558594 154.515625 C 129.175781 155.621094 128.34375 161.667969 128.34375 161.667969 C 132.617188 163.203125 132.972656 161.960938 133.347656 161.453125 Z M 133.984375 151.664062 C 133.984375 151.664062 132.710938 149.304688 128.175781 153.515625 C 123.644531 157.730469 125.367188 160.730469 125.367188 160.730469 C 125.367188 160.730469 128.050781 153.324219 134.6875 152.878906 L 136.535156 153.09375 Z M 364.652344 324.769531 C 367.140625 322.621094 370.636719 317.484375 370.78125 317.265625 L 369.953125 316.703125 C 369.917969 316.753906 366.390625 321.949219 364 324.011719 C 361.617188 326.066406 354.328125 329.261719 354.253906 329.292969 L 354.65625 330.207031 C 354.960938 330.074219 362.15625 326.917969 364.652344 324.769531 Z M 356.601562 324.894531 C 362.726562 320.894531 369.214844 312.535156 369.488281 312.183594 L 368.695312 311.574219 C 368.628906 311.65625 362.039062 320.148438 356.054688 324.054688 C 350.011719 327.996094 345.195312 330.691406 345.148438 330.71875 L 345.632812 331.589844 C 345.683594 331.566406 350.527344 328.855469 356.601562 324.894531 Z M 349.699219 319.960938 C 356.441406 315.695312 364.738281 302.824219 365.085938 302.28125 L 364.246094 301.742188 C 364.160156 301.871094 355.71875 314.96875 349.164062 319.113281 C 342.523438 323.320312 336.507812 326.988281 336.449219 327.027344 L 336.96875 327.878906 C 337.03125 327.84375 343.050781 324.167969 349.699219 319.960938 Z M 269.828125 172.613281 L 269.546875 171.65625 C 269.050781 171.800781 257.390625 175.300781 255.148438 177.84375 L 255.898438 178.507812 C 257.601562 176.570312 266.53125 173.59375 269.828125 172.613281 Z M 268.738281 167.324219 L 269.105469 166.390625 C 268.808594 166.277344 261.824219 163.625 255.261719 167.621094 L 255.78125 168.476562 C 261.914062 164.742188 268.671875 167.296875 268.738281 167.324219 Z M 255.828125 158.996094 L 255.214844 158.207031 L 251.847656 160.847656 L 252.464844 161.632812 Z M 254.546875 82.714844 C 254.527344 82.554688 253.976562 78.816406 244.082031 76.523438 L 243.855469 77.496094 C 252.925781 79.597656 253.550781 82.808594 253.554688 82.839844 Z M 272.816406 74.390625 C 271.085938 70.941406 274.480469 67.410156 274.515625 67.378906 L 273.800781 66.675781 C 273.640625 66.839844 269.871094 70.746094 271.921875 74.835938 Z M 272.820312 51.925781 L 271.917969 51.488281 C 271.265625 52.84375 265.527344 64.773438 265.527344 67.367188 L 266.527344 67.367188 C 266.527344 65.367188 271.070312 55.542969 272.820312 51.925781 Z M 261.242188 60.097656 L 260.261719 59.914062 L 259.15625 65.886719 L 260.136719 66.070312 Z M 209.683594 34.984375 C 204.074219 16.851562 181.34375 19.660156 181.34375 19.660156 C 156.855469 20.652344 147.414062 41.742188 146.933594 59.691406 C 154.054688 50.882812 168.292969 35.632812 182.621094 34.433594 C 195.445312 33.351562 205.542969 37.402344 211.242188 40.523438 C 210.855469 38.933594 210.34375 37.101562 209.683594 34.984375 Z M 188.140625 74.734375 L 185.296875 74.125 L 185.085938 75.101562 L 187.929688 75.710938 Z M 196.191406 70.625 C 196.65625 68.386719 192.664062 65.839844 192.210938 65.554688 L 191.679688 66.402344 C 193.175781 67.332031 195.457031 69.246094 195.214844 70.421875 C 194.847656 72.1875 192.507812 74.214844 192.484375 74.234375 L 193.132812 74.992188 C 193.238281 74.902344 195.757812 72.726562 196.191406 70.625 Z M 196.746094 51.183594 C 198.179688 48.789062 205.921875 43.835938 205.921875 43.835938 C 205.921875 43.835938 196.757812 45.128906 194.660156 47.050781 C 193.523438 48.09375 193.011719 50.425781 193.007812 51.445312 C 192.980469 54.484375 196.398438 51.765625 196.746094 51.183594 Z M 178.445312 55.179688 C 180.054688 55.015625 180.875 53.054688 179.917969 51.746094 C 179.457031 51.113281 178.707031 50.535156 177.488281 50.261719 C 174.085938 49.496094 163.023438 52.21875 163.023438 52.21875 C 163.023438 52.21875 176.300781 54.507812 177.574219 55.066406 C 177.847656 55.183594 178.144531 55.210938 178.445312 55.179688 Z M 206.777344 57.273438 C 206.777344 57.273438 206.144531 54.261719 203.210938 54.773438 C 200.273438 55.28125 196.601562 60.371094 197.847656 63.441406 C 197.847656 63.441406 200.257812 63.835938 203.519531 61.265625 C 206.785156 58.699219 206.777344 57.273438 206.777344 57.273438 Z M 176.84375 67.5625 C 179.394531 65.476562 179.933594 62.976562 179.933594 62.976562 C 179.933594 62.976562 177.402344 59.390625 172.15625 62.601562 C 166.910156 65.8125 169.777344 70.496094 169.777344 70.496094 C 172.089844 70.453125 174.292969 69.644531 176.84375 67.5625 Z M 180.324219 60.984375 C 180.324219 60.984375 176.582031 57.78125 170.027344 58.53125 C 163.476562 59.28125 161.773438 64.175781 159.644531 64.453125 C 157.519531 64.730469 157.519531 64.730469 157.519531 64.730469 L 162.464844 65.488281 C 162.464844 65.488281 167.136719 60.730469 171.558594 60.304688 C 175.984375 59.878906 180.324219 60.984375 180.324219 60.984375 Z M 200.921875 52.050781 C 197.410156 53.632812 194.21875 58.832031 194.21875 58.832031 C 194.21875 58.832031 200.046875 54.503906 203.242188 53.238281 C 205.015625 52.539062 210.109375 53.089844 210.109375 53.089844 C 208.246094 53.089844 206.902344 51.878906 206.902344 51.878906 C 206.902344 51.878906 204.433594 50.464844 200.921875 52.050781 Z M 395.796875 85.980469 L 395.324219 85.097656 C 385.992188 90.066406 381.324219 84.921875 381.128906 84.699219 L 380.375 85.355469 C 380.410156 85.394531 382.941406 88.222656 387.800781 88.222656 C 389.996094 88.222656 392.664062 87.644531 395.796875 85.980469 Z M 400.6875 79.621094 L 400.320312 78.691406 C 400.226562 78.726562 390.59375 82.441406 378.386719 80.320312 L 378.214844 81.308594 C 380.976562 81.785156 383.605469 81.972656 386.035156 81.972656 C 394.589844 81.972656 400.613281 79.652344 400.6875 79.621094 Z M 434.886719 51.527344 L 434.875 50.527344 C 434.632812 50.527344 428.925781 50.660156 424.488281 58.222656 L 425.355469 58.726562 C 429.484375 51.683594 434.832031 51.527344 434.886719 51.527344 Z M 389.554688 71.992188 L 389.484375 70.996094 L 384.035156 71.378906 L 384.105469 72.375 Z M 392.472656 96.84375 C 389.847656 96.84375 387.207031 96.632812 385.019531 96.339844 L 385.152344 95.351562 C 389.417969 95.921875 395.4375 96.164062 399.539062 95.136719 C 407.398438 93.167969 421.925781 68.515625 422.070312 68.269531 L 422.9375 68.773438 C 422.332031 69.804688 408.046875 94.039062 399.78125 96.109375 C 397.671875 96.636719 395.078125 96.84375 392.472656 96.84375" fill="#100f0d"/></g><g id="change2_8"><path d="M 188.242188 87.621094 C 185.625 88.304688 181.644531 85.921875 181.644531 85.921875 C 189.269531 86.09375 195.730469 82.007812 195.730469 82.007812 C 194.710938 84.558594 190.914062 86.925781 188.242188 87.621094" fill="#fff"/></g><g id="change1_3"><path d="M 118.453125 116.8125 C 118.453125 116.8125 140.582031 112.898438 141.433594 133.496094 C 142.285156 154.089844 135.011719 148 135.011719 148 C 135.011719 148 133.09375 139.28125 129.175781 135.199219 C 129.175781 135.199219 128.496094 148.132812 120.324219 160.558594 C 120.324219 160.558594 129.253906 173.734375 122.367188 184.390625 C 115.484375 195.042969 116.070312 195.964844 116.070312 199.027344 C 116.070312 202.089844 119.621094 208.730469 116.058594 213.15625 C 112.496094 217.578125 102.625 219.964844 104.324219 230.007812 C 106.027344 240.046875 95.476562 247.878906 89.859375 249.921875 C 84.242188 251.964844 76.582031 261.664062 82.710938 270.855469 C 88.835938 280.046875 68.75 272.21875 62.285156 267.28125 C 55.816406 262.347656 59.050781 275.28125 42.878906 277.15625 C 42.878906 277.15625 42.027344 278.007812 47.816406 270.6875 C 53.601562 263.367188 43.558594 261.496094 39.304688 256.898438 C 39.304688 256.898438 41.175781 265.75 33.007812 271.707031 C 24.835938 277.664062 37.433594 266.941406 27.21875 260.816406 C 17.007812 254.6875 16.667969 250.089844 18.367188 239.878906 C 20.070312 229.664062 6.964844 242.773438 7.476562 230.175781 C 7.984375 217.578125 14.625 219.28125 14.964844 214.347656 C 15.304688 209.410156 4.921875 209.921875 10.027344 195.453125 C 15.136719 180.984375 19.050781 188.8125 24.496094 174.347656 C 29.941406 159.878906 40.328125 163.113281 49.175781 161.238281 C 58.027344 159.367188 46.792969 146.773438 56.496094 131.367188 C 66.199219 115.964844 72.835938 118.347656 82.878906 114.773438 C 92.921875 111.199219 107.050781 105.238281 118.453125 116.8125" fill="#ad3221"/></g><g id="change3_12"><path d="M 435.574219 36.011719 C 430.804688 39.121094 425.894531 39.652344 423.113281 39.652344 C 421.714844 39.652344 420.84375 39.523438 420.8125 39.511719 L 420.972656 38.53125 C 421.074219 38.550781 428.453125 39.683594 435.414062 34.910156 C 435.121094 31.714844 436.59375 28.984375 436.664062 25.773438 C 429.964844 30.742188 420.722656 30.910156 420.234375 30.921875 L 420.222656 29.921875 C 420.332031 29.921875 430.0625 29.734375 436.605469 24.523438 C 436.53125 23.753906 436.355469 22.941406 436.03125 22.09375 C 433.945312 16.472656 437.644531 12.5625 432.472656 9.074219 C 427.304688 5.582031 413.605469 -0.976562 390.023438 3.792969 C 366.453125 8.5625 366.714844 12.472656 367.394531 14.773438 C 368.074219 17.074219 363.515625 17.542969 362.753906 21.453125 C 361.984375 25.371094 366.371094 35.632812 366.371094 35.632812 C 366.371094 35.632812 370.882812 23.113281 372.582031 22.601562 C 372.582031 22.601562 370.445312 33.3125 385.34375 33.453125 C 398.492188 33.582031 411.894531 26.074219 415.855469 23.054688 C 416.445312 25.621094 417.464844 29.171875 418.792969 30.003906 C 420.933594 31.34375 416.152344 34.261719 418.792969 38.601562 C 421.433594 42.941406 422.714844 40.050781 423.734375 45.492188 C 424.753906 50.941406 425.433594 49.921875 425.433594 49.921875 C 425.433594 49.921875 428.621094 47.332031 432.472656 46.03125 C 432.472656 46.03125 433.222656 45.382812 434.023438 44.261719 C 430.222656 46.273438 427.722656 46.574219 426.574219 46.574219 C 426.121094 46.574219 425.882812 46.523438 425.84375 46.511719 L 425.945312 46.023438 L 426.03125 45.53125 C 426.03125 45.53125 426.03125 45.53125 426.042969 45.53125 C 426.242188 45.574219 429.324219 45.964844 435.09375 42.511719 C 435.882812 40.902344 436.382812 38.863281 435.734375 36.640625 C 435.671875 36.433594 435.621094 36.222656 435.574219 36.011719 Z M 39.617188 256.507812 C 27.269531 246.625 29.09375 241.429688 30.707031 236.84375 C 31.226562 235.359375 31.71875 233.953125 31.71875 232.472656 C 31.71875 228.824219 28.964844 227.328125 26.300781 225.878906 C 24.34375 224.816406 22.320312 223.714844 21.183594 221.753906 C 20.039062 219.78125 21.84375 217.515625 23.75 215.121094 C 25.382812 213.070312 26.925781 211.132812 26.6875 209.21875 C 26.574219 208.308594 26.054688 207.496094 25.140625 206.800781 C 22.453125 204.753906 22.378906 201.269531 22.578125 199.378906 C 22.96875 195.597656 24.828125 192.484375 26.328125 191.765625 L 26.949219 191.472656 C 30.578125 189.757812 35.550781 187.402344 35.550781 184.050781 C 35.550781 181.316406 38.378906 173.496094 51.304688 170.148438 C 64.15625 166.820312 64.15625 166.269531 64.144531 152.164062 L 64.144531 151.007812 C 64.144531 136.695312 68.785156 135.699219 68.832031 135.691406 L 68.75 135.199219 L 68.820312 135.691406 L 68.683594 134.703125 C 68.457031 134.734375 63.144531 135.660156 63.144531 151.007812 L 63.144531 152.167969 C 63.15625 166.046875 63.15625 166.046875 51.054688 169.179688 C 37.515625 172.6875 34.550781 181.101562 34.550781 184.050781 C 34.550781 186.769531 29.71875 189.054688 26.523438 190.566406 L 25.898438 190.863281 C 23.863281 191.835938 21.96875 195.527344 21.582031 199.273438 C 21.207031 202.90625 22.253906 205.859375 24.535156 207.59375 C 25.234375 208.128906 25.613281 208.699219 25.695312 209.339844 C 25.882812 210.839844 24.398438 212.699219 22.964844 214.496094 C 20.933594 217.050781 18.832031 219.691406 20.320312 222.257812 C 21.59375 224.460938 23.746094 225.628906 25.824219 226.757812 C 28.449219 228.1875 30.71875 229.421875 30.71875 232.472656 C 30.71875 233.785156 30.253906 235.109375 29.761719 236.511719 C 28.128906 241.167969 26.09375 246.960938 38.992188 257.289062 Z M 74.980469 273.441406 C 73.527344 255.433594 79.199219 250.695312 82.246094 248.148438 C 82.691406 247.773438 83.078125 247.449219 83.402344 247.125 C 84.015625 246.511719 85.601562 245.839844 87.441406 245.058594 C 92.859375 242.757812 101.046875 239.28125 100.140625 231.140625 C 98.980469 220.699219 104.507812 214.777344 111.5 207.28125 C 115.050781 203.476562 114.183594 201.019531 113.183594 198.175781 C 112.0625 194.996094 110.789062 191.390625 114.886719 184.300781 C 122.109375 171.792969 116.308594 162.15625 115.066406 160.34375 C 121.5 150.988281 119.710938 137.980469 119.628906 137.425781 L 118.640625 137.566406 C 118.660156 137.699219 120.488281 151.011719 114.046875 160.054688 L 113.828125 160.363281 L 114.0625 160.65625 C 114.140625 160.753906 121.675781 170.542969 114.019531 183.800781 C 109.695312 191.289062 111.105469 195.292969 112.238281 198.507812 C 113.207031 201.253906 113.90625 203.238281 110.769531 206.601562 C 103.601562 214.28125 97.9375 220.351562 99.148438 231.253906 C 99.96875 238.652344 92.195312 241.953125 87.050781 244.136719 C 85.035156 244.992188 83.445312 245.667969 82.695312 246.417969 C 82.402344 246.710938 82.03125 247.019531 81.601562 247.378906 C 78.417969 250.042969 72.488281 254.996094 73.984375 273.523438 Z M 70.359375 271.453125 C 70.28125 271.183594 62.589844 244.558594 79.292969 238.992188 C 89.792969 235.492188 90.382812 231.976562 91.128906 227.523438 C 91.640625 224.464844 92.222656 220.996094 96.1875 216.550781 C 101.199219 210.9375 98.703125 206.847656 96.503906 203.242188 C 94.125 199.34375 92.074219 195.980469 98.335938 190.859375 C 110.320312 181.070312 105.65625 163.441406 104.898438 160.882812 C 113.90625 152.367188 112.710938 133.582031 112.65625 132.78125 L 111.65625 132.847656 C 111.671875 133.042969 112.894531 152.28125 103.988281 160.359375 L 103.75 160.578125 L 103.851562 160.886719 C 103.914062 161.078125 110.054688 179.996094 97.703125 190.085938 C 90.765625 195.757812 93.246094 199.824219 95.648438 203.761719 C 97.867188 207.394531 99.960938 210.824219 95.441406 215.886719 C 91.28125 220.546875 90.652344 224.324219 90.140625 227.359375 C 89.425781 231.640625 88.90625 234.734375 78.976562 238.042969 C 61.359375 243.914062 69.316406 271.460938 69.398438 271.738281 Z M 60.828125 265.875 C 55.214844 262.5 53.058594 256.839844 52.238281 252.6875 C 50.585938 244.3125 52.875 234.902344 56.046875 230.644531 C 57.664062 228.46875 60.101562 226.855469 62.679688 225.148438 C 68.351562 221.394531 74.78125 217.140625 71.617188 205.699219 C 70.800781 202.757812 69.980469 200.109375 69.257812 197.773438 C 65.992188 187.234375 64.5 182.425781 71.394531 178.199219 C 80.378906 172.695312 86.117188 166.132812 84.910156 152.007812 C 83.761719 138.570312 98.082031 131.886719 98.226562 131.824219 L 97.8125 130.910156 C 97.664062 130.980469 82.707031 137.945312 83.914062 152.089844 C 85.078125 165.753906 79.789062 171.882812 70.875 177.347656 C 63.316406 181.976562 65.085938 187.695312 68.300781 198.066406 C 69.023438 200.398438 69.84375 203.039062 70.652344 205.96875 C 73.625 216.707031 67.78125 220.574219 62.128906 224.316406 C 59.589844 225.992188 56.96875 227.730469 55.242188 230.046875 C 51.988281 234.421875 49.488281 243.90625 51.257812 252.882812 C 52.488281 259.121094 55.621094 263.910156 60.3125 266.734375 Z M 129.640625 135.382812 L 128.714844 135.011719 C 128.726562 134.976562 130.128906 131.347656 128.96875 125.335938 C 128.734375 124.125 128.136719 123.246094 127.148438 122.640625 C 124.0625 120.753906 118.351562 122.386719 118.296875 122.402344 L 118.015625 121.441406 C 118.269531 121.367188 124.210938 119.671875 127.671875 121.789062 C 128.894531 122.535156 129.660156 123.664062 129.949219 125.144531 C 131.171875 131.472656 129.703125 135.226562 129.640625 135.382812" fill="#100f0d"/></g><g id="change3_13"><path d="M 212.371094 337.011719 C 212.414062 336.742188 212.664062 336.582031 212.78125 336.511719 L 212.542969 335.542969 C 212.191406 335.671875 211.523438 336.09375 211.394531 336.824219 C 211.234375 337.632812 211.953125 338.855469 213.0625 339.867188 L 213.140625 338.6875 C 212.050781 337.6875 212.324219 337.261719 212.371094 337.011719 Z M 244.1875 165.035156 L 244.863281 165.773438 L 247.273438 163.574219 L 246.597656 162.835938 Z M 276.375 146.730469 L 275.175781 146.859375 C 276.285156 147.753906 278.171875 148.835938 279.414062 148.835938 C 281.773438 148.835938 283.902344 147.769531 284.035156 147.699219 L 283.582031 146.808594 C 283.539062 146.832031 279.085938 148.914062 276.375 146.730469 Z M 355.117188 328.992188 L 355.058594 329.902344 C 358.167969 329.714844 359.238281 330.824219 359.246094 330.832031 L 360.101562 330.484375 C 360.003906 330.339844 358.824219 328.757812 355.117188 328.992188 Z M 349.378906 328.90625 L 348.460938 329.769531 C 351.207031 329.558594 352.113281 330.71875 352.117188 330.722656 C 352.113281 330.722656 352.84375 330.28125 352.84375 330.28125 C 352.84375 330.1875 352.757812 329.867188 352.5 329.605469 C 352.011719 329.121094 351.03125 328.917969 349.378906 328.90625 Z M 342.859375 327.089844 C 339.597656 327.78125 337.433594 329.074219 336.929688 330.632812 C 336.710938 331.296875 336.28125 331.835938 337.398438 333.074219 L 338.480469 333.164062 C 337.839844 332.457031 337.683594 331.542969 337.878906 330.941406 C 338.261719 329.769531 340.246094 328.667969 343.066406 328.070312 C 343.660156 327.945312 344.429688 327.875 344.726562 328.265625 C 345.210938 328.898438 344.472656 331.144531 344.09375 331.882812 L 345.699219 331.554688 C 345.847656 331.265625 346.519531 328.964844 345.523438 327.65625 C 345.027344 327.011719 344.132812 326.824219 342.859375 327.089844 Z M 336.410156 326.828125 C 336.414062 326.847656 336.414062 326.84375 336.410156 326.828125 Z M 336.6875 325.386719 C 335.828125 324.742188 334.339844 324.761719 332.277344 325.445312 C 330.226562 326.125 329.15625 326.914062 329 327.867188 C 328.882812 328.578125 329.058594 328.542969 329.351562 328.761719 L 330.527344 329.074219 C 330.523438 329.074219 329.9375 328.316406 329.988281 328.027344 C 330.019531 327.835938 330.296875 327.15625 332.589844 326.394531 C 334.84375 325.652344 335.738281 325.9375 336.074219 326.175781 C 336.304688 326.34375 336.398438 326.753906 336.410156 326.828125 C 336.410156 326.8125 336.40625 326.785156 336.398438 326.742188 L 336.449219 327.027344 L 336.566406 327.21875 L 337.398438 326.765625 C 337.402344 326.679688 337.40625 325.921875 336.6875 325.386719 Z M 344.894531 277.394531 L 343.828125 277.789062 C 344.378906 278.050781 345.976562 279.035156 346.046875 279.644531 C 346.054688 279.71875 346.082031 279.9375 345.691406 280.246094 C 344.75 281.003906 342.300781 282.722656 339.878906 282.363281 C 338.539062 282.164062 337.371094 281.1875 336.402344 279.777344 L 335.414062 280.257812 C 336.546875 281.90625 338.109375 283.109375 339.734375 283.351562 C 340.011719 283.394531 340.289062 283.410156 340.566406 283.410156 C 342.953125 283.410156 345.152344 281.960938 346.316406 281.03125 C 346.996094 280.488281 347.085938 279.914062 347.039062 279.53125 C 346.890625 278.210938 345.117188 277.5 344.894531 277.394531 Z M 208.074219 349.066406 C 207.855469 347.847656 208.707031 347.601562 208.878906 347.566406 L 208.683594 346.582031 C 207.992188 346.71875 206.769531 347.445312 207.089844 349.242188 C 207.324219 350.566406 207.777344 352.21875 208.585938 352.585938 C 208.703125 352.640625 208.828125 352.707031 208.976562 352.617188 L 209.253906 351.699219 C 209.085938 351.617188 208.390625 350.84375 208.074219 349.066406 Z M 211.078125 344.546875 C 211.261719 344.328125 211.78125 344.265625 211.910156 344.265625 L 211.761719 343.296875 C 211.660156 343.296875 210.847656 343.273438 210.320312 343.898438 C 210.101562 344.15625 209.871094 344.617188 210.027344 345.363281 C 210.363281 346.960938 211.683594 348.464844 211.726562 348.535156 L 212.066406 347.804688 C 212.058594 347.785156 211.304688 346.585938 211.007812 345.15625 C 210.949219 344.878906 210.972656 344.675781 211.078125 344.546875 Z M 204.566406 352.414062 C 204.148438 351.695312 204.027344 351.039062 204.199219 350.472656 C 204.472656 349.589844 205.386719 349.144531 205.398438 349.140625 L 204.972656 348.234375 C 204.917969 348.257812 203.65625 348.859375 203.25 350.164062 C 202.984375 351.015625 203.136719 351.941406 203.703125 352.914062 C 204.398438 354.117188 205.171875 354.78125 205.996094 354.894531 C 206.082031 354.902344 206.164062 354.910156 206.242188 354.910156 C 206.9375 354.910156 206.761719 354.863281 206.8125 354.8125 L 206.972656 353.730469 C 206.964844 353.738281 206.480469 353.949219 206.117188 353.898438 C 205.773438 353.847656 205.226562 353.542969 204.566406 352.414062 Z M 176.585938 332.015625 C 177.402344 333.164062 177.617188 335.585938 176.671875 336.984375 C 176.195312 337.691406 175.480469 338.0625 174.617188 338.0625 C 174.359375 338.0625 174.078125 337.910156 173.808594 337.710938 L 173.941406 336.773438 C 174.777344 336.96875 175.457031 337 175.84375 336.425781 C 176.523438 335.414062 176.371094 333.441406 175.769531 332.59375 C 175.714844 332.511719 175.5625 332.304688 175.453125 332.339844 C 175.160156 332.371094 174.21875 333.132812 173.953125 333.753906 L 173.746094 332.492188 C 173.878906 332.183594 174.304688 331.453125 175.347656 331.34375 C 175.671875 331.304688 176.148438 331.398438 176.585938 332.015625" fill="#100f0d"/></g><g id="change3_14"><path d="M 147.667969 29.324219 C 146.832031 29.324219 146.15625 28.648438 146.15625 27.8125 C 146.15625 26.980469 146.832031 26.304688 147.667969 26.304688 C 148.5 26.304688 149.175781 26.980469 149.175781 27.8125 C 149.175781 28.648438 148.5 29.324219 147.667969 29.324219 Z M 154.578125 25.960938 C 154.207031 24.519531 149.710938 25.050781 149.710938 25.050781 C 149.710938 25.050781 152.433594 19.730469 150.84375 19.257812 C 149.253906 18.785156 147.335938 24.34375 147.335938 24.34375 C 147.335938 24.34375 146.128906 20.785156 144.429688 22.015625 C 142.734375 23.242188 145.355469 25.617188 145.355469 25.617188 C 145.355469 25.617188 140.960938 23.378906 140.574219 25.128906 C 140.1875 26.878906 144.421875 28.136719 144.421875 28.136719 C 144.421875 28.136719 140.203125 28.613281 140.660156 30.214844 C 141.117188 31.816406 144.636719 30.730469 144.636719 30.730469 C 144.636719 30.730469 142.179688 35.402344 143.855469 35.597656 C 145.527344 35.789062 147.144531 30.8125 147.144531 30.8125 C 147.144531 30.8125 149.757812 35.449219 150.648438 34.25 C 151.539062 33.050781 149.855469 29.753906 149.855469 29.753906 C 149.855469 29.753906 153.320312 31.980469 153.769531 30.917969 C 154.21875 29.851562 150.546875 27.425781 150.546875 27.425781 C 150.546875 27.425781 154.945312 27.40625 154.578125 25.960938" fill="#100f0d"/></g><g id="change3_15"><path d="M 194.472656 12.5625 C 193.921875 12.5625 193.476562 12.117188 193.476562 11.566406 C 193.476562 11.015625 193.921875 10.566406 194.472656 10.566406 C 195.023438 10.566406 195.472656 11.015625 195.472656 11.566406 C 195.472656 12.117188 195.023438 12.5625 194.472656 12.5625 Z M 200.15625 11.878906 C 199.710938 10.601562 195.816406 10.730469 195.816406 10.730469 C 195.816406 10.730469 197.921875 8.621094 197.027344 7.921875 C 196.136719 7.21875 194.667969 9.644531 194.667969 9.644531 C 194.667969 9.644531 194.347656 5.878906 193.199219 5.878906 C 192.050781 5.878906 193.261719 10.410156 193.261719 10.410156 C 193.261719 10.410156 188.859375 7.601562 187.902344 9.007812 C 187.09375 10.191406 190.679688 11.371094 191.824219 11.714844 C 190.90625 11.46875 188.464844 10.9375 187.785156 12.070312 C 186.941406 13.472656 191.984375 13.539062 191.984375 13.539062 C 191.984375 13.539062 189.730469 15.898438 190.476562 17.050781 C 191.21875 18.199219 193.261719 14.238281 193.261719 14.238281 C 193.261719 14.238281 194.859375 17.558594 196.070312 16.792969 C 197.285156 16.027344 195.242188 13.664062 195.242188 13.664062 C 195.242188 13.664062 198.242188 16.027344 198.941406 14.6875 C 199.644531 13.347656 196.582031 12.390625 196.582031 12.390625 C 196.582031 12.390625 200.601562 13.15625 200.15625 11.878906" fill="#100f0d"/></g><g id="change3_16"><path d="M 174.621094 137.898438 C 174.652344 137.347656 175.125 136.925781 175.675781 136.960938 C 176.226562 136.992188 176.644531 137.464844 176.613281 138.015625 C 176.578125 138.566406 176.105469 138.984375 175.558594 138.953125 C 175.007812 138.917969 174.585938 138.445312 174.621094 137.898438 Z M 174.96875 143.609375 C 176.265625 143.238281 176.371094 139.347656 176.371094 139.347656 C 176.371094 139.347656 178.347656 141.574219 179.101562 140.722656 C 179.855469 139.871094 177.523438 138.261719 177.523438 138.261719 C 177.523438 138.261719 181.300781 138.167969 181.367188 137.023438 C 181.4375 135.875 176.84375 136.816406 176.84375 136.816406 C 176.84375 136.816406 179.90625 132.585938 178.5625 131.546875 C 177.425781 130.671875 176.035156 134.179688 175.625 135.304688 C 175.925781 134.402344 176.601562 131.992188 175.511719 131.246094 C 174.15625 130.324219 173.796875 135.355469 173.796875 135.355469 C 173.796875 135.355469 171.570312 132.964844 170.382812 133.640625 C 169.1875 134.316406 173.019531 136.589844 173.019531 136.589844 C 173.019531 136.589844 169.609375 137.984375 170.304688 139.242188 C 170.996094 140.496094 173.472656 138.597656 173.472656 138.597656 C 173.472656 138.597656 170.9375 141.453125 172.234375 142.234375 C 173.53125 143.011719 174.667969 140.011719 174.667969 140.011719 C 174.667969 140.011719 173.664062 143.980469 174.96875 143.609375" fill="#100f0d"/></g><g id="change3_17"><path d="M 150.75 92.460938 C 150.210938 92.460938 149.773438 92.023438 149.773438 91.484375 C 149.773438 90.945312 150.210938 90.511719 150.75 90.511719 C 151.289062 90.511719 151.726562 90.945312 151.726562 91.484375 C 151.726562 92.023438 151.289062 92.460938 150.75 92.460938 Z M 153.175781 91.324219 C 153.175781 91.324219 157.363281 90.558594 156.421875 89.199219 C 155.476562 87.835938 152.597656 90.132812 152.597656 90.132812 C 152.597656 90.132812 154.871094 84.261719 152.597656 83.75 C 150.324219 83.238281 150.582031 89.367188 150.582031 89.367188 C 150.582031 89.367188 149.6875 84.828125 147.519531 85.183594 C 145.347656 85.539062 148.921875 90.132812 148.921875 90.132812 C 148.921875 90.132812 146.410156 87.199219 145.175781 87.707031 C 143.941406 88.21875 144.285156 90.390625 147.644531 91.324219 C 147.644531 91.324219 144.207031 91.027344 144.523438 92.773438 C 144.835938 94.515625 148.667969 93.453125 148.667969 93.453125 C 148.667969 93.453125 147.21875 96.984375 148.753906 97.28125 C 150.285156 97.578125 151.175781 93.792969 151.175781 93.792969 C 151.175781 93.792969 151.984375 96.515625 153.304688 96.175781 C 154.625 95.835938 152.921875 93.113281 152.921875 93.113281 C 152.921875 93.113281 156.625 93.792969 156.410156 92.558594 C 156.199219 91.324219 153.175781 91.324219 153.175781 91.324219" fill="#100f0d"/></g><g id="change3_18"><path d="M 214.347656 93.976562 C 213.710938 93.976562 213.195312 93.460938 213.195312 92.820312 C 213.195312 92.183594 213.710938 91.664062 214.347656 91.664062 C 214.988281 91.664062 215.503906 92.183594 215.503906 92.820312 C 215.503906 93.460938 214.988281 93.976562 214.347656 93.976562 Z M 219.753906 91.664062 C 219.582031 89.921875 216.347656 91.421875 216.347656 91.421875 C 216.347656 91.421875 219.410156 89.066406 218.21875 87.664062 C 217.027344 86.261719 215.242188 89.921875 215.242188 89.921875 C 215.242188 89.921875 215.324219 85.074219 214.476562 85.183594 C 213.625 85.292969 211.410156 84.886719 213.285156 90.511719 C 213.285156 90.511719 210.902344 87.101562 208.6875 87.746094 C 206.476562 88.390625 211.332031 92.050781 211.332031 92.050781 C 211.332031 92.050781 206.378906 92.390625 206.640625 94.515625 C 206.902344 96.644531 211.046875 94.515625 211.046875 94.515625 C 211.046875 94.515625 208.84375 98.347656 209.957031 99.539062 C 211.070312 100.730469 213.285156 95.792969 213.285156 95.792969 C 213.285156 95.792969 212.007812 99.398438 213.285156 99.722656 C 214.558594 100.050781 215.15625 96.132812 215.15625 96.132812 C 215.15625 96.132812 218.21875 99.65625 218.984375 97.300781 C 219.753906 94.941406 216.773438 93.703125 216.773438 93.703125 C 216.773438 93.703125 219.921875 93.410156 219.753906 91.664062" fill="#100f0d"/></g><g id="change3_19"><path d="M 209.464844 162.730469 C 208.835938 162.730469 208.324219 162.335938 208.324219 161.84375 C 208.324219 161.355469 208.835938 160.960938 209.464844 160.960938 C 210.09375 160.960938 210.601562 161.355469 210.601562 161.84375 C 210.601562 162.335938 210.09375 162.730469 209.464844 162.730469 Z M 215.304688 163.089844 C 214.792969 161.621094 211.15625 161.304688 211.15625 161.304688 C 211.15625 161.304688 214.730469 157.027344 213.390625 155.941406 C 212.050781 154.855469 209.878906 159.921875 209.878906 159.921875 C 209.878906 159.921875 209.433594 156.453125 207.710938 156.390625 C 205.984375 156.324219 207.710938 160.347656 207.710938 160.347656 C 207.710938 160.347656 205.601562 157.472656 204.519531 158.207031 C 203.433594 158.941406 206.558594 162.070312 206.558594 162.070312 C 206.558594 162.070312 203.433594 160.75 203.304688 161.632812 C 203.175781 162.515625 206.496094 163.921875 206.496094 163.921875 C 206.496094 163.921875 203.941406 165.644531 204.773438 166.347656 C 205.601562 167.050781 208.792969 164.8125 208.792969 164.8125 C 208.792969 164.8125 208.667969 168.132812 209.6875 168.132812 C 210.710938 168.132812 210.199219 164.6875 210.199219 164.6875 C 210.199219 164.6875 212.558594 167.238281 213.390625 166.539062 C 214.21875 165.835938 211.601562 163.730469 211.601562 163.730469 C 211.601562 163.730469 215.816406 164.558594 215.304688 163.089844" fill="#100f0d"/></g><g id="change3_20"><path d="M 404.558594 269.628906 L 403.925781 268.851562 L 389.808594 280.34375 L 390.4375 281.117188 Z M 402.15625 264.371094 L 401.476562 263.640625 L 387.578125 276.589844 L 388.261719 277.320312 Z M 396.160156 261.8125 L 395.46875 261.089844 L 384.082031 271.996094 L 384.773438 272.71875 Z M 376.082031 98.769531 L 375.667969 97.859375 L 356.886719 106.402344 L 357.300781 107.3125 Z M 438.839844 121.914062 L 422.15625 101.957031 L 421.390625 102.597656 L 438.070312 122.554688 Z M 430.113281 126.382812 L 417.050781 104.980469 L 416.195312 105.5 L 429.261719 126.90625 Z M 423.773438 130.320312 L 412.785156 108.226562 L 411.890625 108.671875 L 422.878906 130.765625 Z M 379.449219 103.800781 L 378.914062 102.953125 L 358.527344 115.882812 L 359.0625 116.726562 Z M 381.269531 106.179688 L 380.578125 105.453125 L 361.515625 123.640625 L 362.203125 124.363281 Z M 383.164062 108.570312 L 382.378906 107.953125 L 367.976562 126.335938 L 368.761719 126.953125 Z M 385.453125 110.839844 L 384.585938 110.339844 L 372.914062 130.480469 L 373.78125 130.980469 Z M 388.558594 112.195312 L 387.613281 111.859375 L 379.902344 133.625 L 380.847656 133.960938 Z M 392.847656 112.933594 L 391.890625 112.640625 L 385.253906 134.285156 L 386.210938 134.578125 Z M 396.285156 112.882812 L 395.304688 112.6875 L 390.601562 136.378906 L 391.582031 136.570312 Z M 399.253906 113.566406 L 398.253906 113.566406 L 398.253906 136.472656 L 399.253906 136.472656 Z M 405.25 136.441406 L 403.796875 112.753906 L 402.800781 112.816406 L 404.253906 136.503906 Z M 410.964844 136.34375 L 407.15625 111.507812 L 406.171875 111.660156 L 409.976562 136.496094 Z M 416.386719 134.503906 L 409.355469 110.246094 L 410.3125 109.96875 L 417.34375 134.226562 L 416.386719 134.503906" fill="#100f0d"/></g><g id="change1_4"><path d="M 187.742188 296.492188 C 187.523438 296.8125 187.253906 297.152344 186.945312 297.53125 C 185.183594 299.652344 182.53125 302.074219 179.492188 304.363281 C 176.984375 306.253906 174.664062 307.691406 172.703125 308.722656 C 169.382812 310.453125 167.105469 310.972656 166.652344 310.382812 C 166.179688 309.742188 167.503906 307.449219 170.464844 304.476562 C 171.402344 304.070312 172.386719 303.585938 173.402344 303.023438 C 174.871094 302.203125 176.394531 301.222656 177.902344 300.132812 C 180.902344 297.953125 183.480469 295.574219 185.171875 293.414062 C 185.300781 293.601562 185.457031 293.8125 185.664062 294.0625 C 186.722656 293.660156 187.574219 293.460938 188.132812 293.460938 C 188.492188 293.460938 188.734375 293.542969 188.855469 293.691406 C 189.042969 293.941406 188.972656 294.800781 187.742188 296.492188 Z M 189.652344 293.09375 C 189.015625 292.238281 187.453125 292.34375 185.429688 293.070312 C 186.550781 291.550781 187.132812 290.289062 187.132812 289.3125 C 187.132812 288.882812 187.011719 288.511719 186.792969 288.203125 C 186.023438 287.144531 184.132812 287.121094 181.34375 288.132812 C 181.113281 288.210938 180.871094 288.300781 180.632812 288.410156 C 180.871094 288.644531 181.132812 288.902344 181.414062 289.183594 C 181.503906 289.144531 181.59375 289.101562 181.683594 289.074219 C 182.425781 288.800781 183.0625 288.621094 183.605469 288.523438 C 184.054688 288.433594 184.445312 288.394531 184.761719 288.394531 C 185.425781 288.394531 185.8125 288.5625 185.984375 288.792969 C 186.332031 289.261719 186.121094 290.503906 184.554688 292.574219 C 184.492188 292.644531 184.445312 292.722656 184.382812 292.792969 C 182.753906 294.882812 180.242188 297.203125 177.3125 299.324219 C 175.71875 300.484375 174.109375 301.503906 172.570312 302.328125 L 171.894531 301.78125 C 171.199219 302.390625 170.546875 303 169.933594 303.601562 C 169.59375 303.746094 169.246094 303.90625 168.925781 304.023438 C 166.292969 304.972656 164.972656 304.792969 164.613281 304.300781 C 164.261719 303.8125 164.492188 302.503906 166.222656 300.300781 C 166.652344 299.753906 167.144531 299.183594 167.703125 298.601562 L 166.894531 297.972656 C 166.363281 298.550781 165.863281 299.121094 165.433594 299.683594 C 163.605469 302.03125 163.042969 303.832031 163.804688 304.894531 C 164.371094 305.660156 165.523438 305.882812 167.195312 305.550781 C 167.554688 305.484375 167.941406 305.378906 168.347656 305.257812 C 166.171875 307.707031 165.015625 309.863281 165.855469 310.984375 C 166.164062 311.394531 166.695312 311.582031 167.394531 311.582031 C 168.644531 311.582031 170.433594 310.972656 172.464844 309.960938 C 174.84375 308.792969 177.554688 307.074219 180.09375 305.160156 C 183.203125 302.824219 185.902344 300.34375 187.714844 298.171875 C 187.984375 297.851562 188.222656 297.542969 188.433594 297.253906 C 189.871094 295.324219 190.273438 293.921875 189.652344 293.09375" fill="#ad3221"/></g></g></svg>