<?xml version="1.0" encoding="UTF-8"?><svg xmlns="http://www.w3.org/2000/svg" xmlns:xlink="http://www.w3.org/1999/xlink" height="511.2" preserveAspectRatio="xMidYMid meet" version="1.0" viewBox="-5.9 -11.2 352.2 511.2" width="352.2" zoomAndPan="magnify"><defs><clipPath id="a"><path d="M 8 5 L 346.300781 5 L 346.300781 321 L 8 321 Z M 8 5"/></clipPath></defs><g><g id="change1_1"><path d="M 321.785156 290.109375 C 320.628906 294.269531 316.699219 310.683594 313 311.375 C 310.449219 311.855469 308.90625 313.089844 308.183594 313.820312 C 311.210938 338.625 311.121094 361.542969 308.144531 375.636719 C 302.019531 404.644531 266.382812 403.222656 266.382812 403.222656 L 278.097656 500 C 278.097656 500 99.09375 497.347656 48.566406 497.347656 C 61.625 449.652344 58.472656 393.246094 59.351562 393.445312 C 35.605469 368.554688 -5.917969 307.289062 0.707031 258.980469 C 7.105469 212.320312 42.898438 192.421875 69.820312 184 C 75.601562 162.894531 84.683594 116.226562 93.003906 82.632812 C 101.324219 49.035156 148.957031 6.554688 183.78125 17.035156 C 218.609375 27.515625 216.453125 79.601562 216.453125 79.601562 C 216.453125 79.601562 216.804688 104.183594 207.1875 127.347656 C 203.871094 135.339844 198.789062 170.738281 212.742188 186.429688 C 234.90625 191.175781 253.738281 197.171875 262.683594 203.5 C 271.09375 209.453125 278.328125 218.789062 284.449219 230.175781 C 284.011719 229.261719 283.953125 228.191406 284.347656 227.148438 C 285.039062 225.316406 286.898438 223.992188 288.769531 223.992188 C 290.035156 224.007812 291.113281 224.566406 291.773438 225.535156 C 291.777344 225.539062 291.777344 225.542969 291.78125 225.550781 C 292.808594 224.34375 294.3125 223.5625 295.832031 223.5625 C 297.207031 223.574219 298.378906 224.179688 299.089844 225.21875 C 299.832031 226.308594 299.964844 227.714844 299.453125 229.070312 C 298.664062 231.15625 296.550781 232.671875 294.429688 232.671875 L 294.382812 232.671875 C 293.054688 232.660156 291.886719 232.054688 291.171875 231.015625 C 291.109375 230.921875 291.078125 230.816406 291.023438 230.722656 C 290.136719 231.628906 288.921875 232.203125 287.699219 232.203125 L 287.65625 232.203125 C 286.453125 232.1875 285.386719 231.640625 284.726562 230.695312 C 289.042969 238.820312 292.796875 247.964844 296 257.667969 C 298.609375 255.617188 302.773438 253.21875 305.601562 255.898438 L 301.554688 266.914062 C 303.085938 267.574219 304.886719 268.679688 305.835938 270.460938 C 307.683594 273.929688 312.308594 274.621094 315.082031 278.320312 C 317.855469 282.019531 322.941406 285.949219 321.785156 290.109375" fill="#fff"/></g><g id="change2_1"><path d="M 259.730469 329.96875 C 259.804688 330.675781 267.144531 400.960938 268.0625 430.28125 C 268.097656 431.378906 267.234375 432.296875 266.136719 432.332031 C 266.117188 432.332031 266.097656 432.332031 266.074219 432.332031 C 265.003906 432.332031 264.121094 431.480469 264.089844 430.40625 C 263.175781 401.230469 255.851562 331.089844 255.777344 330.382812 C 255.664062 329.292969 256.453125 328.3125 257.546875 328.199219 C 258.640625 328.082031 259.617188 328.878906 259.730469 329.96875 Z M 122.230469 339.167969 C 122.714844 340.15625 122.304688 341.34375 121.316406 341.824219 C 121.035156 341.960938 120.738281 342.027344 120.445312 342.027344 C 119.710938 342.027344 119.003906 341.613281 118.660156 340.910156 C 118.488281 340.554688 101.367188 305.320312 87.933594 271.738281 C 74.722656 238.703125 45.9375 213.890625 45.648438 213.644531 C 44.8125 212.929688 44.714844 211.675781 45.425781 210.84375 C 46.140625 210.007812 47.394531 209.90625 48.226562 210.617188 C 48.523438 210.871094 78.039062 236.296875 91.625 270.261719 C 105.003906 303.710938 122.0625 338.816406 122.230469 339.167969 Z M 296.972656 228.136719 C 296.574219 229.1875 295.429688 230.03125 294.410156 230.023438 C 293.390625 230.011719 292.890625 229.148438 293.289062 228.097656 C 293.683594 227.042969 294.832031 226.199219 295.851562 226.210938 C 296.867188 226.222656 297.371094 227.082031 296.972656 228.136719 Z M 289.640625 228.113281 C 289.335938 228.914062 288.460938 229.558594 287.683594 229.550781 C 286.90625 229.542969 286.523438 228.886719 286.828125 228.082031 C 287.132812 227.277344 288.007812 226.632812 288.785156 226.640625 C 289.5625 226.648438 289.945312 227.308594 289.640625 228.113281 Z M 309.675781 219.761719 L 307.433594 216.488281 C 306.398438 214.980469 304.695312 214.058594 302.867188 214.019531 L 256.324219 213.011719 C 253.957031 212.960938 251.804688 214.386719 250.921875 216.585938 L 242.355469 238.007812 C 243.546875 239.640625 244.125 242.414062 242.265625 247.113281 C 238.335938 257.054688 228.628906 267.457031 233.945312 273.003906 C 239.261719 278.550781 284.800781 263.527344 293.582031 259.828125 C 293.582031 259.828125 296.132812 257.132812 299.132812 255.65625 L 310.328125 224.925781 C 310.957031 223.199219 310.714844 221.273438 309.675781 219.761719" fill="#e3386a"/></g><g id="change3_1"><path d="M 163.617188 97.546875 C 166.210938 97.957031 168.644531 96.191406 169.058594 93.601562 C 169.46875 91.011719 167.703125 88.574219 165.113281 88.164062 C 162.523438 87.75 160.089844 89.515625 159.675781 92.105469 C 159.261719 94.699219 161.027344 97.132812 163.617188 97.546875 Z M 199.25 97.34375 C 196.660156 96.929688 194.222656 98.695312 193.8125 101.285156 C 193.398438 103.878906 195.164062 106.3125 197.753906 106.726562 C 200.347656 107.136719 202.78125 105.371094 203.191406 102.78125 C 203.605469 100.191406 201.839844 97.753906 199.25 97.34375 Z M 187.261719 104.574219 C 187.214844 103.933594 187.132812 103.292969 187.027344 102.652344 L 186.839844 101.691406 C 186.777344 101.375 186.578125 101.058594 185.84375 100.765625 C 185.136719 101.117188 184.964844 101.441406 184.921875 101.761719 L 184.796875 102.726562 C 184.734375 103.367188 184.6875 104.007812 184.679688 104.644531 C 184.660156 105.925781 184.691406 107.199219 184.613281 108.476562 C 184.453125 111.03125 184.1875 113.578125 184.046875 116.089844 C 183.984375 117.351562 183.894531 118.589844 183.859375 119.800781 C 183.816406 120.378906 183.808594 121.015625 183.734375 121.472656 C 183.683594 121.972656 183.539062 122.339844 183.347656 122.792969 C 182.917969 123.660156 182.191406 124.492188 181.363281 125.292969 C 180.949219 125.691406 180.507812 126.09375 180.046875 126.484375 C 179.816406 126.683594 179.582031 126.875 179.339844 127.0625 C 179.085938 127.230469 178.910156 127.519531 178.9375 128.394531 C 179.554688 129.027344 179.957031 129.035156 180.277344 128.917969 C 180.605469 128.816406 180.933594 128.703125 181.261719 128.582031 C 181.902344 128.320312 182.542969 128.027344 183.148438 127.648438 C 184.363281 126.910156 185.476562 125.886719 186.371094 124.554688 C 186.789062 123.886719 187.179688 123.070312 187.359375 122.304688 C 187.582031 121.511719 187.679688 120.867188 187.785156 120.171875 C 187.972656 118.828125 188.011719 117.507812 188.007812 116.203125 C 188.007812 113.589844 187.722656 111.007812 187.492188 108.433594 C 187.371094 107.148438 187.351562 105.859375 187.261719 104.574219 Z M 155.632812 132.105469 C 155.171875 131.65625 154.84375 131.09375 154.410156 130.601562 L 153.761719 129.859375 C 153.542969 129.605469 153.210938 129.425781 152.398438 129.488281 C 151.941406 130.121094 151.96875 130.511719 152.109375 130.835938 L 152.53125 131.804688 C 152.855469 132.433594 153.105469 133.113281 153.570312 133.65625 C 154.4375 134.785156 155.277344 135.9375 156.320312 136.9375 C 158.222656 139.09375 160.648438 140.910156 163.375 142.039062 C 166.089844 143.238281 169.085938 143.570312 171.957031 143.492188 C 173.394531 143.429688 174.828125 143.332031 176.222656 143.003906 C 176.917969 142.855469 177.605469 142.644531 178.277344 142.40625 C 178.613281 142.289062 178.945312 142.140625 179.277344 142.007812 C 179.605469 141.890625 179.921875 141.613281 180.003906 140.734375 C 179.4375 140.050781 179.101562 139.953125 178.777344 139.992188 C 178.449219 140.003906 178.128906 140.035156 177.800781 140.03125 C 177.148438 140.058594 176.5 140.0625 175.855469 140.070312 C 174.570312 140.09375 173.300781 140.085938 172.039062 139.996094 C 169.511719 139.792969 167.117188 139.117188 164.808594 138.347656 C 164.226562 138.160156 163.636719 137.976562 163.097656 137.683594 C 162.542969 137.417969 161.949219 137.214844 161.410156 136.910156 L 159.804688 135.960938 C 159.238281 135.671875 158.804688 135.207031 158.289062 134.839844 C 157.242188 134.105469 156.5 133.046875 155.632812 132.105469 Z M 204.484375 90.207031 C 204.617188 90.296875 204.851562 90.257812 205.566406 89.847656 C 206.066406 89.1875 206.082031 88.910156 205.984375 88.765625 L 205.734375 88.269531 C 205.554688 87.949219 205.359375 87.640625 205.140625 87.359375 C 204.707031 86.785156 204.175781 86.308594 203.648438 85.824219 C 202.582031 84.878906 201.417969 83.953125 200.027344 83.46875 C 198.667969 82.914062 197.15625 82.777344 195.710938 82.710938 C 195.347656 82.695312 194.992188 82.671875 194.632812 82.640625 C 194.273438 82.640625 193.914062 82.621094 193.554688 82.640625 C 193.195312 82.632812 192.839844 82.710938 192.488281 82.820312 L 191.96875 83.003906 C 191.800781 83.0625 191.636719 83.265625 191.546875 83.984375 C 191.785156 84.6875 191.949219 84.871094 192.105469 84.914062 L 192.570312 85.046875 L 193.46875 85.21875 C 193.765625 85.269531 194.0625 85.285156 194.355469 85.320312 C 194.648438 85.378906 194.9375 85.460938 195.226562 85.546875 C 196.363281 85.929688 197.390625 86.542969 198.414062 87.089844 C 199.417969 87.675781 200.539062 88.070312 201.601562 88.660156 C 202.132812 88.953125 202.636719 89.285156 203.1875 89.578125 C 203.460938 89.730469 203.75 89.863281 204.039062 90.003906 Z M 142.15625 495.054688 C 141.210938 494.605469 140.242188 494.246094 139.351562 493.667969 C 138.441406 493.140625 137.535156 492.628906 136.6875 491.984375 C 135.824219 491.375 134.945312 490.804688 134.128906 490.125 C 130.796875 487.511719 127.667969 484.589844 124.730469 481.46875 C 118.878906 475.191406 113.65625 468.308594 108.527344 461.355469 C 103.382812 454.40625 98.488281 447.246094 93.769531 439.960938 C 91.4375 436.296875 89.214844 432.570312 87.011719 428.828125 L 83.679688 423.230469 L 81.984375 420.445312 C 81.425781 419.511719 80.75 418.648438 79.609375 418.015625 C 79.46875 419.316406 79.824219 420.371094 80.296875 421.355469 L 81.726562 424.304688 C 82.695312 426.261719 83.738281 428.183594 84.78125 430.101562 C 86.898438 433.921875 89.101562 437.691406 91.3125 441.460938 C 93.503906 445.242188 95.746094 448.996094 98.058594 452.710938 C 100.40625 456.402344 102.816406 460.0625 105.3125 463.667969 C 107.886719 467.21875 110.472656 470.773438 113.3125 474.136719 C 116.148438 477.503906 119.097656 480.785156 122.226562 483.910156 C 125.367188 487.015625 128.695312 489.988281 132.40625 492.503906 C 133.308594 493.160156 134.273438 493.742188 135.261719 494.285156 C 136.214844 494.871094 137.253906 495.335938 138.28125 495.804688 C 139.28125 496.324219 140.398438 496.632812 141.460938 497.011719 C 141.984375 497.230469 142.566406 497.300781 143.15625 497.296875 C 143.746094 497.273438 144.34375 497.210938 144.949219 496.917969 C 144.054688 495.808594 143.117188 495.488281 142.15625 495.054688 Z M 302.214844 322.820312 C 301.621094 322.980469 301.023438 323.101562 300.410156 323.179688 C 299.804688 323.257812 299.214844 323.402344 298.605469 323.464844 C 297.996094 323.511719 297.390625 323.578125 296.785156 323.644531 C 294.355469 323.789062 291.90625 323.847656 289.46875 323.515625 C 287.03125 323.222656 284.625 322.679688 282.277344 321.953125 C 279.953125 321.230469 277.589844 320.3125 275.515625 319.277344 C 274.625 318.832031 273.539062 319.183594 273.078125 320.066406 L 273.054688 320.117188 C 271.359375 323.367188 269.824219 326.636719 268.394531 329.984375 C 266.914062 333.304688 265.722656 336.746094 264.511719 340.183594 C 263.34375 343.628906 262.261719 347.128906 261.449219 350.714844 C 261.269531 351.621094 261.070312 352.515625 260.90625 353.425781 C 260.765625 354.34375 260.671875 355.269531 260.554688 356.1875 C 260.484375 357.121094 260.460938 358.0625 260.414062 358.992188 C 260.386719 359.925781 260.503906 360.933594 261.453125 361.769531 C 262.425781 360.800781 262.453125 360.003906 262.539062 359.140625 C 262.707031 358.28125 262.84375 357.429688 263.023438 356.578125 C 263.246094 355.726562 263.488281 354.882812 263.683594 354.03125 L 264.421875 351.488281 C 265.476562 348.117188 266.609375 344.746094 267.941406 341.4375 C 269.230469 338.113281 270.710938 334.863281 272.066406 331.558594 L 275.679688 323.292969 C 277.59375 324.007812 279.484375 324.546875 281.445312 325.019531 C 283.992188 325.617188 286.585938 326.015625 289.191406 326.25 C 291.800781 326.496094 294.449219 326.457031 297.058594 326.109375 C 297.710938 326.007812 298.363281 325.902344 299.007812 325.773438 C 299.652344 325.636719 300.285156 325.433594 300.914062 325.246094 C 302.15625 324.863281 303.507812 324.570312 304.292969 323.085938 C 303.472656 322.734375 302.824219 322.71875 302.214844 322.820312 Z M 212.039062 345.671875 C 208.71875 339.742188 205.328125 333.851562 201.953125 327.949219 L 196.800781 319.144531 C 195 316.253906 193.675781 313.105469 190.871094 310.757812 C 191.355469 314.371094 193.316406 317.179688 194.808594 320.246094 L 199.519531 329.320312 C 202.53125 334.988281 205.535156 340.660156 208.59375 346.300781 C 200.382812 356.132812 191.910156 365.792969 183.25 375.242188 C 178.835938 380.140625 174.34375 384.960938 169.789062 389.714844 C 165.253906 394.488281 160.632812 399.175781 155.859375 403.691406 C 151.074219 408.175781 146.214844 412.613281 140.972656 416.457031 C 138.378906 418.414062 135.644531 420.160156 132.816406 421.5625 C 131.402344 422.234375 129.933594 422.804688 128.503906 423.054688 L 127.433594 423.226562 C 127.0625 423.265625 126.644531 423.234375 126.25 423.246094 L 123.855469 423.253906 C 120.664062 423.058594 117.460938 422.679688 114.339844 421.847656 C 111.199219 421.101562 108.125 420.039062 105.128906 418.789062 C 102.128906 417.546875 99.191406 416.125 96.34375 414.527344 C 93.460938 412.957031 90.902344 410.992188 87.621094 409.847656 C 89.511719 412.828125 92.492188 414.507812 95.285156 416.316406 C 98.140625 418.0625 101.058594 419.734375 104.15625 421.054688 C 110.285156 423.792969 116.917969 425.625 123.738281 426.007812 L 126.300781 426.03125 C 126.730469 426.027344 127.144531 426.058594 127.59375 426.019531 L 128.976562 425.832031 C 130.800781 425.523438 132.453125 424.890625 134.023438 424.167969 C 137.152344 422.710938 140.058594 420.945312 142.792969 418.996094 C 148.308594 415.140625 153.378906 410.796875 158.304688 406.324219 C 163.222656 401.839844 167.972656 397.191406 172.628906 392.460938 C 177.261719 387.707031 181.769531 382.839844 186.226562 377.933594 C 195.039062 368.019531 203.589844 357.914062 211.894531 347.558594 C 212.308594 347.042969 212.394531 346.304688 212.050781 345.691406 Z M 176.941406 312.054688 C 172.554688 314.039062 168.144531 316.003906 163.710938 317.9375 C 154.839844 321.792969 145.90625 325.589844 137.1875 329.898438 C 132.84375 332.078125 128.523438 334.324219 124.257812 336.679688 C 120.007812 339.058594 115.816406 341.566406 111.730469 344.242188 C 107.632812 346.902344 103.601562 349.6875 99.816406 352.820312 C 97.917969 354.378906 96.097656 356.046875 94.425781 357.863281 C 93.554688 358.730469 92.789062 359.714844 91.980469 360.640625 C 91.1875 361.582031 90.589844 362.714844 90.394531 364.078125 C 91.746094 363.578125 92.578125 362.753906 93.417969 361.90625 C 94.269531 361.074219 95.0625 360.195312 95.972656 359.421875 C 96.851562 358.621094 97.738281 357.832031 98.664062 357.074219 C 99.5625 356.296875 100.476562 355.53125 101.429688 354.8125 C 105.175781 351.859375 109.144531 349.164062 113.253906 346.683594 C 117.382812 344.230469 121.613281 341.941406 125.910156 339.777344 C 130.195312 337.585938 134.535156 335.492188 138.910156 333.464844 L 165.15625 321.121094 C 169.539062 319.042969 173.929688 316.972656 178.238281 314.691406 C 180.40625 313.585938 182.519531 312.351562 184.621094 311.105469 C 185.664062 310.449219 186.714844 309.832031 187.734375 309.136719 C 188.773438 308.492188 189.714844 307.632812 190.257812 306.289062 C 188.78125 306.285156 187.71875 306.785156 186.660156 307.359375 C 185.625 307.945312 184.539062 308.460938 183.476562 309.007812 C 181.316406 310.054688 179.128906 311.042969 176.941406 312.054688 Z M 222.15625 251.324219 L 221.542969 252.425781 L 221.046875 253.472656 L 220.074219 255.546875 L 216.203125 263.851562 C 213.652344 269.402344 211.136719 274.96875 208.496094 280.472656 C 207.167969 283.21875 205.867188 285.980469 204.585938 288.753906 C 203.960938 290.144531 203.335938 291.539062 202.742188 292.945312 C 202.167969 294.363281 201.355469 295.664062 201.660156 297.507812 C 203.304688 296.609375 203.832031 295.171875 204.601562 293.851562 C 205.347656 292.519531 206.0625 291.175781 206.773438 289.828125 C 208.179688 287.121094 209.558594 284.40625 210.90625 281.675781 C 213.632812 276.226562 216.480469 270.839844 219.289062 265.4375 L 223.460938 257.308594 L 224.5 255.277344 L 225.019531 254.273438 L 225.550781 253.394531 C 226.296875 252.210938 227.148438 251.023438 228.074219 249.871094 C 231.585938 245.566406 235.429688 241.332031 239.410156 237.316406 C 239.441406 237.335938 239.46875 237.347656 239.5 237.363281 C 239.835938 237.570312 240.167969 237.84375 240.484375 238.152344 C 241.105469 238.753906 241.703125 239.597656 242.121094 240.371094 C 242.203125 240.480469 242.28125 240.828125 242.277344 241.230469 C 242.292969 241.628906 242.230469 242.09375 242.15625 242.566406 C 242 243.519531 241.71875 244.519531 241.386719 245.511719 C 240.699219 247.492188 239.867188 249.488281 238.976562 251.460938 C 238.527344 252.445312 238.054688 253.425781 237.566406 254.394531 C 237.050781 255.355469 236.640625 256.359375 236.796875 257.746094 C 238.109375 257.269531 238.816406 256.382812 239.386719 255.433594 C 239.984375 254.492188 240.566406 253.546875 241.128906 252.582031 C 241.546875 251.875 241.949219 251.152344 242.34375 250.421875 L 233.808594 272.84375 C 233.855469 272.894531 233.894531 272.949219 233.945312 273.003906 C 234.59375 273.679688 235.847656 274.046875 237.554688 274.167969 L 256.675781 223.949219 C 256.714844 223.847656 256.746094 223.746094 256.765625 223.644531 C 257.148438 221.796875 258.019531 220.738281 261.378906 220.867188 L 305.765625 221.273438 C 306.886719 221.304688 307.761719 220.398438 307.769531 219.304688 C 307.78125 218.203125 306.898438 217.308594 305.800781 217.296875 L 261.464844 216.894531 C 256.691406 216.730469 253.804688 218.667969 252.910156 222.675781 L 245.453125 242.253906 C 245.496094 241.933594 245.527344 241.601562 245.53125 241.253906 C 245.546875 240.566406 245.507812 239.78125 245.09375 238.902344 C 244.507812 237.730469 243.851562 236.738281 242.941406 235.761719 C 242.492188 235.285156 241.992188 234.832031 241.40625 234.4375 C 241.109375 234.246094 240.804688 234.058594 240.457031 233.902344 C 240.394531 233.871094 240.320312 233.84375 240.253906 233.816406 C 240.253906 233.761719 240.253906 233.707031 240.246094 233.65625 C 240.207031 233.347656 240.152344 233.050781 240.160156 232.714844 C 240.144531 232.054688 240.070312 231.4375 240.0625 230.773438 C 240.015625 229.472656 239.945312 228.164062 239.933594 226.839844 C 239.925781 224.1875 240.109375 221.527344 240.019531 218.851562 C 239.996094 216.171875 239.824219 213.476562 239.78125 210.773438 C 239.765625 209.421875 239.859375 208.074219 239.898438 206.726562 C 239.925781 206.050781 239.910156 205.375 239.886719 204.695312 L 239.816406 203.675781 C 239.792969 203.335938 239.640625 202.984375 238.953125 202.578125 C 238.199219 202.847656 237.988281 203.171875 237.902344 203.503906 L 237.660156 204.511719 C 237.519531 205.183594 237.40625 205.855469 237.328125 206.535156 C 237.171875 207.890625 237.089844 209.25 236.910156 210.605469 C 236.558594 213.320312 236.179688 216.042969 236.058594 218.789062 C 235.894531 221.535156 236.140625 224.296875 236.441406 227.0625 C 236.621094 228.445312 236.789062 229.835938 237.140625 231.21875 C 237.285156 231.90625 237.570312 232.601562 237.800781 233.277344 C 237.855469 233.433594 237.925781 233.59375 238 233.753906 C 237.929688 233.800781 237.859375 233.84375 237.796875 233.902344 L 237.730469 233.960938 C 235.453125 236.070312 233.269531 238.210938 231.113281 240.425781 C 228.949219 242.628906 226.871094 244.921875 224.9375 247.402344 C 223.960938 248.628906 223.03125 249.925781 222.15625 251.324219 Z M 199.296875 203.585938 C 201.347656 200.839844 202.796875 197.613281 203.421875 194.242188 C 203.738281 192.558594 203.84375 190.84375 203.746094 189.144531 C 203.667969 187.464844 203.253906 185.710938 201.96875 184.394531 C 201.671875 186.160156 201.660156 187.652344 201.671875 189.195312 C 201.660156 190.730469 201.464844 192.261719 201.085938 193.734375 C 200.335938 196.699219 198.855469 199.40625 196.972656 201.792969 C 193.082031 206.523438 187.585938 209.808594 181.800781 212.195312 C 175.964844 214.535156 169.761719 216.132812 163.507812 217.164062 C 157.304688 218.160156 150.980469 218.433594 144.691406 217.882812 C 138.390625 217.425781 132.148438 216.117188 126.054688 214.3125 C 119.945312 212.53125 113.988281 210.164062 108.230469 207.375 C 102.46875 204.582031 96.941406 201.296875 91.601562 197.742188 C 88.929688 195.96875 86.308594 194.113281 83.707031 192.230469 C 82.414062 191.277344 81.125 190.3125 79.867188 189.316406 C 78.601562 188.324219 77.273438 187.429688 75.601562 186.859375 C 76.296875 188.492188 77.421875 189.707031 78.640625 190.789062 C 79.859375 191.871094 81.105469 192.921875 82.359375 193.964844 C 84.863281 196.054688 87.480469 198 90.160156 199.859375 C 95.523438 203.574219 101.125 206.949219 106.9375 209.945312 C 118.488281 216.027344 131.117188 220.488281 144.335938 221.824219 C 150.929688 222.40625 157.644531 222.265625 164.1875 221.023438 C 170.671875 219.820312 177.039062 218.039062 183.164062 215.417969 C 189.207031 212.746094 195.160156 209.117188 199.296875 203.585938 Z M 144.464844 152.199219 C 140.359375 149.144531 136.367188 145.832031 132.65625 142.1875 C 130.8125 140.355469 129.070312 138.421875 127.355469 136.464844 L 124.769531 133.535156 L 123.457031 132.085938 C 123.023438 131.59375 122.492188 131.1875 121.523438 131.070312 C 121.316406 132.027344 121.570312 132.675781 121.925781 133.238281 L 123.015625 134.910156 C 123.761719 136.011719 124.5625 137.070312 125.386719 138.109375 C 127.046875 140.183594 128.796875 142.183594 130.566406 144.167969 C 134.074219 148.164062 137.824219 152.011719 142.0625 155.351562 C 146.28125 158.707031 151.085938 161.433594 156.296875 163.214844 C 158.894531 164.113281 161.636719 164.71875 164.417969 164.824219 C 165.109375 164.878906 165.804688 164.890625 166.503906 164.824219 C 167.195312 164.777344 167.886719 164.769531 168.574219 164.625 C 169.257812 164.488281 169.945312 164.421875 170.609375 164.226562 C 171.277344 164.058594 171.933594 163.742188 172.378906 162.816406 C 171.535156 162.148438 170.90625 162.085938 170.28125 162.171875 C 169.660156 162.246094 169.023438 162.1875 168.402344 162.207031 C 167.78125 162.234375 167.15625 162.160156 166.539062 162.109375 L 165.613281 162.039062 L 164.691406 161.898438 C 162.242188 161.519531 159.820312 160.894531 157.503906 159.929688 C 155.183594 158.984375 152.941406 157.8125 150.78125 156.492188 C 148.648438 155.121094 146.523438 153.71875 144.464844 152.199219 Z M 86.046875 278.976562 L 88.144531 280.710938 C 88.867188 281.273438 89.476562 281.933594 90.152344 282.539062 L 91.148438 283.460938 L 92.089844 284.429688 C 92.699219 285.089844 93.421875 285.675781 93.996094 286.367188 L 94.902344 287.378906 C 95.191406 287.730469 95.597656 287.996094 96.558594 287.949219 C 96.992188 287.136719 96.867188 286.636719 96.628906 286.21875 L 95.945312 284.925781 C 95.492188 284.054688 94.890625 283.308594 94.335938 282.507812 C 93.789062 281.699219 93.167969 280.960938 92.507812 280.261719 C 91.847656 279.566406 91.238281 278.800781 90.53125 278.152344 C 87.835938 275.40625 84.902344 272.929688 81.71875 270.828125 C 78.5625 268.695312 75.171875 266.96875 71.796875 265.273438 C 70.964844 264.832031 70.125 264.40625 69.277344 263.988281 C 68.441406 263.554688 67.601562 263.121094 66.746094 262.726562 C 65.898438 262.3125 65.019531 261.964844 64.140625 261.621094 L 62.792969 261.15625 C 62.34375 261.007812 61.835938 260.972656 61.117188 261.445312 C 61.25 262.292969 61.585938 262.652344 61.984375 262.894531 L 63.167969 263.632812 C 63.960938 264.117188 64.765625 264.574219 65.574219 265.027344 C 67.199219 265.90625 68.820312 266.800781 70.386719 267.78125 C 73.5 269.777344 76.511719 271.914062 79.457031 274.082031 L 83.859375 277.335938 Z M 307.570312 305.027344 C 307.574219 305.023438 307.589844 305.003906 307.597656 304.992188 C 307.578125 305.015625 307.570312 305.027344 307.570312 305.027344 Z M 316.296875 287.675781 L 315.890625 289.800781 C 315.605469 291.210938 315.304688 292.621094 314.964844 294.019531 C 314.296875 296.824219 313.507812 299.59375 312.613281 302.382812 C 312.132812 303.796875 311.730469 305.125 310.914062 306.691406 C 310.800781 306.894531 310.667969 307.113281 310.460938 307.382812 C 310.351562 307.519531 310.226562 307.671875 309.976562 307.875 C 309.574219 308.15625 309.691406 308.078125 309.59375 308.15625 C 309.390625 308.332031 309.121094 308.558594 308.851562 308.773438 C 308.304688 309.207031 307.6875 309.625 307.023438 309.996094 C 305.710938 310.761719 304.207031 311.308594 302.679688 311.707031 C 301.917969 311.914062 301.164062 312.148438 300.367188 312.246094 C 300.359375 312.25 300.351562 312.25 300.339844 312.25 C 300.5 312.800781 300.636719 313.363281 300.738281 313.949219 C 300.835938 313.917969 300.890625 313.898438 300.914062 313.902344 C 300.980469 313.902344 301.039062 313.898438 301.101562 313.894531 C 301.207031 313.890625 301.304688 313.882812 301.371094 313.90625 C 301.523438 313.945312 301.703125 314.023438 301.933594 313.984375 C 302.398438 313.917969 302.914062 313.609375 303.433594 313.496094 C 303.964844 313.304688 304.578125 313.402344 305.226562 313.359375 C 305.550781 313.339844 305.867188 313.320312 306.222656 313.335938 C 306.398438 313.34375 306.585938 313.378906 306.777344 313.417969 L 307.070312 313.496094 C 307.160156 313.496094 307.308594 313.65625 307.683594 314.378906 C 307.894531 315.164062 307.878906 315.382812 307.804688 315.441406 L 307.605469 315.695312 C 307.46875 315.855469 307.328125 316.007812 307.175781 316.132812 C 306.878906 316.402344 306.511719 316.539062 306.171875 316.730469 C 305.480469 317.078125 304.722656 317.457031 303.867188 317.4375 C 303.003906 317.453125 302.101562 317.1875 301.210938 316.769531 C 301.117188 316.722656 301.019531 316.675781 300.925781 316.632812 C 300.898438 316.960938 300.851562 317.304688 300.78125 317.660156 C 300.585938 318.351562 300.320312 319.285156 299.273438 320.050781 C 298.761719 320.429688 298.070312 320.59375 297.566406 320.628906 C 297.183594 320.644531 296.820312 320.621094 296.472656 320.574219 C 295.789062 320.46875 295.214844 320.269531 294.699219 320.078125 C 292.699219 319.238281 291.433594 318.519531 289.90625 318.523438 C 288.175781 318.488281 286.222656 318.6875 284.289062 318.675781 C 283.3125 318.675781 282.324219 318.640625 281.308594 318.527344 C 280.800781 318.460938 280.285156 318.375 279.753906 318.25 C 279.46875 318.167969 279.222656 318.101562 278.960938 317.84375 C 278.84375 317.707031 278.738281 317.59375 278.652344 317.402344 C 278.582031 317.191406 278.523438 317.003906 278.558594 316.769531 C 279.382812 316.339844 279.609375 316.132812 280.046875 316.191406 C 280.460938 316.1875 280.894531 316.152344 281.339844 316.105469 C 282.230469 316.011719 283.148438 315.859375 284.074219 315.726562 C 285.941406 315.453125 287.773438 315.167969 289.855469 315.023438 C 292.207031 314.84375 294.503906 315.855469 296.027344 316.367188 C 296.367188 316.476562 296.660156 316.542969 296.90625 316.578125 C 296.949219 316.359375 296.984375 316.101562 296.980469 315.789062 C 297.003906 314.289062 296.617188 312.511719 296.09375 310.847656 C 295.960938 310.425781 295.816406 310.003906 295.65625 309.589844 L 295.539062 309.289062 L 295.429688 309.09375 C 295.351562 308.964844 295.3125 308.816406 295.21875 308.6875 C 294.816406 308.175781 294.265625 307.644531 293.535156 307.242188 C 292.105469 306.417969 290.316406 305.96875 288.53125 305.648438 C 288.066406 305.5625 287.589844 305.484375 287.121094 305.402344 C 286.585938 306.171875 286.058594 306.933594 285.441406 307.714844 C 284.601562 308.796875 283.671875 309.769531 282.699219 310.675781 C 280.765625 312.5 278.628906 313.988281 276.460938 315.351562 C 274.285156 316.707031 272.066406 317.960938 269.808594 319.097656 C 260.738281 323.578125 251.359375 326.980469 242.160156 330.675781 C 237.566406 332.53125 232.976562 334.371094 228.53125 336.464844 C 226.308594 337.5 224.113281 338.59375 222.011719 339.816406 C 219.828125 340.996094 218.175781 342.628906 215.527344 343.429688 C 216.375 340.6875 218.769531 339.367188 220.789062 337.898438 C 222.894531 336.472656 225.074219 335.1875 227.28125 333.972656 C 231.738281 331.632812 236.292969 329.546875 240.882812 327.597656 C 250.039062 323.660156 259.292969 320.019531 267.988281 315.527344 C 272.320312 313.308594 276.574219 310.859375 280.054688 307.773438 C 280.921875 307.003906 281.734375 306.191406 282.4375 305.328125 C 282.714844 305 282.988281 304.632812 283.261719 304.269531 C 283.183594 304.175781 283.105469 304.09375 283.027344 303.976562 C 283.386719 303.417969 283.769531 303.183594 284.148438 303.089844 C 284.199219 303.015625 284.253906 302.941406 284.308594 302.871094 C 283.300781 303.484375 282.269531 304.054688 281.175781 304.472656 C 279.53125 305.144531 277.804688 305.601562 276.109375 306.105469 C 275.261719 306.355469 274.453125 306.699219 273.617188 306.980469 C 273.199219 307.117188 272.769531 307.222656 272.328125 307.308594 L 271.660156 307.40625 C 271.4375 307.4375 271.164062 307.347656 270.699219 306.753906 C 270.640625 306 270.773438 305.75 270.957031 305.621094 L 271.503906 305.234375 C 271.875 305 272.253906 304.773438 272.644531 304.589844 C 273.429688 304.207031 274.230469 303.882812 274.992188 303.457031 C 276.511719 302.601562 277.984375 301.65625 279.515625 300.871094 C 281.019531 300.035156 282.648438 299.484375 284.214844 298.8125 C 284.992188 298.480469 285.746094 298.109375 286.523438 297.796875 L 287.6875 297.339844 C 287.867188 297.28125 288.019531 297.214844 288.175781 297.148438 L 288.683594 296.355469 C 290.148438 293.972656 291.523438 291.53125 292.820312 289.046875 C 292.09375 289.570312 291.347656 290.054688 290.597656 290.515625 C 288.046875 292.046875 285.433594 293.414062 282.667969 294.355469 C 279.925781 295.34375 277.097656 296.035156 274.289062 296.71875 L 270.109375 297.835938 C 269.410156 298.011719 268.699219 298.148438 267.980469 298.257812 L 266.898438 298.390625 C 266.539062 298.433594 266.140625 298.347656 265.613281 297.738281 C 265.78125 296.949219 266.070312 296.679688 266.402344 296.539062 L 267.390625 296.105469 C 268.050781 295.839844 268.714844 295.582031 269.390625 295.359375 C 270.742188 294.921875 272.089844 294.480469 273.417969 293.976562 C 276.0625 292.933594 278.640625 291.75 281.230469 290.664062 C 283.796875 289.527344 286.4375 288.613281 288.933594 287.4375 C 290.175781 286.851562 291.363281 286.1875 292.511719 285.515625 C 293.082031 285.175781 293.652344 284.835938 294.167969 284.453125 C 294.449219 284.273438 294.683594 284.070312 294.933594 283.867188 C 295.070312 283.75 295.21875 283.660156 295.46875 283.621094 C 295.503906 283.546875 295.542969 283.46875 295.578125 283.394531 C 296.558594 281.152344 297.519531 278.894531 298.289062 276.585938 C 298.671875 275.433594 299.03125 274.273438 299.335938 273.117188 C 299.46875 272.5625 299.613281 271.957031 299.71875 271.390625 L 299.253906 271.996094 C 298.664062 272.691406 297.988281 273.285156 297.324219 273.902344 C 296.671875 274.542969 295.914062 275.015625 295.199219 275.5625 C 294.492188 276.117188 293.769531 276.648438 293.015625 277.125 C 290.105469 279.210938 287.023438 281.03125 283.816406 282.550781 C 280.625 284.121094 277.234375 285.1875 273.859375 286.195312 C 272.167969 286.695312 270.480469 287.191406 268.753906 287.5625 C 267.898438 287.765625 267.019531 287.90625 266.152344 288.054688 L 264.835938 288.238281 C 264.398438 288.316406 263.925781 288.253906 263.300781 287.566406 C 263.523438 286.667969 263.886719 286.378906 264.292969 286.230469 L 265.492188 285.722656 L 267.894531 284.734375 L 272.722656 282.886719 C 275.925781 281.636719 279.046875 280.207031 282.203125 278.929688 C 285.34375 277.605469 288.527344 276.339844 291.488281 274.6875 C 292.238281 274.285156 292.953125 273.835938 293.648438 273.359375 C 294.335938 272.878906 295.066406 272.433594 295.699219 271.894531 C 296.34375 271.367188 297.0625 270.910156 297.714844 270.386719 L 298.683594 269.59375 C 298.96875 269.363281 299.335938 269.214844 299.972656 269.273438 C 299.992188 269.21875 300.007812 269.160156 300.035156 269.109375 C 301.097656 267.191406 302.105469 265.175781 302.996094 263.160156 C 303.875 261.160156 304.734375 259.054688 305.019531 257.097656 C 305.078125 256.625 305.085938 256.164062 305.023438 255.886719 C 304.929688 255.589844 305.039062 255.726562 304.632812 255.5 C 303.980469 255.226562 302.933594 255.347656 301.957031 255.609375 C 300.953125 255.867188 299.976562 256.328125 298.96875 256.75 C 297.945312 257.160156 296.898438 257.546875 295.664062 257.746094 C 296.925781 255.558594 299.074219 254.476562 301.359375 253.648438 C 302.523438 253.289062 303.820312 252.921875 305.347656 253.359375 C 305.734375 253.535156 306.058594 253.578125 306.519531 253.984375 C 306.921875 254.347656 307.160156 254.808594 307.28125 255.210938 C 307.527344 256.027344 307.503906 256.71875 307.445312 257.367188 C 307.128906 259.90625 306.265625 262.042969 305.402344 264.199219 C 304.535156 266.226562 303.585938 268.171875 302.546875 270.117188 C 302.53125 271.53125 302.253906 272.597656 302.015625 273.773438 C 301.714844 275.027344 301.359375 276.253906 300.984375 277.464844 C 300.214844 279.886719 299.339844 282.253906 298.398438 284.597656 C 296.476562 289.261719 294.273438 293.808594 291.742188 298.183594 L 289.777344 301.429688 L 288.6875 303.078125 C 288.765625 303.089844 288.84375 303.089844 288.917969 303.097656 C 290.253906 303.28125 291.59375 303.539062 292.933594 303.960938 C 292.980469 303.882812 293.027344 303.8125 293.085938 303.742188 C 293.300781 303.53125 293.496094 303.308594 293.683594 303.050781 C 294.078125 302.585938 294.433594 302.054688 294.800781 301.53125 C 295.539062 300.480469 296.191406 299.316406 296.746094 298.097656 C 297.808594 295.625 298.566406 293 299.414062 290.410156 C 300.210938 287.800781 301.230469 285.25 302.109375 282.636719 C 302.5625 281.332031 302.960938 280.011719 303.4375 278.710938 C 303.671875 278.058594 303.933594 277.410156 304.191406 276.761719 L 304.59375 275.792969 C 304.707031 275.464844 304.960938 275.171875 305.835938 275.007812 C 306.5625 275.519531 306.660156 275.90625 306.621094 276.257812 L 306.546875 277.324219 C 306.484375 278.03125 306.410156 278.734375 306.304688 279.433594 C 306.101562 280.832031 305.785156 282.203125 305.480469 283.582031 C 304.855469 286.332031 304.222656 289.101562 303.148438 291.742188 C 302.121094 294.394531 300.800781 296.953125 299.296875 299.429688 C 298.558594 300.671875 297.792969 301.917969 296.855469 303.09375 C 296.378906 303.671875 295.839844 304.21875 295.199219 304.6875 C 295.15625 304.722656 295.097656 304.746094 295.050781 304.78125 C 295.972656 305.203125 296.882812 305.816406 297.6875 306.664062 C 297.902344 306.894531 298.074219 307.183594 298.261719 307.449219 L 298.527344 307.859375 L 298.710938 308.207031 C 298.945312 308.660156 299.164062 309.121094 299.371094 309.589844 C 299.410156 309.679688 299.445312 309.769531 299.480469 309.859375 C 299.601562 309.820312 299.726562 309.773438 299.847656 309.730469 C 300.460938 309.566406 301.066406 309.339844 301.644531 309.046875 C 302.789062 308.410156 303.785156 307.523438 304.863281 306.71875 C 305.398438 306.304688 305.945312 305.890625 306.574219 305.507812 C 306.890625 305.3125 307.207031 305.125 307.613281 304.925781 C 307.625 304.925781 307.644531 304.914062 307.664062 304.902344 C 307.683594 304.878906 307.699219 304.855469 307.71875 304.824219 C 308.285156 303.882812 308.835938 302.496094 309.328125 301.222656 C 310.332031 298.605469 311.203125 295.886719 312.144531 293.199219 L 313.566406 289.15625 L 314.296875 287.136719 C 314.523438 286.457031 314.890625 285.816406 315.851562 285.332031 C 316.449219 286.230469 316.441406 286.972656 316.296875 287.675781 Z M 295.851562 226.210938 C 294.832031 226.199219 293.683594 227.042969 293.289062 228.097656 C 292.890625 229.148438 293.390625 230.011719 294.410156 230.023438 C 295.429688 230.03125 296.574219 229.1875 296.972656 228.136719 C 297.371094 227.082031 296.867188 226.222656 295.851562 226.210938 Z M 288.785156 226.640625 C 288.007812 226.632812 287.132812 227.277344 286.828125 228.082031 C 286.523438 228.886719 286.90625 229.542969 287.683594 229.550781 C 288.460938 229.558594 289.335938 228.914062 289.640625 228.113281 C 289.945312 227.308594 289.5625 226.648438 288.785156 226.640625 Z M 298.875 224.117188 C 300.660156 224.128906 301.851562 225.96875 301.128906 227.605469 L 299.746094 230.722656 C 299.34375 231.636719 298.429688 232.21875 297.429688 232.199219 L 284.101562 231.949219 C 282.386719 231.914062 281.21875 230.199219 281.824219 228.59375 L 282.933594 225.644531 C 283.296875 224.671875 284.230469 224.027344 285.269531 224.035156 Z M 115.359375 155.730469 C 117.824219 134.769531 118.441406 127.988281 118.441406 127.988281 C 118.441406 127.988281 112.929688 119.078125 113.933594 100.058594 C 113.84375 100.03125 113.761719 100.019531 113.667969 99.992188 C 106.8125 97.933594 107.289062 86.621094 110.910156 79.089844 C 111.042969 78.8125 111.179688 78.539062 111.320312 78.269531 C 111.34375 78.230469 111.367188 78.1875 111.390625 78.144531 C 111.53125 77.882812 111.679688 77.621094 111.828125 77.371094 C 111.84375 77.347656 111.859375 77.320312 111.875 77.296875 C 112.324219 76.550781 112.808594 75.867188 113.320312 75.253906 C 113.378906 75.1875 113.433594 75.113281 113.488281 75.050781 C 113.609375 74.910156 113.738281 74.777344 113.863281 74.648438 C 113.957031 74.546875 114.054688 74.445312 114.152344 74.347656 C 114.265625 74.238281 114.378906 74.132812 114.496094 74.03125 C 114.613281 73.925781 114.730469 73.824219 114.851562 73.726562 C 114.957031 73.644531 115.0625 73.558594 115.167969 73.480469 C 115.3125 73.375 115.460938 73.277344 115.605469 73.183594 C 115.695312 73.128906 115.78125 73.070312 115.867188 73.019531 C 116.101562 72.882812 116.335938 72.761719 116.578125 72.660156 C 116.582031 72.65625 116.585938 72.65625 116.59375 72.652344 C 116.847656 72.546875 117.101562 72.460938 117.363281 72.394531 C 117.414062 72.382812 117.46875 72.378906 117.519531 72.363281 C 117.726562 72.320312 117.933594 72.285156 118.140625 72.265625 C 118.214844 72.257812 118.285156 72.257812 118.355469 72.253906 C 118.550781 72.246094 118.746094 72.246094 118.941406 72.265625 C 119.570312 72.316406 120.203125 72.480469 120.84375 72.800781 C 128.269531 76.511719 127.703125 81.519531 126.984375 83.742188 C 127.273438 83.796875 127.550781 83.859375 127.84375 83.914062 C 136.171875 85.53125 146.515625 83.113281 157.191406 78.714844 C 159.085938 78.71875 161 78.601562 162.949219 78.75 C 163.941406 78.820312 164.929688 78.960938 165.933594 79.066406 L 167.453125 79.210938 L 168.222656 79.273438 C 168.472656 79.316406 168.753906 79.226562 169.296875 78.554688 C 169.347656 77.695312 169.136719 77.425781 168.890625 77.304688 L 168.160156 76.890625 C 167.667969 76.636719 167.164062 76.394531 166.648438 76.199219 C 165.902344 75.902344 165.132812 75.695312 164.355469 75.507812 C 178.5 68.683594 192.5625 59.21875 202.695312 51.800781 C 209.210938 62.234375 215.171875 74.253906 216.453125 84.839844 C 217.34375 92.191406 234.917969 47.933594 224.003906 29.824219 C 214.835938 14.613281 203.984375 8.90625 195.582031 8.730469 C 167.878906 -11.179688 129.238281 6.441406 110.222656 26.886719 C 101.785156 35.433594 93.011719 48.769531 85.773438 69.585938 C 72.929688 106.507812 69.644531 149.6875 69.820312 184 C 80.523438 180.648438 89.816406 179.117188 95.304688 178.433594 C 104.003906 172.1875 114.105469 166.390625 115.359375 155.730469 Z M 207.183594 127.347656 C 206.914062 150.355469 209.335938 170.152344 212.742188 186.429688 C 199.9375 183.6875 186.023438 181.363281 172.253906 179.628906 C 172.917969 170.875 174.84375 162.816406 174.84375 162.816406 C 191.226562 155.8125 201.160156 141.859375 207.183594 127.347656" fill="#312e5f"/></g><g id="change4_1"><path d="M 297.488281 185.410156 C 297.429688 185.308594 297.421875 185.214844 297.320312 185.109375 C 297.207031 185 296.972656 184.882812 296.542969 184.738281 C 296.09375 184.785156 295.839844 184.851562 295.703125 184.933594 C 295.585938 185.015625 295.554688 185.105469 295.476562 185.191406 C 295.351562 185.367188 295.242188 185.542969 295.179688 185.726562 C 295.039062 186.089844 295.03125 186.46875 294.980469 186.839844 C 294.894531 187.585938 294.804688 188.335938 294.746094 189.085938 C 294.664062 189.832031 294.652344 190.589844 294.664062 191.347656 C 294.675781 191.726562 294.691406 192.105469 294.722656 192.488281 C 294.726562 192.867188 294.71875 193.242188 295.5625 193.714844 C 296.488281 193.4375 296.5625 193.066406 296.648438 192.699219 C 296.761719 192.332031 296.859375 191.964844 296.949219 191.597656 C 297.125 190.859375 297.277344 190.117188 297.359375 189.371094 C 297.464844 188.625 297.535156 187.875 297.617188 187.128906 C 297.644531 186.753906 297.71875 186.382812 297.664062 185.996094 C 297.640625 185.804688 297.570312 185.609375 297.488281 185.410156 Z M 314.191406 187.621094 C 314.132812 187.476562 313.972656 187.269531 313.644531 186.960938 C 313.214844 186.808594 312.957031 186.757812 312.800781 186.773438 C 312.660156 186.796875 312.59375 186.863281 312.488281 186.90625 C 312.304688 187.011719 312.128906 187.125 311.996094 187.261719 C 311.71875 187.527344 311.550781 187.859375 311.347656 188.171875 C 310.960938 188.804688 310.5625 189.433594 310.195312 190.082031 C 309.808594 190.71875 309.480469 191.386719 309.175781 192.070312 C 309.023438 192.414062 308.882812 192.761719 308.746094 193.117188 C 308.59375 193.460938 308.425781 193.792969 308.992188 194.574219 C 309.949219 194.722656 310.167969 194.421875 310.402344 194.128906 C 310.65625 193.847656 310.902344 193.5625 311.136719 193.269531 C 311.605469 192.683594 312.050781 192.085938 312.4375 191.449219 C 312.847656 190.828125 313.226562 190.1875 313.613281 189.554688 C 313.796875 189.230469 314.015625 188.929688 314.128906 188.5625 C 314.1875 188.382812 314.207031 188.175781 314.214844 187.960938 C 314.207031 187.847656 314.238281 187.757812 314.191406 187.621094 Z M 309.082031 177.679688 L 306.957031 184.207031 C 306.253906 186.382812 305.46875 188.535156 304.683594 190.6875 L 303.457031 193.898438 C 303.066406 194.972656 302.679688 196.050781 301.480469 196.867188 C 300.988281 195.503906 301.304688 194.402344 301.621094 193.304688 L 302.507812 189.980469 C 303.132812 187.78125 303.753906 185.574219 304.457031 183.398438 L 306.558594 176.863281 C 306.914062 175.773438 307.257812 174.683594 307.6875 173.621094 C 307.902344 173.089844 308.167969 172.574219 308.441406 172.058594 C 308.753906 171.558594 308.847656 170.988281 309.933594 170.738281 C 310.667969 171.578125 310.410156 172.097656 310.367188 172.683594 C 310.289062 173.257812 310.199219 173.832031 310.066406 174.390625 C 309.789062 175.503906 309.433594 176.589844 309.082031 177.679688" fill="#65cbc3"/></g><g clip-path="url(#a)" id="change5_1"><path d="M 266.292969 187.460938 C 266.058594 186.738281 265.804688 186.027344 265.484375 185.347656 C 265.191406 184.652344 264.863281 183.976562 264.542969 183.296875 C 264.371094 182.960938 264.242188 182.605469 263.996094 182.304688 C 263.878906 182.152344 263.714844 182.023438 263.542969 181.894531 C 263.441406 181.839844 263.382812 181.761719 263.242188 181.722656 C 263.089844 181.691406 262.828125 181.710938 262.386719 181.8125 C 262.023438 182.085938 261.84375 182.273438 261.765625 182.414062 C 261.707031 182.542969 261.730469 182.636719 261.707031 182.753906 C 261.695312 182.964844 261.691406 183.175781 261.730469 183.363281 C 261.804688 183.746094 261.992188 184.074219 262.140625 184.417969 C 262.457031 185.101562 262.765625 185.785156 263.105469 186.457031 C 263.425781 187.140625 263.804688 187.792969 264.210938 188.433594 C 264.414062 188.753906 264.628906 189.070312 264.851562 189.378906 C 265.054688 189.699219 265.238281 190.027344 266.207031 189.992188 C 266.855469 189.273438 266.722656 188.921875 266.609375 188.558594 C 266.511719 188.1875 266.40625 187.820312 266.292969 187.460938 Z M 279.164062 175.394531 C 279.097656 175.300781 279.074219 175.207031 278.96875 175.113281 C 278.839844 175.019531 278.597656 174.925781 278.152344 174.832031 C 277.710938 174.925781 277.464844 175.019531 277.339844 175.109375 C 277.230469 175.203125 277.207031 175.296875 277.140625 175.390625 C 277.035156 175.574219 276.945312 175.761719 276.902344 175.945312 C 276.804688 176.316406 276.835938 176.6875 276.824219 177.0625 C 276.816406 177.804688 276.808594 178.546875 276.828125 179.289062 C 276.828125 180.035156 276.894531 180.777344 276.988281 181.523438 C 277.039062 181.894531 277.097656 182.265625 277.164062 182.636719 C 277.214844 183.011719 277.242188 183.382812 278.132812 183.753906 C 279.023438 183.386719 279.058594 183.015625 279.105469 182.640625 C 279.175781 182.269531 279.238281 181.898438 279.285156 181.527344 C 279.382812 180.785156 279.453125 180.039062 279.457031 179.296875 C 279.484375 178.554688 279.476562 177.8125 279.472656 177.066406 C 279.464844 176.695312 279.496094 176.324219 279.402344 175.953125 C 279.359375 175.765625 279.265625 175.578125 279.164062 175.394531 Z M 272.429688 182.671875 C 271.984375 180.425781 271.539062 178.179688 271.011719 175.949219 L 269.4375 169.269531 C 269.171875 168.15625 268.914062 167.039062 268.570312 165.945312 C 268.398438 165.398438 268.175781 164.863281 267.945312 164.332031 C 267.675781 163.808594 267.625 163.230469 266.5625 162.894531 C 265.765625 163.671875 265.980469 164.210938 265.972656 164.796875 C 266.007812 165.378906 266.050781 165.957031 266.140625 166.523438 C 266.324219 167.65625 266.597656 168.765625 266.859375 169.878906 L 268.453125 176.558594 C 268.984375 178.785156 269.59375 180.992188 270.203125 183.199219 L 271.171875 186.496094 C 271.472656 187.601562 271.773438 188.707031 272.902344 189.613281 C 273.503906 188.296875 273.273438 187.171875 273.050781 186.050781 Z M 320.660156 223.253906 C 321.035156 223.175781 321.402344 223.085938 321.769531 222.988281 C 322.503906 222.789062 323.222656 222.5625 323.917969 222.277344 C 324.625 222.011719 325.316406 221.714844 326.011719 221.425781 C 326.351562 221.273438 326.714844 221.15625 327.023438 220.925781 C 327.183594 220.8125 327.320312 220.65625 327.453125 220.488281 C 327.515625 220.390625 327.59375 220.335938 327.640625 220.199219 C 327.679688 220.046875 327.671875 219.785156 327.589844 219.339844 C 327.332031 218.964844 327.152344 218.773438 327.015625 218.691406 C 326.890625 218.628906 326.792969 218.644531 326.679688 218.617188 C 326.46875 218.597656 326.257812 218.582031 326.070312 218.613281 C 325.683594 218.667969 325.347656 218.84375 324.996094 218.976562 C 324.300781 219.261719 323.601562 219.539062 322.914062 219.851562 C 322.222656 220.136719 321.550781 220.488281 320.894531 220.863281 C 320.5625 221.054688 320.238281 221.253906 319.917969 221.460938 C 319.589844 221.648438 319.253906 221.820312 319.246094 222.789062 C 319.933594 223.46875 320.292969 223.351562 320.660156 223.253906 Z M 333.34375 234.367188 C 333.164062 234.253906 332.980469 234.152344 332.796875 234.101562 C 332.429688 233.988281 332.058594 234.003906 331.6875 233.976562 C 330.945312 233.9375 330.203125 233.890625 329.457031 233.882812 C 328.714844 233.847656 327.96875 233.882812 327.222656 233.941406 C 326.847656 233.972656 326.476562 234.015625 326.101562 234.066406 C 325.726562 234.097656 325.355469 234.109375 324.941406 234.984375 C 325.269531 235.890625 325.640625 235.9375 326.007812 236.003906 C 326.375 236.09375 326.746094 236.167969 327.113281 236.234375 C 327.851562 236.367188 328.59375 236.46875 329.335938 236.503906 C 330.074219 236.566406 330.820312 236.589844 331.5625 236.621094 C 331.933594 236.628906 332.304688 236.679688 332.679688 236.601562 C 332.867188 236.566406 333.058594 236.484375 333.246094 236.390625 C 333.34375 236.324219 333.4375 236.308594 333.535156 236.203125 C 333.632812 236.082031 333.738281 235.84375 333.851562 235.402344 C 333.78125 234.957031 333.699219 234.707031 333.613281 234.578125 C 333.523438 234.464844 333.433594 234.4375 333.34375 234.367188 Z M 344.425781 223.6875 C 343.84375 223.695312 343.265625 223.710938 342.695312 223.777344 C 341.554688 223.910156 340.433594 224.132812 339.308594 224.34375 L 332.566406 225.636719 C 330.316406 226.066406 328.085938 226.578125 325.851562 227.085938 L 322.515625 227.902344 C 321.398438 228.15625 320.28125 228.40625 319.324219 229.492188 C 320.613281 230.152344 321.746094 229.976562 322.875 229.800781 L 326.28125 229.335938 C 328.546875 228.988281 330.808594 228.644531 333.058594 228.21875 L 339.804688 226.949219 C 340.925781 226.730469 342.050781 226.523438 343.160156 226.230469 C 343.714844 226.082031 344.261719 225.886719 344.804688 225.679688 C 345.339844 225.433594 345.914062 225.410156 346.300781 224.363281 C 345.558594 223.527344 345.011719 223.722656 344.425781 223.6875 Z M 24.347656 314.957031 C 23.546875 313.425781 22.746094 311.894531 21.875 310.402344 L 19.265625 305.929688 C 18.824219 305.183594 18.394531 304.433594 17.890625 303.730469 C 17.632812 303.378906 17.335938 303.054688 17.03125 302.734375 C 16.6875 302.433594 16.542969 302.019531 15.5 302.128906 C 14.894531 302.984375 15.1875 303.3125 15.28125 303.757812 C 15.410156 304.183594 15.550781 304.601562 15.730469 304.996094 C 16.097656 305.78125 16.542969 306.523438 16.976562 307.269531 L 19.605469 311.730469 C 20.480469 313.222656 21.425781 314.667969 22.371094 316.113281 L 23.835938 318.257812 C 24.308594 318.984375 24.777344 319.710938 25.980469 320.003906 C 26.3125 318.8125 25.90625 318.046875 25.503906 317.28125 Z M 23.152344 222.601562 C 22.210938 223.878906 21.363281 225.214844 20.53125 226.5625 C 18.90625 229.28125 17.480469 232.109375 16.167969 234.992188 C 13.539062 240.753906 11.425781 246.765625 9.960938 252.953125 C 8.507812 259.136719 7.839844 265.546875 8.203125 271.917969 C 8.355469 275.105469 8.894531 278.265625 9.589844 281.371094 C 10.28125 284.476562 11.363281 287.535156 13.34375 290.109375 C 13.007812 286.867188 12.066406 283.988281 11.476562 280.960938 C 10.921875 277.941406 10.519531 274.890625 10.488281 271.816406 C 10.296875 265.679688 11.125 259.542969 12.503906 253.546875 C 13.933594 247.558594 16 241.707031 18.578125 236.089844 C 19.859375 233.277344 21.269531 230.523438 22.703125 227.78125 L 24.855469 223.660156 C 25.570312 222.277344 26.46875 221.039062 26.597656 219.21875 C 24.898438 219.941406 24.097656 221.335938 23.152344 222.601562 Z M 97.390625 51.5625 C 96.742188 52.6875 96.144531 53.839844 95.5625 55 C 94.421875 57.332031 93.398438 59.714844 92.382812 62.101562 C 90.355469 66.878906 88.453125 71.707031 86.660156 76.585938 C 84.839844 81.449219 83.308594 86.433594 82.011719 91.484375 C 81.355469 94.007812 80.867188 96.582031 80.398438 99.15625 C 80.234375 100.460938 80.042969 101.761719 79.980469 103.074219 C 80.007812 104.402344 80.15625 105.742188 80.53125 107.03125 C 81.074219 105.742188 81.332031 104.5 81.570312 103.253906 C 81.890625 102.007812 82.082031 100.753906 82.296875 99.503906 C 82.871094 97.015625 83.460938 94.53125 84.21875 92.078125 C 85.652344 87.160156 87.335938 82.308594 89.113281 77.480469 C 90.898438 72.660156 92.792969 67.871094 94.820312 63.136719 C 95.828125 60.765625 96.863281 58.40625 97.835938 56.019531 C 98.308594 54.820312 98.785156 53.621094 99.214844 52.402344 C 99.636719 51.175781 100.253906 50.050781 99.949219 48.472656 C 98.527344 49.222656 98.054688 50.441406 97.390625 51.5625 Z M 122.054688 22.492188 C 121.789062 22.644531 121.527344 22.808594 121.277344 22.980469 C 120.773438 23.320312 120.289062 23.679688 119.855469 24.089844 C 119.402344 24.484375 118.972656 24.902344 118.535156 25.316406 C 118.324219 25.527344 118.085938 25.710938 117.933594 25.988281 C 117.851562 26.121094 117.808594 26.289062 117.769531 26.46875 C 117.761719 26.570312 117.71875 26.636719 117.738281 26.765625 C 117.773438 26.910156 117.886719 27.140625 118.136719 27.515625 C 118.492188 27.785156 118.714844 27.910156 118.855469 27.953125 C 118.984375 27.980469 119.054688 27.945312 119.15625 27.941406 C 119.335938 27.914062 119.507812 27.878906 119.644531 27.808594 C 119.929688 27.671875 120.128906 27.441406 120.351562 27.246094 C 120.789062 26.835938 121.234375 26.433594 121.65625 26.003906 C 122.089844 25.59375 122.480469 25.132812 122.851562 24.652344 C 123.035156 24.410156 123.214844 24.160156 123.386719 23.90625 C 123.570312 23.664062 123.765625 23.4375 123.375 22.582031 C 122.546875 22.140625 122.304688 22.320312 122.054688 22.492188 Z M 171.242188 5.898438 C 173.464844 6.113281 175.722656 6.390625 177.773438 7.632812 C 175.453125 8.140625 173.292969 7.953125 171.09375 7.824219 C 168.902344 7.71875 166.710938 7.6875 164.519531 7.746094 C 160.144531 7.828125 155.789062 8.230469 151.527344 9.023438 C 147.269531 9.808594 143.109375 11.113281 139.339844 13.113281 C 137.46875 14.128906 135.691406 15.292969 134.03125 16.605469 C 133.21875 17.277344 132.367188 17.925781 131.59375 18.660156 C 130.746094 19.347656 130.222656 20.253906 128.769531 20.578125 C 128.664062 19.144531 129.40625 18.222656 130.105469 17.316406 C 130.761719 16.351562 131.59375 15.539062 132.40625 14.714844 C 134.113281 13.132812 136.074219 11.867188 138.097656 10.773438 C 142.179688 8.625 146.59375 7.269531 151.046875 6.453125 C 155.503906 5.597656 160.035156 5.378906 164.523438 5.457031 C 166.769531 5.519531 169.011719 5.667969 171.242188 5.898438" fill="#f1e510"/></g></g></svg>