<svg xmlns="http://www.w3.org/2000/svg" xmlns:xlink="http://www.w3.org/1999/xlink" preserveAspectRatio="xMidYMid meet" version="1.0" viewBox="-1.1 -0.2 436.2 490.7" zoomAndPan="magnify" style="fill: rgb(0, 0, 0);" role="img" aria-label="Woman on Computer"><defs><clipPath id="__id34_s9biryfhze"><path d="M 29 6 L 435.128906 6 L 435.128906 490.460938 L 29 490.460938 Z M 29 6"></path></clipPath></defs><g><g id="__id35_s9biryfhze"><path d="M 65.800781 101.324219 L 98.179688 95.78125 L 103.296875 83.324219 C 103.296875 83.324219 111.523438 83.652344 122.761719 84.101562 C 133.996094 84.546875 135.152344 80.773438 134.523438 71.304688 C 133.898438 61.835938 133.898438 61.835938 133.898438 61.835938 L 141.648438 58.925781 C 141.648438 58.925781 136.128906 56.296875 131.527344 45.660156 C 126.925781 35.027344 127.195312 18.15625 109.382812 11.21875 C 91.574219 4.277344 65.59375 15.703125 62.621094 34.878906 C 59.648438 54.054688 77.386719 72.847656 77.386719 72.847656 Z M 396.773438 55.738281 L 226.085938 56.027344 C 224.226562 56.03125 222.644531 57.375 222.34375 59.207031 L 202.96875 176.222656 C 202.660156 178.0625 204.082031 179.734375 205.945312 179.734375 L 380.109375 179.734375 C 381.605469 179.734375 382.878906 178.640625 383.097656 177.160156 L 400.539062 60.097656 C 400.882812 57.800781 399.097656 55.734375 396.773438 55.738281 Z M 303.761719 335.03125 L 322.4375 359.730469 L 298.941406 373.589844 L 288.097656 435.035156 L 239.902344 435.035156 L 251.953125 356.117188 L 232.675781 335.636719 C 232.675781 335.636719 153.152344 386.238281 79.054688 386.238281 C 4.953125 386.238281 1.339844 323.585938 1.339844 323.585938 L 103.148438 253.703125 L 236.890625 246.472656 L 256.769531 272.980469 C 256.769531 272.980469 275.445312 267.558594 292.917969 285.027344 C 310.390625 302.5 303.761719 335.03125 303.761719 335.03125" style="fill: rgb(255, 255, 255);"></path></g><g clip-path="url(#__id34_s9biryfhze)" id="__id36_s9biryfhze"><path d="M 128.253906 46.664062 C 127.585938 46.664062 127.046875 47.207031 127.046875 47.871094 C 127.046875 48.535156 127.585938 49.074219 128.253906 49.074219 C 128.917969 49.074219 129.457031 48.535156 129.457031 47.871094 C 129.457031 47.207031 128.917969 46.664062 128.253906 46.664062 Z M 408.285156 402.804688 C 396.839844 401.148438 361.445312 397.984375 361.445312 397.984375 L 331.019531 405.816406 L 330.570312 409.734375 C 330.570312 409.734375 332.527344 411.992188 335.089844 414.855469 C 337.648438 417.714844 345.480469 417.867188 352.710938 417.867188 C 359.9375 417.867188 363.253906 417.867188 381.625 417.867188 C 400 417.867188 419.730469 404.464844 408.285156 402.804688 Z M 301.050781 477.808594 L 256.167969 477.808594 C 256.167969 477.808594 252.402344 490.460938 260.988281 490.460938 L 323.277344 490.460938 C 324.636719 490.460938 325.359375 488.839844 324.441406 487.835938 C 315.957031 478.574219 301.050781 477.808594 301.050781 477.808594 Z M 66.972656 11.339844 C 54.320312 16.261719 49.023438 28.105469 50.5 36.40625 C 51.980469 44.703125 47.496094 51.359375 39.125 54.644531 C 30.753906 57.925781 26.050781 70 31.984375 77.472656 C 37.917969 84.941406 43.6875 86.378906 60.335938 87.242188 C 76.980469 88.105469 84.628906 82.78125 85.757812 74.589844 C 86.890625 66.394531 88.378906 59.21875 88.378906 59.21875 C 88.378906 59.21875 94.09375 62.058594 109.480469 54.230469 C 124.863281 46.402344 123.117188 19.601562 123.117188 19.601562 C 106.421875 -0.152344 79.632812 6.414062 66.972656 11.339844 Z M 401.816406 210.5 C 399.128906 208.277344 389.375 200.808594 380.472656 201.492188 C 371.703125 202.164062 369.738281 208.484375 369.332031 210.5 L 354.933594 210.5 L 354.933594 210.332031 C 354.933594 208.402344 353.613281 206.726562 351.742188 206.273438 L 324.503906 201.445312 C 317.539062 199.765625 312.300781 194.015625 311.273438 186.925781 L 309.9375 179.753906 L 297.738281 179.605469 L 296.585938 185.367188 C 295.363281 193.238281 289.152344 199.386719 281.269531 200.523438 L 244.09375 206.929688 C 242.226562 207.199219 240.8125 208.679688 240.566406 210.5 L 180.925781 210.5 L 180.925781 216.789062 L 435.136719 216.789062 L 435.136719 210.5 Z M 380.808594 159.953125 L 209.714844 159.953125 L 225.78125 58.34375 L 396.871094 58.34375 L 380.808594 159.953125" style="fill: rgb(16, 15, 13);"></path></g><g id="__id37_s9biryfhze"><path d="M 233.878906 235.027344 L 229.058594 259.125 C 229.058594 259.125 196.527344 277.199219 159.777344 288.644531 C 123.03125 300.089844 106.765625 269.367188 106.765625 269.367188 L 0.132812 324.789062 C 0.132812 324.789062 -1.070312 285.632812 3.75 259.125 C 8.566406 232.617188 21.21875 165.144531 26.039062 141.046875 C 30.859375 116.949219 38.085938 98.273438 59.171875 98.273438 C 80.257812 98.273438 70.617188 98.273438 115.199219 98.273438 C 159.777344 98.273438 169.417969 133.816406 163.394531 176.589844 C 157.371094 219.363281 154.355469 235.027344 154.355469 235.027344 L 233.878906 235.027344" style="fill: rgb(255, 222, 89);"></path></g><g id="__id38_s9biryfhze"><path d="M 284.886719 223.183594 C 282.878906 222.378906 275.046875 230.410156 275.046875 230.410156 C 275.046875 227.199219 269.222656 227.800781 257.976562 229.003906 C 250.871094 229.765625 245.855469 233.246094 243.121094 235.710938 C 243.214844 235.035156 243.21875 235.027344 243.21875 235.027344 L 233.878906 235.027344 L 229.460938 257.316406 C 229.460938 257.316406 236.402344 254.351562 240 248.871094 C 240.035156 248.875 240.066406 248.878906 240.101562 248.882812 C 258.578125 250.289062 273.839844 239.046875 279.664062 233.824219 C 285.488281 228.605469 286.894531 223.984375 284.886719 223.183594 Z M 283.578125 463.050781 C 284.796875 450.28125 288.097656 435.035156 288.097656 435.035156 L 260.6875 435.035156 C 260.6875 435.035156 261.140625 446.785156 260.234375 459.734375 C 259.332031 472.6875 256.167969 477.808594 256.167969 477.808594 L 301.050781 477.808594 C 301.050781 477.808594 282.375 475.699219 283.578125 463.050781 Z M 342.015625 386.238281 L 322.4375 359.730469 L 294.121094 376.601562 L 330.570312 409.734375 C 341.714844 400.09375 350.449219 404.613281 367.921875 404.3125 C 385.390625 404.011719 385.390625 400.09375 385.390625 400.09375 Z M 181.667969 225.789062 C 169.015625 219.96875 156.765625 221.171875 156.765625 221.171875 L 154.355469 235.230469 L 166.808594 235.230469 C 166.808594 235.230469 181.066406 258.523438 185.886719 258.523438 C 190.703125 258.523438 191.308594 252.496094 191.308594 252.496094 C 193.316406 247.679688 194.320312 231.613281 181.667969 225.789062 Z M 109.394531 36.347656 C 109.410156 36.015625 109.425781 35.695312 109.429688 35.335938 C 109.523438 17.855469 96.316406 1.253906 91.105469 0.84375 C 85.898438 0.433594 83.691406 0.347656 75.777344 2.242188 C 67.863281 4.136719 66.972656 11.339844 66.972656 11.339844 L 71.050781 9.890625 C 71.050781 9.890625 78.363281 2.949219 86.199219 13.109375 C 94.03125 23.265625 94.507812 36.550781 94.507812 36.550781 L 94.511719 36.554688 C 90.300781 39.054688 87.398438 43.5625 87.1875 48.820312 C 86.859375 57.074219 93.285156 64.035156 101.539062 64.363281 C 109.796875 64.691406 116.753906 58.265625 117.085938 50.011719 C 117.316406 44.179688 114.167969 39.003906 109.394531 36.347656 Z M 95.519531 89.035156 C 104.554688 95.863281 107.667969 98.273438 107.667969 98.273438 L 63.539062 98.425781 C 63.539062 98.425781 63.539062 98.273438 67.003906 90.644531 C 70.867188 82.136719 86.484375 82.210938 95.519531 89.035156" style="fill: rgb(255, 255, 255);"></path></g><g id="__id39_s9biryfhze"><path d="M 205.398438 177.425781 L 377.390625 177.425781 L 377.390625 176.21875 L 205.398438 176.21875 Z M 399.199219 57.449219 C 398.59375 56.746094 397.710938 56.34375 396.78125 56.34375 C 396.777344 56.34375 396.777344 56.34375 396.773438 56.34375 L 226.085938 56.632812 C 224.515625 56.632812 223.191406 57.757812 222.9375 59.304688 L 203.558594 176.320312 C 203.445312 177.023438 203.640625 177.734375 204.101562 178.277344 C 204.5625 178.820312 205.234375 179.132812 205.945312 179.132812 L 380.113281 179.132812 C 381.316406 179.132812 382.324219 178.265625 382.503906 177.070312 L 399.941406 60.011719 C 400.078125 59.089844 399.808594 58.15625 399.199219 57.449219 Z M 401.132812 60.1875 L 383.691406 177.25 C 383.425781 179.039062 381.921875 180.335938 380.113281 180.335938 L 205.945312 180.335938 C 204.878906 180.335938 203.871094 179.871094 203.183594 179.058594 C 202.492188 178.242188 202.199219 177.175781 202.371094 176.125 L 221.746094 59.109375 C 222.101562 56.976562 223.925781 55.429688 226.082031 55.425781 L 396.773438 55.136719 C 396.773438 55.136719 396.777344 55.136719 396.78125 55.136719 C 398.0625 55.136719 399.273438 55.691406 400.113281 56.664062 C 400.949219 57.632812 401.324219 58.917969 401.132812 60.1875 Z M 63.375 98.265625 C 63.675781 98.410156 64.035156 98.28125 64.175781 97.980469 L 67.546875 90.902344 C 68.546875 88.808594 70.199219 87.441406 71.929688 86.535156 C 71.972656 86.542969 72.011719 86.558594 72.054688 86.558594 C 72.277344 86.558594 72.480469 86.425781 72.585938 86.21875 C 73.53125 85.789062 74.476562 85.476562 75.335938 85.265625 C 81.652344 83.722656 89.800781 85.472656 95.15625 89.519531 C 100.285156 93.394531 104.507812 96.621094 107.199219 98.6875 C 107.308594 98.773438 107.4375 98.8125 107.566406 98.8125 C 107.746094 98.8125 107.925781 98.730469 108.046875 98.578125 C 108.246094 98.3125 108.199219 97.933594 107.933594 97.730469 C 106.082031 96.308594 103.492188 94.328125 100.394531 91.976562 L 103.695312 83.945312 L 122.738281 84.703125 C 128.101562 84.914062 131.300781 84.167969 133.140625 82.28125 C 135.265625 80.097656 135.480469 76.589844 135.125 71.265625 L 134.527344 62.242188 L 141.859375 59.492188 C 142.085938 59.40625 142.242188 59.195312 142.25 58.953125 C 142.261719 58.710938 142.125 58.488281 141.910156 58.382812 C 141.855469 58.359375 136.539062 55.730469 132.078125 45.421875 C 130.984375 42.898438 130.171875 40.007812 129.308594 36.949219 C 126.539062 27.144531 123.402344 16.03125 109.601562 10.65625 C 109.296875 10.535156 108.945312 10.6875 108.824219 11 C 108.703125 11.308594 108.855469 11.660156 109.164062 11.777344 C 122.40625 16.9375 125.457031 27.742188 128.148438 37.277344 C 129.023438 40.375 129.847656 43.300781 130.972656 45.902344 C 134.4375 53.902344 138.40625 57.457031 140.289062 58.792969 L 133.683594 61.269531 C 133.4375 61.363281 133.277344 61.609375 133.296875 61.871094 L 133.921875 71.34375 C 134.253906 76.328125 134.089844 79.578125 132.277344 81.441406 C 130.699219 83.0625 127.765625 83.699219 122.785156 83.5 L 103.320312 82.722656 C 103.054688 82.710938 102.835938 82.863281 102.738281 83.097656 L 99.402344 91.222656 C 98.285156 90.375 97.113281 89.484375 95.882812 88.554688 C 90.167969 84.238281 81.796875 82.449219 75.046875 84.09375 C 74.414062 84.25 73.816406 84.441406 73.234375 84.652344 L 77.945312 73.074219 C 78.070312 72.765625 77.921875 72.414062 77.613281 72.289062 C 77.304688 72.164062 76.957031 72.3125 76.828125 72.621094 L 71.660156 85.324219 C 69.273438 86.507812 67.496094 88.214844 66.460938 90.386719 L 63.089844 97.464844 C 62.945312 97.765625 63.074219 98.125 63.375 98.265625 Z M 70.738281 9.363281 C 71.289062 8.878906 73.988281 6.707031 77.742188 7 C 80.921875 7.246094 83.925781 9.175781 86.675781 12.742188 C 93.328125 21.363281 94.757812 32.324219 95.042969 35.578125 C 97.347656 34.390625 99.980469 33.757812 102.753906 33.863281 C 104.941406 33.953125 107.003906 34.492188 108.859375 35.386719 C 108.535156 18.523438 95.878906 1.820312 91.058594 1.445312 C 85.816406 1.03125 83.613281 0.984375 75.917969 2.828125 C 70.179688 4.203125 68.34375 8.449219 67.792969 10.410156 Z M 112.683594 39.675781 C 110.082031 36.855469 106.539062 35.222656 102.707031 35.066406 C 102.511719 35.058594 102.316406 35.054688 102.121094 35.054688 C 98.503906 35.054688 95.070312 36.398438 92.394531 38.867188 C 89.578125 41.46875 87.941406 45.011719 87.789062 48.84375 C 87.472656 56.753906 93.652344 63.445312 101.5625 63.761719 C 109.460938 64.089844 116.167969 57.898438 116.480469 49.984375 C 116.636719 46.152344 115.285156 42.492188 112.683594 39.675781 Z M 71.253906 10.460938 L 66.257812 12.230469 L 66.378906 11.265625 C 66.386719 11.1875 67.414062 3.628906 75.636719 1.65625 C 83.511719 -0.226562 85.773438 -0.175781 91.15625 0.242188 C 97.136719 0.710938 110.066406 18.914062 110.074219 36.03125 C 114.824219 38.859375 117.921875 44.136719 117.6875 50.035156 C 117.351562 58.398438 110.441406 64.976562 102.140625 64.976562 C 101.933594 64.976562 101.726562 64.972656 101.515625 64.964844 C 92.941406 64.625 86.242188 57.371094 86.585938 48.796875 C 86.796875 43.464844 89.675781 38.867188 93.886719 36.226562 C 93.742188 34.097656 92.652344 22.464844 85.71875 13.476562 C 83.191406 10.195312 80.472656 8.421875 77.648438 8.203125 C 74.035156 7.921875 71.492188 10.304688 71.46875 10.328125 Z M 155.070312 234.625 L 167.144531 234.625 L 167.320312 234.914062 C 172.433594 243.261719 181.429688 256.207031 185.210938 257.765625 C 184.421875 248.441406 176.460938 238.316406 176.378906 238.214844 L 177.320312 237.464844 C 177.671875 237.902344 185.714844 248.136719 186.433594 257.878906 C 189.894531 257.46875 190.601562 253.265625 190.695312 252.535156 C 188.535156 243.230469 183.28125 237.296875 183.226562 237.238281 L 184.125 236.433594 C 184.332031 236.664062 188.921875 241.847656 191.359375 250.3125 C 192.847656 243.980469 192.035156 231.226562 181.414062 226.335938 C 170.421875 221.277344 159.597656 221.601562 157.28125 221.738281 Z M 166.472656 235.832031 L 153.644531 235.832031 L 156.25 220.617188 L 156.707031 220.570312 C 156.835938 220.5625 169.265625 219.417969 181.917969 225.242188 C 194.472656 231.019531 194.144531 247.097656 191.898438 252.648438 C 191.640625 254.9375 190.074219 259.125 185.886719 259.125 C 181.03125 259.125 168.601562 239.289062 166.472656 235.832031 Z M 384.550781 400.457031 L 341.648438 386.753906 L 341.53125 386.597656 L 322.277344 360.527344 L 295.128906 376.699219 L 330.582031 408.933594 C 338.683594 402.136719 345.691406 402.609375 355.328125 403.261719 C 358.992188 403.511719 363.136719 403.800781 367.910156 403.710938 C 380.636719 403.488281 383.785156 401.367188 384.550781 400.457031 Z M 297.167969 380.183594 L 293.828125 377.148438 L 281.6875 383.964844 L 252.378906 357.316406 L 240.605469 434.433594 L 287.59375 434.433594 Z M 287.355469 435.640625 L 261.308594 435.640625 C 261.386719 438.246094 261.613281 448.625 260.835938 459.777344 C 260.125 469.988281 258.769531 475.339844 258.199219 477.226562 L 296.035156 478.140625 C 294.660156 477.664062 293.117188 477.039062 291.582031 476.234375 C 285.4375 473.007812 282.460938 468.429688 282.980469 462.992188 C 284.035156 451.914062 286.6875 438.835938 287.355469 435.640625 Z M 292.492188 285.457031 C 277.585938 270.550781 261.664062 272.585938 257.8125 273.359375 L 303.402344 333.5625 C 304.390625 327.289062 307.539062 300.503906 292.492188 285.457031 Z M 241.414062 243.679688 L 242.527344 235.628906 L 234.367188 235.628906 L 229.90625 256.53125 C 232.792969 255.03125 240.484375 250.433594 241.414062 243.679688 Z M 243.71875 235.796875 L 242.609375 243.84375 C 242.386719 245.46875 241.8125 246.964844 241.039062 248.328125 C 259.882812 249.371094 275.015625 237.183594 279.261719 233.375 C 283.679688 229.414062 285.394531 225.933594 285.121094 224.375 C 285.042969 223.941406 284.820312 223.804688 284.664062 223.742188 C 283.765625 223.386719 279.570312 226.636719 275.476562 230.832031 L 274.441406 231.890625 L 274.441406 231.746094 C 271.234375 234.089844 264.300781 236.113281 263.96875 236.210938 L 263.632812 235.050781 C 266.023438 234.359375 272.460938 232.183594 274.40625 230.203125 C 274.367188 229.898438 274.265625 229.644531 274.054688 229.449219 C 272.496094 228.054688 266.433594 228.703125 258.039062 229.601562 C 248.902344 230.582031 244.789062 234.5625 243.71875 235.796875 Z M 342.386719 385.726562 L 385.992188 399.65625 L 385.992188 400.09375 C 385.992188 400.847656 385.121094 404.617188 367.929688 404.914062 C 363.113281 404.992188 358.9375 404.714844 355.25 404.464844 C 345.382812 403.800781 338.863281 403.355469 330.964844 410.1875 L 330.558594 410.539062 L 298.222656 381.140625 L 288.816406 434.433594 L 288.847656 434.433594 L 288.695312 435.125 L 288.605469 435.640625 L 288.585938 435.640625 C 288.023438 438.304688 285.261719 451.765625 284.179688 463.105469 C 283.039062 475.0625 300.96875 478.238281 301.148438 478.269531 L 301.035156 479.464844 L 256.507812 478.390625 L 256.8125 477.59375 C 256.828125 477.542969 258.75 472.367188 259.636719 459.691406 C 260.414062 448.535156 260.179688 438.15625 260.101562 435.640625 L 239.203125 435.640625 L 251.3125 356.316406 L 232.574219 336.40625 C 226.1875 340.371094 149.703125 386.84375 79.054688 386.84375 C 57.777344 386.84375 28.855469 381.359375 11.902344 355.238281 C 1.769531 339.621094 0.746094 323.777344 0.738281 323.621094 L 1.941406 323.550781 C 1.949219 323.707031 2.960938 339.277344 12.941406 354.628906 C 29.605469 380.257812 58.089844 385.636719 79.054688 385.636719 C 148.886719 385.636719 224.523438 339.96875 231.78125 335.480469 L 186.71875 278.777344 L 187.660156 278.027344 L 233.132812 335.242188 L 252.375 355.6875 L 281.855469 382.488281 L 298.636719 373.070312 L 321.550781 359.558594 L 303.1875 335.273438 L 256.300781 273.355469 L 239.097656 251.070312 C 235.238281 255.535156 229.640625 258.023438 229.300781 258.171875 L 228.226562 258.640625 L 233.390625 234.425781 L 243.335938 234.425781 C 245.066406 232.675781 249.414062 229.3125 257.914062 228.402344 C 267.261719 227.402344 272.90625 226.800781 274.855469 228.554688 C 275.074219 228.75 275.25 228.972656 275.378906 229.21875 C 277.847656 226.761719 283.136719 221.835938 285.109375 222.621094 C 285.75 222.878906 286.175781 223.425781 286.304688 224.164062 C 286.726562 226.53125 284.273438 230.5 280.066406 234.273438 C 275.90625 238.003906 261.476562 249.605469 243.277344 249.605469 C 242.296875 249.605469 241.304688 249.5625 240.300781 249.492188 C 240.160156 249.695312 240.019531 249.898438 239.867188 250.097656 L 257.007812 272.300781 C 258.292969 271.988281 262.535156 271.148438 268.363281 271.855469 C 274.710938 272.621094 284.195312 275.457031 293.34375 284.605469 C 309.992188 301.253906 304.984375 331.6875 304.402344 334.882812 L 322.59375 358.9375 L 322.597656 358.9375 L 322.871094 359.308594 L 323.324219 359.90625 L 323.316406 359.910156 Z M 127.851562 39.042969 C 125.214844 39.480469 123.117188 42.585938 123.03125 42.71875 C 122.847656 42.992188 122.921875 43.367188 123.199219 43.550781 C 123.300781 43.621094 123.417969 43.652344 123.53125 43.652344 C 123.726562 43.652344 123.917969 43.558594 124.03125 43.386719 C 124.050781 43.359375 125.929688 40.585938 128.050781 40.230469 C 128.378906 40.175781 128.601562 39.867188 128.546875 39.539062 C 128.492188 39.210938 128.183594 38.984375 127.851562 39.042969 Z M 125.699219 65.734375 C 126.789062 65.535156 130.34375 66.535156 132.324219 67.21875 C 132.636719 67.324219 132.980469 67.15625 133.089844 66.84375 C 133.195312 66.527344 133.027344 66.183594 132.714844 66.078125 C 132.160156 65.886719 127.242188 64.222656 125.484375 64.546875 C 124.78125 64.675781 124.347656 65.175781 124.351562 65.851562 C 124.363281 67.394531 126.613281 69.410156 130.765625 70.101562 C 130.796875 70.109375 130.828125 70.109375 130.863281 70.109375 C 131.152344 70.109375 131.40625 69.902344 131.457031 69.605469 C 131.511719 69.277344 131.289062 68.96875 130.960938 68.914062 C 127.121094 68.273438 125.558594 66.480469 125.554688 65.84375 C 125.554688 65.789062 125.554688 65.761719 125.699219 65.734375 Z M 99.734375 226.636719 C 98.316406 246.105469 103.941406 263.863281 107.269531 269.039062 L 106.257812 269.691406 C 102.320312 263.566406 97.144531 245.617188 98.53125 226.550781 C 99.925781 207.480469 105.308594 158.144531 105.363281 157.648438 L 106.5625 157.78125 C 106.507812 158.277344 101.125 207.589844 99.734375 226.636719" style="fill: rgb(16, 15, 13);"></path></g></g></svg>