<svg xmlns="http://www.w3.org/2000/svg" xmlns:xlink="http://www.w3.org/1999/xlink" preserveAspectRatio="xMidYMid meet" version="1.0" viewBox="0.0 0.0 487.9 366.3" zoomAndPan="magnify" style="fill: rgb(0, 0, 0);" role="img" aria-label="Woman Working on Laptop"><defs><clipPath id="__id40_s62qr7no5"><path d="M 220 160 L 487.929688 160 L 487.929688 357 L 220 357 Z M 220 160"></path></clipPath><clipPath id="__id41_s62qr7no5"><path d="M 0 0 L 482 0 L 482 366.328125 L 0 366.328125 Z M 0 0"></path></clipPath></defs><g><g id="__id42_s62qr7no5"><path d="M 370.285156 195.652344 L 323.046875 195.472656 L 317.976562 155.652344 C 317.976562 155.652344 316.167969 156.558594 304.585938 160.898438 C 293 165.246094 284.855469 163.617188 280.148438 140.808594 C 275.441406 118.003906 269.109375 85.785156 269.109375 85.785156 L 271.824219 63.707031 L 285.941406 45.785156 L 355.625 40.902344 L 361.414062 124.519531 L 370.285156 195.652344" style="fill: rgb(255, 255, 255);"></path></g><g clip-path="url(#__id40_s62qr7no5)" id="__id43_s62qr7no5"><path d="M 259.0625 291.941406 L 220.238281 267.777344 C 220.238281 267.777344 231.914062 246.328125 239.515625 232.210938 C 247.117188 218.09375 256.347656 202.347656 268.566406 198.003906 C 280.78125 193.660156 307.386719 182.257812 307.386719 182.257812 L 314.175781 164.066406 L 330.464844 171.128906 L 336.167969 188.773438 L 341.597656 171.398438 L 371.460938 160.265625 C 371.460938 160.265625 375.53125 172.484375 383.679688 176.015625 C 391.824219 179.542969 396.167969 181.171875 418.699219 189.316406 C 441.234375 197.460938 465.667969 204.25 473.269531 227.324219 C 480.871094 250.402344 487.929688 271.308594 487.929688 271.308594 L 473.542969 278.367188 L 439.335938 356.285156 L 265.253906 356.285156 L 259.0625 291.941406" style="fill: rgb(255, 222, 89);"></path></g><g id="__id44_s62qr7no5"><path d="M 473.542969 278.367188 L 462.683594 356.011719 L 362.230469 356.011719 L 315.535156 330.765625 L 315.691406 327.9375 C 313.339844 346.15625 272.910156 345.152344 272.910156 345.152344 L 259.878906 350.855469 L 240.871094 350.855469 L 241.09375 350.582031 L 240.523438 350.582031 L 244.132812 356.554688 L 79.605469 356.554688 L 18.792969 249.589844 L 179.515625 249.589844 L 220.609375 317.621094 L 229.46875 273.480469 L 259.335938 291.667969 L 260.53125 305.304688 L 254.761719 334.292969 C 261.445312 327.574219 269.480469 322.3125 278.390625 318.933594 L 286.378906 315.90625 C 297.296875 311.765625 309.113281 310.566406 320.640625 312.417969 L 422.773438 328.863281 L 424.128906 299.8125 L 447.019531 289.878906 L 473.542969 278.367188" style="fill: rgb(255, 255, 255);"></path></g><g clip-path="url(#__id41_s62qr7no5)" id="__id45_s62qr7no5"><path d="M 279.789062 107.328125 C 285.773438 107.328125 290.644531 112.199219 290.644531 118.1875 C 290.644531 124.171875 285.773438 129.042969 279.789062 129.042969 C 279.339844 129.042969 278.902344 129.007812 278.464844 128.953125 C 277.085938 122.144531 275.675781 115.128906 274.40625 108.769531 C 275.996094 107.855469 277.828125 107.328125 279.789062 107.328125 Z M 265.308594 117.097656 C 265.851562 143.164062 270.917969 158.003906 281.597656 166.328125 L 288.949219 161.324219 C 289.355469 161.621094 289.769531 161.898438 290.195312 162.132812 C 293.878906 164.164062 298.394531 163.996094 304.839844 161.578125 C 312.59375 158.671875 315.980469 157.300781 317.382812 156.707031 L 318.660156 166.273438 C 318.710938 166.636719 319.019531 166.902344 319.378906 166.902344 C 319.410156 166.902344 319.445312 166.902344 319.476562 166.898438 C 319.875 166.84375 320.152344 166.476562 320.101562 166.078125 L 318.695312 155.554688 C 318.664062 155.324219 318.523438 155.121094 318.316406 155.011719 C 318.109375 154.902344 317.863281 154.898438 317.652344 155 C 317.578125 155.039062 315.644531 155.976562 304.328125 160.222656 C 298.316406 162.472656 294.175781 162.667969 290.898438 160.863281 C 286.378906 158.367188 283.191406 151.949219 280.859375 140.664062 C 280.191406 137.414062 279.484375 133.96875 278.769531 130.445312 C 279.105469 130.472656 279.445312 130.496094 279.789062 130.496094 C 286.574219 130.496094 292.097656 124.972656 292.097656 118.1875 C 292.097656 111.398438 286.574219 105.875 279.789062 105.875 C 277.738281 105.875 275.808594 106.386719 274.109375 107.273438 C 272.496094 99.191406 271.140625 92.339844 270.40625 88.628906 C 274.371094 83.246094 279.394531 74.613281 280.148438 64.609375 C 280.148438 64.609375 291.371094 95.378906 338.25 100.085938 C 338.25 100.085938 349.652344 147.324219 346.574219 161.261719 C 346.574219 161.261719 354.484375 159.570312 364.203125 155.472656 L 364.972656 162.261719 C 365.019531 162.660156 365.378906 162.9375 365.777344 162.902344 C 366.175781 162.855469 366.464844 162.496094 366.417969 162.097656 L 365.597656 154.871094 C 374.386719 151.023438 384.378906 145.242188 391.28125 137.007812 C 406.300781 119.089844 385.125 86.511719 385.125 86.511719 C 385.125 86.511719 389.109375 65.152344 377.523438 45.246094 C 375.171875 41.203125 372.5625 37.257812 369.601562 33.632812 C 375.46875 30.742188 379.515625 24.71875 379.515625 17.734375 C 379.515625 7.9375 371.574219 -0.00390625 361.777344 -0.00390625 C 352.226562 -0.00390625 344.457031 7.554688 344.078125 17.011719 C 335.335938 15.117188 324.835938 15.777344 312.003906 20.265625 C 275.804688 32.9375 268.023438 47.234375 266.753906 69.316406 C 265.488281 91.398438 265.488281 94.476562 265.488281 94.476562 C 265.488281 94.476562 265.542969 94.421875 265.574219 94.390625 C 265.277344 99.96875 265.105469 107.4375 265.308594 117.097656 Z M 275.136719 102.921875 C 275.4375 102.757812 282.550781 98.953125 289.089844 103.847656 L 288.222656 105.011719 C 282.417969 100.667969 275.902344 104.160156 275.839844 104.195312 Z M 300.179688 101.894531 L 299.210938 100.8125 C 299.453125 100.59375 305.289062 95.476562 314.847656 99.972656 L 314.226562 101.285156 C 305.578125 97.21875 300.398438 101.703125 300.179688 101.894531 Z M 307.816406 142.0625 C 307.867188 141.507812 307.742188 141.0625 307.507812 140.929688 C 307.261719 140.792969 306.691406 140.867188 305.820312 141.488281 C 301.171875 144.839844 296.046875 145.058594 295.832031 145.066406 L 295.777344 143.613281 C 295.828125 143.613281 300.691406 143.394531 304.972656 140.3125 C 306.574219 139.160156 307.625 139.328125 308.226562 139.664062 C 308.988281 140.101562 309.367188 141.019531 309.265625 142.1875 C 309.0625 144.507812 306.9375 147.691406 302.746094 149.1875 L 302.257812 147.816406 C 305.84375 146.535156 307.652344 143.9375 307.816406 142.0625 Z M 293.71875 123.53125 L 291.699219 138.675781 L 297.84375 136.679688 L 298.292969 138.0625 L 289.953125 140.769531 L 292.277344 123.339844 Z M 280.691406 121.347656 C 280.691406 120.398438 281.460938 119.628906 282.410156 119.628906 C 283.359375 119.628906 284.128906 120.398438 284.128906 121.347656 C 284.128906 122.296875 283.359375 123.066406 282.410156 123.066406 C 281.460938 123.066406 280.691406 122.296875 280.691406 121.347656 Z M 308.554688 118.996094 C 308.554688 119.945312 307.785156 120.714844 306.835938 120.714844 C 305.886719 120.714844 305.117188 119.945312 305.117188 118.996094 C 305.117188 118.046875 305.886719 117.277344 306.835938 117.277344 C 307.785156 117.277344 308.554688 118.046875 308.554688 118.996094 Z M 308.023438 125.964844 C 302.035156 125.964844 297.164062 121.097656 297.164062 115.109375 C 297.164062 109.121094 302.035156 104.253906 308.023438 104.253906 C 314.007812 104.253906 318.878906 109.121094 318.878906 115.109375 C 318.878906 121.097656 314.007812 125.964844 308.023438 125.964844 Z M 320.332031 115.109375 C 320.332031 108.320312 314.808594 102.800781 308.023438 102.800781 C 301.234375 102.800781 295.710938 108.320312 295.710938 115.109375 C 295.710938 121.894531 301.234375 127.417969 308.023438 127.417969 C 314.808594 127.417969 320.332031 121.894531 320.332031 115.109375 Z M 368.707031 247.957031 L 398.191406 250.035156 C 398.054688 254.441406 396.597656 278.785156 381.496094 278.785156 C 378.308594 278.785156 375.660156 277.617188 373.628906 275.316406 C 367.183594 268.03125 368.363281 251.519531 368.707031 247.957031 Z M 381.496094 280.238281 C 388.984375 280.238281 394.5 274.84375 397.453125 264.636719 C 399.632812 257.089844 399.660156 249.671875 399.660156 249.363281 L 399.660156 248.683594 L 367.421875 246.410156 L 367.335938 247.09375 C 367.230469 247.925781 364.898438 267.636719 372.535156 276.277344 C 374.859375 278.90625 377.875 280.238281 381.496094 280.238281 Z M 331.058594 171.546875 L 317.410156 190.707031 L 306.953125 182.839844 L 307.824219 181.675781 L 317.09375 188.648438 L 329.875 170.703125 Z M 354.753906 190.714844 L 341.007812 171.824219 L 342.183594 170.972656 L 355.046875 188.644531 L 377.261719 171.367188 L 378.152344 172.515625 Z M 330.785156 288.578125 C 332.101562 288.578125 333.175781 289.652344 333.175781 290.972656 C 333.175781 292.292969 332.101562 293.367188 330.785156 293.367188 C 329.464844 293.367188 328.390625 292.292969 328.390625 290.972656 C 328.390625 289.652344 329.464844 288.578125 330.785156 288.578125 Z M 330.785156 294.820312 C 332.90625 294.820312 334.628906 293.09375 334.628906 290.972656 C 334.628906 288.851562 332.90625 287.125 330.785156 287.125 C 328.660156 287.125 326.9375 288.851562 326.9375 290.972656 C 326.9375 293.09375 328.660156 294.820312 330.785156 294.820312 Z M 338.21875 229.542969 C 339.710938 229.542969 340.921875 230.757812 340.921875 232.25 C 340.921875 233.742188 339.710938 234.957031 338.21875 234.957031 C 336.722656 234.957031 335.511719 233.742188 335.511719 232.25 C 335.511719 230.757812 336.722656 229.542969 338.21875 229.542969 Z M 338.21875 236.410156 C 340.511719 236.410156 342.378906 234.542969 342.378906 232.25 C 342.378906 229.957031 340.511719 228.089844 338.21875 228.089844 C 335.925781 228.089844 334.058594 229.957031 334.058594 232.25 C 334.058594 234.542969 335.925781 236.410156 338.21875 236.410156 Z M 115.464844 308.449219 C 115.464844 301.210938 121.328125 295.34375 128.570312 295.34375 C 135.808594 295.34375 141.675781 301.210938 141.675781 308.449219 C 141.675781 315.6875 135.808594 321.554688 128.570312 321.554688 C 121.328125 321.554688 115.464844 315.6875 115.464844 308.449219 Z M 179.105469 250.316406 L 219.722656 317.96875 L 219.621094 318.476562 L 220.085938 318.574219 L 220.195312 318.757812 L 242.835938 355.828125 L 80.03125 355.828125 L 20.039062 250.316406 Z M 229.976562 274.640625 L 258.640625 292.097656 L 259.800781 305.261719 L 253.816406 334.21875 C 252.347656 335.722656 250.917969 337.273438 249.589844 338.917969 L 240.828125 349.753906 L 221.441406 318.003906 L 221.261719 317.707031 Z M 278.648438 319.613281 L 286.636719 316.585938 C 297.421875 312.496094 309.140625 311.308594 320.523438 313.136719 L 422.660156 329.582031 C 422.863281 329.609375 423.070312 329.558594 423.230469 329.425781 C 423.390625 329.296875 423.488281 329.105469 423.5 328.898438 L 424.835938 300.300781 L 472.640625 279.546875 L 462.050781 355.285156 L 362.414062 355.285156 L 315.960938 330.167969 C 316.378906 328.808594 316.570312 327.371094 316.53125 325.859375 C 316.519531 325.457031 316.140625 325.160156 315.785156 325.152344 C 315.382812 325.160156 315.066406 325.496094 315.078125 325.898438 C 315.171875 329.292969 313.945312 332.289062 311.441406 334.796875 C 301.25 345.007812 273.214844 344.441406 272.925781 344.425781 C 272.832031 344.421875 272.714844 344.445312 272.617188 344.488281 L 259.726562 350.128906 L 242.394531 350.128906 L 250.71875 339.832031 C 258.066406 330.746094 267.722656 323.753906 278.648438 319.613281 Z M 262.933594 350.308594 L 273.054688 345.882812 C 275.613281 345.929688 302.132812 346.175781 312.46875 335.824219 C 313.777344 334.515625 314.769531 333.082031 315.449219 331.542969 L 361.316406 356.34375 L 325.671875 356.34375 L 325.671875 350.308594 Z M 463.324219 356.34375 C 463.363281 356.273438 463.390625 356.195312 463.402344 356.113281 L 474.261719 278.46875 C 474.296875 278.207031 474.191406 277.949219 473.980469 277.785156 C 473.769531 277.628906 473.496094 277.597656 473.253906 277.699219 L 424.796875 298.734375 L 422.300781 254.890625 L 420.851562 254.972656 L 423.402344 299.820312 L 422.085938 328.015625 L 320.753906 311.703125 C 309.117188 309.828125 297.144531 311.046875 286.125 315.226562 L 278.132812 318.253906 C 269.777344 321.421875 262.148438 326.222656 255.691406 332.328125 L 261.246094 305.449219 L 261.265625 305.34375 L 260.074219 291.777344 L 280.824219 238.730469 L 279.472656 238.199219 L 258.972656 290.597656 L 228.964844 272.320312 L 220.152344 315.859375 L 179.925781 248.863281 L 17.542969 248.863281 L 78.652344 356.34375 L 0 356.34375 L 0 366.328125 L 481.820312 366.328125 L 481.820312 356.34375 L 463.324219 356.34375" style="fill: rgb(16, 15, 13);"></path></g></g></svg>