<?xml version="1.0" standalone="no"?>
<!DOCTYPE svg PUBLIC "-//W3C//DTD SVG 20010904//EN"
 "http://www.w3.org/TR/2001/REC-SVG-20010904/DTD/svg10.dtd">
<svg version="1.0" xmlns="http://www.w3.org/2000/svg"
 width="512.000000pt" height="512.000000pt" viewBox="0 0 512.000000 512.000000"
 preserveAspectRatio="xMidYMid meet">
<metadata>
Created by potrace 1.11, written by Peter Selinger 2001-2013
</metadata>
<g transform="translate(0.000000,512.000000) scale(0.100000,-0.100000)"
fill="#000000" stroke="none">
<path d="M85 4491 c-73 -33 -70 3 -72 -763 -2 -442 1 -688 7 -688 6 0 10 -7
10 -15 0 -8 -4 -15 -10 -15 -7 0 -10 -206 -10 -598 0 -589 0 -599 20 -617 16
-14 23 -16 32 -7 21 21 28 13 28 -28 0 -22 -4 -40 -8 -40 -5 0 -21 14 -37 30
-16 17 -32 30 -35 30 -13 0 10 -164 28 -193 37 -65 63 -71 304 -77 119 -3 219
-8 223 -11 3 -4 6 -189 5 -413 0 -432 3 -467 48 -478 48 -13 92 25 257 217 94
111 158 193 152 197 -15 9 12 40 30 34 9 -4 13 0 11 12 -2 11 4 18 17 20 11 2
93 89 190 204 94 110 180 204 193 209 13 5 742 9 1654 9 1538 0 1632 1 1644
18 12 16 13 16 19 0 6 -15 20 -18 89 -18 44 0 98 5 118 10 52 15 96 55 108 99
6 23 10 297 11 726 l0 688 -31 32 c-35 36 -30 53 9 26 l26 -19 0 189 c0 104
-2 189 -5 189 -4 0 -11 -5 -17 -11 -13 -13 -55 -8 -60 6 -1 6 8 24 22 40 l25
30 17 -22 c17 -22 18 -10 16 309 -3 319 -4 334 -24 361 -12 16 -28 27 -38 25
-20 -3 -23 6 -14 40 6 24 22 26 63 8 14 -6 15 2 13 51 -7 145 -30 193 -101
213 -25 7 -838 10 -2462 10 -2327 0 -2427 -1 -2465 -19z m2495 -31 c0 -5 -4
-10 -10 -10 -5 0 -10 5 -10 10 0 6 5 10 10 10 6 0 10 -4 10 -10z m140 6 c0 -3
-4 -8 -10 -11 -5 -3 -10 -1 -10 4 0 6 5 11 10 11 6 0 10 -2 10 -4z m140 -6 c0
-5 -5 -10 -11 -10 -5 0 -7 5 -4 10 3 6 8 10 11 10 2 0 4 -4 4 -10z m-1160 -19
c0 -6 -4 -13 -10 -16 -5 -3 -10 -18 -10 -31 0 -16 -5 -24 -12 -21 -23 7 -2 77
23 77 5 0 9 -4 9 -9z m370 -1 c0 -5 -7 -10 -15 -10 -8 0 -15 5 -15 10 0 6 7
10 15 10 8 0 15 -4 15 -10z m838 -1 c-2 -6 -8 -10 -13 -10 -5 0 -11 4 -13 10
-2 6 4 11 13 11 9 0 15 -5 13 -11z m-2638 -9 c0 -5 -7 -10 -15 -10 -8 0 -15 5
-15 10 0 6 7 10 15 10 8 0 15 -4 15 -10z m795 -48 c-1 -45 2 -52 18 -52 16 0
18 5 13 34 -8 44 15 68 32 32 6 -13 8 -33 5 -45 -5 -21 -3 -21 185 -21 181 0
190 1 195 20 3 11 10 20 15 20 6 0 14 -9 17 -20 8 -24 18 -25 35 -5 7 8 16 15
21 15 5 0 9 -7 9 -15 0 -13 21 -15 130 -15 l130 0 0 26 c0 14 4 23 10 19 6 -3
10 -15 10 -26 0 -19 13 -19 653 -19 l652 0 -3 55 c-2 32 0 55 6 55 16 0 23
-31 11 -47 -9 -10 -9 -19 1 -38 l13 -25 821 0 c452 0 829 0 838 0 9 0 24 -7
32 -16 14 -13 16 -56 16 -314 0 -230 3 -299 13 -303 10 -4 10 -7 0 -18 -10
-10 -13 -221 -13 -985 l0 -973 -22 -15 c-20 -14 -205 -16 -1780 -16 l-1758 0
-272 -319 c-150 -175 -283 -324 -294 -329 -42 -20 -44 -5 -44 318 0 225 -3
309 -12 318 -8 8 -47 12 -109 12 l-96 0 -16 -38 -17 -37 3 37 3 38 -143 0
c-130 0 -145 2 -163 20 -19 19 -20 34 -21 363 -1 188 0 350 1 361 1 10 -4 22
-12 27 -10 6 -10 11 0 21 15 15 16 120 1 135 -8 8 -8 17 0 31 6 11 11 36 11
55 0 27 -4 34 -17 33 -10 0 -19 7 -21 18 -3 15 0 18 18 13 22 -6 22 -4 20 81
-2 48 -2 392 -2 765 2 663 2 677 22 697 18 18 33 20 159 20 114 0 140 3 145
15 3 8 12 15 21 15 8 0 15 -7 15 -15 0 -13 33 -15 241 -15 164 0 238 3 234 10
-4 6 -2 16 3 23 5 7 9 27 7 45 -1 25 2 32 14 30 12 -3 16 -16 16 -56z m1653
46 c-6 -18 -28 -21 -28 -4 0 9 7 16 16 16 9 0 14 -5 12 -12z m252 -13 c0 -15
-18 -30 -27 -22 -2 3 -2 15 2 26 7 23 25 19 25 -4z m-1120 11 c0 -3 -4 -8 -10
-11 -5 -3 -10 -1 -10 4 0 6 5 11 10 11 6 0 10 -2 10 -4z m475 -6 c3 -5 1 -10
-4 -10 -6 0 -11 5 -11 10 0 6 2 10 4 10 3 0 8 -4 11 -10z m955 -16 c0 -8 -4
-14 -10 -14 -5 0 -10 9 -10 21 0 11 5 17 10 14 6 -3 10 -13 10 -21z m910 18
c0 -14 -11 -21 -26 -15 -21 8 -17 23 6 23 11 0 20 -4 20 -8z m235 -6 c49 -17
55 -32 20 -48 -24 -11 -29 -10 -46 11 -11 13 -19 29 -19 37 0 17 -4 17 45 0z
m-3767 -34 c2 -7 -3 -12 -12 -12 -9 0 -16 7 -16 16 0 17 22 14 28 -4z m556 2
c10 -27 7 -44 -9 -44 -10 0 -15 10 -15 30 0 32 14 40 24 14z m1506 -4 c0 -5
-11 -10 -25 -10 -14 0 -25 5 -25 10 0 6 11 10 25 10 14 0 25 -4 25 -10z
m-2449 -11 c15 -8 24 -7 35 2 16 13 30 6 19 -10 -7 -13 -95 -15 -95 -3 0 9 10
22 17 22 3 0 13 -5 24 -11z m349 1 c0 -5 -4 -10 -10 -10 -5 0 -10 5 -10 10 0
6 5 10 10 10 6 0 10 -4 10 -10z m3920 -5 c0 -8 -4 -15 -10 -15 -5 0 -10 7 -10
15 0 8 5 15 10 15 6 0 10 -7 10 -15z m215 -15 c3 -5 1 -10 -4 -10 -6 0 -11 5
-11 10 0 6 2 10 4 10 3 0 8 -4 11 -10z m-4564 -33 c-1 -12 -15 -9 -19 4 -3 6
1 10 8 8 6 -3 11 -8 11 -12z m-111 -37 c0 -5 -7 -10 -15 -10 -8 0 -15 5 -15
10 0 6 7 10 15 10 8 0 15 -4 15 -10z m20 -170 c0 -5 -4 -10 -10 -10 -5 0 -10
5 -10 10 0 6 5 10 10 10 6 0 10 -4 10 -10z m70 -5 c0 -8 -9 -15 -20 -15 -25 0
-26 17 -2 23 9 3 18 5 20 6 1 0 2 -6 2 -14z m-80 -45 c0 -5 -4 -10 -10 -10 -5
0 -10 5 -10 10 0 6 5 10 10 10 6 0 10 -4 10 -10z m28 -160 c12 0 22 -4 22 -10
0 -14 -54 -12 -68 2 -7 7 -12 19 -12 27 0 12 3 11 18 -2 10 -10 28 -17 40 -17z
m4982 -20 c0 -5 -4 -10 -10 -10 -5 0 -10 5 -10 10 0 6 5 10 10 10 6 0 10 -4
10 -10z m-4990 -40 c0 -5 -5 -10 -11 -10 -5 0 -7 5 -4 10 3 6 8 10 11 10 2 0
4 -4 4 -10z m70 -33 c0 -20 -1 -20 -16 -5 -9 9 -13 21 -9 27 10 16 25 3 25
-22z m-8 -69 c-12 -12 -32 -2 -32 17 0 18 34 24 38 7 2 -8 -1 -19 -6 -24z
m4864 -43 c-22 -17 -46 -20 -46 -6 0 10 22 18 50 20 11 0 10 -4 -4 -14z
m-4936 1 c0 -3 -4 -8 -10 -11 -5 -3 -10 -1 -10 4 0 6 5 11 10 11 6 0 10 -2 10
-4z m4975 -96 c11 -17 -5 -32 -21 -19 -7 6 -11 15 -8 20 7 12 21 11 29 -1z
m-114 -123 c-13 -13 -26 -3 -16 12 3 6 11 8 17 5 6 -4 6 -10 -1 -17z m-4793
-44 c-2 -11 -14 -19 -31 -21 -33 -4 -36 15 -4 28 33 13 39 12 35 -7z m4811
-36 c6 -8 8 -17 4 -20 -11 -12 -21 -7 -26 13 -6 23 5 26 22 7z m61 -17 c0 -5
-4 -10 -10 -10 -5 0 -10 5 -10 10 0 6 5 10 10 10 6 0 10 -4 10 -10z m54 -15
c-4 -8 -10 -12 -15 -9 -14 8 -10 24 6 24 9 0 12 -6 9 -15z m-4914 -13 c0 -26
-59 -47 -78 -28 -12 12 -11 16 7 26 12 6 31 8 41 5 12 -4 20 -2 20 4 0 6 2 11
5 11 3 0 5 -8 5 -18z m4930 -43 c0 -5 -7 -9 -15 -9 -15 0 -20 12 -9 23 8 8 24
-1 24 -14z m-4936 -30 c5 -5 4 -15 -4 -24 -9 -11 -16 -13 -24 -5 -5 5 -27 10
-49 10 -26 0 -37 4 -35 12 9 25 87 30 112 7z m4936 -120 c0 -5 -4 -9 -10 -9
-5 0 -10 7 -10 16 0 8 5 12 10 9 6 -3 10 -10 10 -16z m-5030 -86 c0 -25 0 -26
-20 -8 -11 10 -20 22 -20 27 0 4 9 8 20 8 15 0 20 -7 20 -27z m58 -205 c-6
-18 -28 -21 -28 -4 0 9 7 16 16 16 9 0 14 -5 12 -12z m4932 -24 c0 -2 -9 0
-20 6 -11 6 -20 13 -20 16 0 2 9 0 20 -6 11 -6 20 -13 20 -16z m-15 -64 c4 -6
1 -18 -6 -26 -11 -13 -14 -13 -27 0 -8 8 -11 19 -8 25 9 14 33 14 41 1z
m-4934 -233 c-13 -13 -26 -3 -16 12 3 6 11 8 17 5 6 -4 6 -10 -1 -17z m49 -12
c7 -9 10 -18 7 -22 -8 -7 -37 15 -37 28 0 14 16 11 30 -6z m-60 -29 c0 -3 -4
-8 -10 -11 -5 -3 -10 -1 -10 4 0 6 5 11 10 11 6 0 10 -2 10 -4z m50 -146 c0
-5 -4 -10 -10 -10 -5 0 -10 5 -10 10 0 6 5 10 10 10 6 0 10 -4 10 -10z m4827
-36 c8 -20 -8 -36 -26 -25 -15 10 -8 41 9 41 6 0 13 -7 17 -16z m-12 -64 c0
-7 -6 -15 -12 -17 -8 -3 -13 4 -13 17 0 13 5 20 13 18 6 -3 12 -11 12 -18z
m25 -89 c0 -6 -4 -13 -10 -16 -5 -3 -10 1 -10 9 0 9 5 16 10 16 6 0 10 -4 10
-9z m-4841 -37 c32 -40 28 -58 -10 -50 -20 4 -38 1 -47 -6 -13 -11 -14 -9 -7
12 25 80 32 85 64 44z m4877 -62 c-23 -23 -33 -6 -10 19 12 13 20 16 22 9 3
-7 -3 -19 -12 -28z m-21 -42 c3 -5 1 -10 -4 -10 -6 0 -11 5 -11 10 0 6 2 10 4
10 3 0 8 -4 11 -10z m25 -49 c0 -5 -6 -12 -12 -15 -10 -3 -8 -9 5 -19 21 -17
22 -37 2 -37 -8 0 -15 -4 -15 -10 0 -5 -7 -10 -16 -10 -10 0 -14 7 -13 23 2
12 0 28 -5 35 -13 21 1 42 29 42 14 0 25 -4 25 -9z m-4980 -172 c0 -5 -4 -9
-10 -9 -5 0 -10 7 -10 16 0 8 5 12 10 9 6 -3 10 -10 10 -16z m4950 -19 c0 -5
-5 -10 -11 -10 -5 0 -7 5 -4 10 3 6 8 10 11 10 2 0 4 -4 4 -10z m-4860 -60 c0
-5 -4 -10 -10 -10 -5 0 -10 5 -10 10 0 6 5 10 10 10 6 0 10 -4 10 -10z m146
-79 c14 -11 42 -22 64 -26 36 -6 40 -10 40 -35 0 -32 -17 -49 -26 -26 -3 8
-30 29 -60 46 -30 16 -54 37 -54 45 0 20 7 19 36 -4z m374 9 c0 -5 -4 -10 -10
-10 -5 0 -10 5 -10 10 0 6 5 10 10 10 6 0 10 -4 10 -10z m890 -20 c0 -5 -4
-10 -10 -10 -5 0 -10 5 -10 10 0 6 5 10 10 10 6 0 10 -4 10 -10z m748 -2 c-6
-18 -25 -20 -31 -3 -5 10 0 15 14 15 12 0 19 -5 17 -12z m982 -8 c-6 -11 -20
-20 -30 -20 -13 0 -20 7 -20 20 0 16 7 20 30 20 28 0 30 -2 20 -20z m530 6 c0
-8 -4 -17 -9 -21 -12 -7 -24 12 -16 25 9 15 25 12 25 -4z m-1660 -6 c0 -5 -5
-10 -11 -10 -5 0 -7 5 -4 10 3 6 8 10 11 10 2 0 4 -4 4 -10z m504 -11 c-3 -5
-10 -7 -15 -3 -5 3 -7 10 -3 15 3 5 10 7 15 3 5 -3 7 -10 3 -15z m136 11 c0
-5 -5 -10 -11 -10 -5 0 -7 5 -4 10 3 6 8 10 11 10 2 0 4 -4 4 -10z m415 0 c4
-6 1 -18 -6 -26 -11 -13 -14 -13 -27 0 -8 8 -11 19 -8 25 9 14 33 14 41 1z
m1601 -24 c-4 -20 -2 -37 4 -41 13 -8 13 -25 1 -25 -5 0 -17 7 -26 16 -12 12
-13 19 -4 30 6 7 8 18 4 24 -8 12 2 30 17 30 6 0 8 -13 4 -34z m-1866 20 c0
-11 -19 -15 -25 -6 -3 5 1 10 9 10 9 0 16 -2 16 -4z m205 -6 c3 -5 -1 -10 -10
-10 -9 0 -13 5 -10 10 3 6 8 10 10 10 2 0 7 -4 10 -10z m-160 -9 c7 -12 -12
-24 -25 -16 -11 7 -4 25 10 25 5 0 11 -4 15 -9z m-875 -27 c0 -8 -4 -12 -10
-9 -5 3 -10 10 -10 16 0 5 5 9 10 9 6 0 10 -7 10 -16z m680 6 c0 -5 -7 -10
-15 -10 -8 0 -15 5 -15 10 0 6 7 10 15 10 8 0 15 -4 15 -10z m250 -10 c0 -11
-6 -20 -14 -20 -9 0 -12 7 -9 20 3 11 9 20 14 20 5 0 9 -9 9 -20z m668 -8 c3
-19 -1 -22 -27 -22 -33 0 -41 16 -19 38 18 18 43 10 46 -16z m-1688 -3 c0 -6
-4 -7 -10 -4 -5 3 -10 11 -10 16 0 6 5 7 10 4 6 -3 10 -11 10 -16z m1270 5 c0
-8 -4 -12 -10 -9 -5 3 -10 10 -10 16 0 5 5 9 10 9 6 0 10 -7 10 -16z m1040 6
c0 -5 -4 -10 -10 -10 -5 0 -10 5 -10 10 0 6 5 10 10 10 6 0 10 -4 10 -10z
m185 -14 c0 -30 -31 -44 -51 -24 -15 14 -15 20 -4 33 18 21 55 15 55 -9z
m-2440 4 c3 -5 1 -10 -4 -10 -6 0 -11 5 -11 10 0 6 2 10 4 10 3 0 8 -4 11 -10z
m1797 -5 c0 -5 -5 -11 -11 -13 -6 -2 -11 4 -11 13 0 9 5 15 11 13 6 -2 11 -8
11 -13z m225 -11 c-9 -9 -28 6 -21 18 4 6 10 6 17 -1 6 -6 8 -13 4 -17z m603
5 c0 -5 -7 -9 -15 -9 -15 0 -20 12 -9 23 8 8 24 -1 24 -14z m-665 1 c3 -5 1
-10 -4 -10 -6 0 -11 5 -11 10 0 6 2 10 4 10 3 0 8 -4 11 -10z m-1240 -10 c4
-6 -7 -10 -25 -10 -18 0 -29 4 -25 10 3 6 15 10 25 10 10 0 22 -4 25 -10z
m-745 -11 c0 -5 -9 -9 -20 -9 -11 0 -20 4 -20 8 0 4 9 8 20 9 11 1 20 -2 20
-8z m2565 -9 c3 -5 -3 -10 -14 -10 -12 0 -21 5 -21 10 0 6 6 10 14 10 8 0 18
-4 21 -10z m-3955 -226 c0 -8 -4 -12 -10 -9 -5 3 -10 10 -10 16 0 5 5 9 10 9
6 0 10 -7 10 -16z m19 -111 c0 -25 -1 -25 -8 -8 -5 11 -7 23 -4 28 8 14 13 7
12 -20z m451 1 c0 -8 -4 -12 -10 -9 -5 3 -10 10 -10 16 0 5 5 9 10 9 6 0 10
-7 10 -16z m-52 -49 c-2 -6 -15 -10 -29 -10 -14 0 -33 -6 -42 -13 -9 -8 -18
-9 -21 -3 -8 12 8 22 48 32 37 8 49 7 44 -6z m-163 -34 c7 -12 -12 -24 -25
-16 -11 7 -4 25 10 25 5 0 11 -4 15 -9z m-245 -170 c0 -6 -4 -13 -10 -16 -5
-3 -10 1 -10 9 0 9 5 16 10 16 6 0 10 -4 10 -9z m-20 -101 c0 -5 -4 -10 -10
-10 -5 0 -10 5 -10 10 0 6 5 10 10 10 6 0 10 -4 10 -10z m36 -151 c10 -17 -23
-46 -37 -32 -7 7 -9 19 -6 27 7 18 33 21 43 5z"/>
<path d="M743 4047 c-4 -7 -6 -295 -4 -642 2 -346 4 -802 5 -1012 1 -210 3
-383 6 -386 9 -9 268 -12 277 -4 4 5 8 212 8 460 l0 452 140 2 c77 0 146 2
153 2 10 1 12 32 10 139 l-3 137 -150 5 -150 5 -5 95 c-7 106 2 466 11 474 5
5 185 7 327 4 46 -1 52 16 52 136 0 61 -5 118 -10 126 -8 13 -58 15 -334 17
-243 1 -327 -1 -333 -10z m314 -84 c-11 -11 -97 -13 -97 -2 0 5 23 9 52 9 28
0 48 -3 45 -7z m113 -83 c0 -5 -4 -10 -10 -10 -5 0 -10 5 -10 10 0 6 5 10 10
10 6 0 10 -4 10 -10z m-220 -145 c0 -32 -18 -39 -75 -31 -36 6 -45 11 -45 27
0 20 10 25 26 10 5 -5 23 -4 44 4 49 18 50 18 50 -10z m-12 -128 c3 -32 0 -38
-23 -47 -14 -6 -28 -10 -30 -10 -3 0 4 29 21 88 8 26 29 5 32 -31z m-78 -81
c0 -3 -4 -8 -10 -11 -5 -3 -10 -1 -10 4 0 6 5 11 10 11 6 0 10 -2 10 -4z m-5
-66 c3 -5 1 -10 -4 -10 -6 0 -11 5 -11 10 0 6 2 10 4 10 3 0 8 -4 11 -10z m25
-106 c8 -8 15 -25 16 -37 1 -12 4 -28 6 -36 1 -7 -3 -16 -9 -18 -8 -3 -13 4
-13 20 0 13 -7 30 -15 37 -16 13 -21 50 -6 50 5 0 14 -7 21 -16z m50 6 c0 -5
-4 -10 -10 -10 -5 0 -10 5 -10 10 0 6 5 10 10 10 6 0 10 -4 10 -10z m224 -250
c24 -9 35 -38 20 -53 -9 -9 -75 43 -68 54 7 11 17 11 48 -1z m-34 -76 c0 -8
-7 -14 -15 -14 -15 0 -21 21 -9 33 10 9 24 -2 24 -19z m-136 -8 c-3 -9 -10
-16 -15 -16 -6 0 -5 9 1 21 13 24 24 20 14 -5z m-124 -236 c0 -5 -4 -10 -10
-10 -5 0 -10 5 -10 10 0 6 5 10 10 10 6 0 10 -4 10 -10z m75 -30 c3 -5 1 -10
-4 -10 -6 0 -11 5 -11 10 0 6 2 10 4 10 3 0 8 -4 11 -10z m2 -57 c-3 -10 -5
-4 -5 12 0 17 2 24 5 18 2 -7 2 -21 0 -30z m-77 7 c0 -5 -5 -10 -11 -10 -5 0
-7 5 -4 10 3 6 8 10 11 10 2 0 4 -4 4 -10z m40 -44 c0 -24 -18 -28 -30 -6 -9
17 -8 20 10 20 11 0 20 -6 20 -14z m-55 -256 c3 -5 1 -10 -4 -10 -6 0 -11 5
-11 10 0 6 2 10 4 10 3 0 8 -4 11 -10z m65 -40 c0 -5 -7 -10 -16 -10 -8 0 -12
5 -9 10 3 6 10 10 16 10 5 0 9 -4 9 -10z m20 -55 c0 -8 -7 -15 -15 -15 -8 0
-15 7 -15 15 0 8 7 15 15 15 8 0 15 -7 15 -15z m-10 -64 c0 -10 -11 -26 -24
-34 -22 -15 -25 -15 -31 0 -4 11 2 23 17 35 30 23 38 22 38 -1z"/>
<path d="M1736 4052 c-7 -11 -28 -156 -37 -257 -11 -130 -27 -265 -34 -300 -3
-16 -10 -70 -15 -120 -6 -49 -12 -103 -14 -120 -29 -194 -39 -268 -60 -435
-14 -107 -30 -235 -36 -285 -16 -131 -28 -222 -39 -285 -24 -142 -34 -231 -25
-239 10 -10 97 -15 210 -12 l71 1 12 98 c6 53 15 128 19 166 l7 69 130 1 130
1 6 -75 c4 -41 10 -113 14 -160 4 -46 9 -88 11 -92 3 -5 63 -8 133 -8 95 0
131 4 140 13 8 10 7 40 -4 112 -8 55 -17 118 -19 140 -2 22 -11 92 -19 155 -9
63 -21 171 -27 240 -6 69 -18 175 -26 235 -9 61 -17 126 -19 145 -2 19 -9 78
-15 130 -5 52 -15 127 -20 165 -11 74 -35 271 -51 415 -5 47 -12 92 -15 100
-3 8 -9 50 -14 92 -15 126 -1 118 -210 118 -98 0 -181 -3 -184 -8z m119 -122
c-3 -5 -10 -10 -16 -10 -5 0 -9 5 -9 10 0 6 7 10 16 10 8 0 12 -4 9 -10z m55
-16 c0 -16 -26 -19 -35 -4 -3 6 -4 14 0 20 8 13 35 1 35 -16z m30 -154 c0 -11
-7 -20 -15 -20 -15 0 -21 21 -8 33 12 13 23 7 23 -13z m97 4 c3 -8 0 -21 -6
-27 -10 -9 -16 -8 -26 7 -8 10 -12 23 -9 27 9 15 34 10 41 -7z m-227 -44 c0
-5 -2 -10 -4 -10 -3 0 -8 5 -11 10 -3 6 -1 10 4 10 6 0 11 -4 11 -10z m190
-10 c0 -5 -7 -10 -16 -10 -8 0 -12 5 -9 10 3 6 10 10 16 10 5 0 9 -4 9 -10z
m15 -60 c-19 -21 -35 -26 -35 -12 0 5 10 14 23 20 31 15 32 14 12 -8z m-95
-20 c0 -5 -4 -10 -10 -10 -5 0 -10 5 -10 10 0 6 5 10 10 10 6 0 10 -4 10 -10z
m-10 -120 c0 -5 -4 -10 -9 -10 -6 0 -13 5 -16 10 -3 6 1 10 9 10 9 0 16 -4 16
-10z m-65 -36 c13 -5 14 -8 3 -15 -19 -13 -28 -11 -28 6 0 17 2 18 25 9z m110
-259 c27 -225 55 -496 58 -565 l2 -35 -95 0 -95 0 3 95 c2 52 15 150 28 218
13 68 29 164 34 215 10 96 29 258 31 267 4 17 19 -74 34 -195z m85 180 c0 -8
-4 -15 -10 -15 -5 0 -10 7 -10 15 0 8 5 15 10 15 6 0 10 -7 10 -15z m70 -5 c0
-5 -4 -10 -10 -10 -5 0 -10 5 -10 10 0 6 5 10 10 10 6 0 10 -4 10 -10z m-350
-59 c0 -6 -4 -13 -10 -16 -5 -3 -10 1 -10 9 0 9 5 16 10 16 6 0 10 -4 10 -9z
m24 -143 c-10 -16 -21 -7 -21 17 0 23 1 24 12 8 7 -10 11 -21 9 -25z m-51 -53
c-3 -8 -9 -15 -14 -15 -10 0 -12 24 -3 33 11 11 24 -3 17 -18z m397 -10 c13
-16 6 -35 -15 -35 -18 0 -28 17 -21 35 7 19 20 19 36 0z m-421 -151 c-14 -18
-24 -11 -15 11 3 9 11 13 16 10 8 -5 7 -11 -1 -21z m-1 -93 c3 -8 -1 -12 -9
-9 -7 2 -15 10 -17 17 -3 8 1 12 9 9 7 -2 15 -10 17 -17z m32 -47 c0 -8 -4
-12 -10 -9 -5 3 -10 10 -10 16 0 5 5 9 10 9 6 0 10 -7 10 -16z m440 -54 c0 -5
-4 -10 -10 -10 -5 0 -10 5 -10 10 0 6 5 10 10 10 6 0 10 -4 10 -10z m-20 -50
c0 -5 -4 -10 -10 -10 -5 0 -10 5 -10 10 0 6 5 10 10 10 6 0 10 -4 10 -10z
m-10 -120 c0 -5 -2 -10 -4 -10 -3 0 -8 5 -11 10 -3 6 -1 10 4 10 6 0 11 -4 11
-10z m-70 -89 c0 -26 -17 -36 -36 -20 -14 12 -14 14 2 26 25 18 34 16 34 -6z
m98 -49 c3 -16 -1 -19 -17 -15 -21 5 -27 23 -14 37 12 11 28 0 31 -22z m-533
-22 c0 -7 -6 -15 -12 -17 -8 -3 -13 4 -13 17 0 13 5 20 13 18 6 -3 12 -11 12
-18z m103 9 c-2 -6 -8 -10 -13 -10 -5 0 -11 4 -13 10 -2 6 4 11 13 11 9 0 15
-5 13 -11z m362 -7 c0 -5 -11 -14 -25 -20 -28 -13 -32 -9 -12 13 13 16 37 20
37 7z m80 -32 c0 -5 -4 -10 -10 -10 -5 0 -10 5 -10 10 0 6 5 10 10 10 6 0 10
-4 10 -10z m-50 -26 c0 -14 -3 -14 -15 -4 -8 7 -15 14 -15 16 0 2 7 4 15 4 8
0 15 -7 15 -16z m80 -185 c0 -22 -13 -25 -29 -6 -8 10 -7 17 1 25 15 15 28 6
28 -19z"/>
<path d="M2576 4051 c-18 -7 -19 -24 -15 -507 2 -274 4 -724 4 -999 0 -392 3
-505 13 -523 13 -22 17 -22 150 -20 l137 3 2 245 c4 451 1 411 39 497 33 76
33 77 44 48 6 -16 19 -61 30 -100 11 -39 23 -83 29 -96 5 -14 23 -81 41 -150
17 -68 52 -189 77 -269 25 -79 46 -150 47 -157 1 -7 5 -15 9 -19 8 -8 265 -15
290 -8 21 6 22 27 3 62 -24 44 -243 738 -265 842 -14 64 -31 124 -66 234 -14
43 -25 84 -25 91 0 17 48 124 129 290 38 77 88 190 111 250 45 120 56 145 99
222 21 38 26 55 17 62 -13 11 -295 9 -312 -2 -6 -3 -23 -41 -38 -82 -15 -42
-43 -111 -63 -153 -19 -42 -57 -140 -83 -217 -26 -77 -61 -168 -78 -203 l-30
-62 -7 255 c-4 141 -4 296 -1 345 11 137 18 130 -137 129 -73 0 -141 -4 -151
-8z m119 -201 c12 -19 -5 -30 -25 -17 -11 6 -20 15 -20 19 0 12 38 10 45 -2z
m29 -61 c-8 -13 -24 -1 -24 18 0 13 3 13 15 3 8 -7 12 -16 9 -21z m476 -149
c0 -15 -12 -12 -37 9 -32 27 -28 34 7 16 17 -9 30 -20 30 -25z m-490 -74 c0
-11 -19 -15 -25 -6 -3 5 1 10 9 10 9 0 16 -2 16 -4z m70 -51 c0 -8 -3 -15 -7
-15 -5 0 -18 -3 -30 -6 -14 -4 -23 -2 -23 5 0 6 10 16 23 21 32 13 37 12 37
-5z m290 5 c0 -5 -5 -10 -11 -10 -5 0 -7 5 -4 10 3 6 8 10 11 10 2 0 4 -4 4
-10z m-390 -39 c0 -37 -13 -61 -23 -44 -7 13 5 83 14 83 5 0 9 -18 9 -39z
m357 -66 c-4 -25 -1 -37 9 -43 13 -7 13 -10 2 -19 -15 -12 -68 -26 -68 -18 0
8 54 115 58 115 3 0 2 -16 -1 -35z m33 -14 c0 -6 -4 -13 -10 -16 -5 -3 -10 1
-10 9 0 9 5 16 10 16 6 0 10 -4 10 -9z m-55 -110 c3 -5 1 -12 -5 -16 -5 -3
-10 1 -10 9 0 18 6 21 15 7z m-215 -101 c0 -5 -4 -10 -10 -10 -5 0 -10 5 -10
10 0 6 5 10 10 10 6 0 10 -4 10 -10z m186 -62 c-3 -13 -6 -47 -6 -76 0 -45 -3
-54 -22 -61 -29 -11 -43 1 -29 25 5 11 17 45 26 77 8 31 20 57 26 57 7 0 9 -9
5 -22z m109 -228 c-3 -5 -19 -10 -36 -10 -16 0 -29 5 -29 10 0 6 16 10 36 10
21 0 33 -4 29 -10z m48 -147 c-3 -7 -11 -13 -18 -13 -10 0 -11 5 -2 24 12 25
30 15 20 -11z m-43 3 c0 -3 -4 -8 -10 -11 -5 -3 -10 -1 -10 4 0 6 5 11 10 11
6 0 10 -2 10 -4z m20 -81 c0 -16 -6 -25 -15 -25 -13 0 -15 17 -6 48 1 1 6 2
11 2 6 0 10 -11 10 -25z m-390 -25 c0 -5 -12 -10 -26 -10 -14 0 -23 4 -19 10
3 6 15 10 26 10 10 0 19 -4 19 -10z m18 -150 c23 -31 28 -50 13 -50 -12 0 -32
25 -26 32 3 3 -1 11 -10 18 -8 7 -15 16 -15 21 0 18 17 8 38 -21z m2 -245 c0
-8 -4 -15 -10 -15 -5 0 -10 7 -10 15 0 8 5 15 10 15 6 0 10 -7 10 -15z m-60
-75 c0 -5 -2 -10 -4 -10 -3 0 -8 5 -11 10 -3 6 -1 10 4 10 6 0 11 -4 11 -10z"/>
<path d="M3687 4040 l-22 -18 3 -1004 c2 -633 7 -1007 13 -1013 10 -10 687
-10 698 0 3 4 6 64 6 135 0 99 -3 131 -13 135 -8 3 -97 5 -198 5 l-184 0 -1
58 c0 31 -6 183 -13 337 -7 154 -10 286 -8 294 4 10 29 12 133 6 l127 -7 18
26 c14 22 15 33 6 64 -6 20 -8 67 -5 103 9 106 5 109 -135 109 -64 0 -123 4
-131 9 -11 7 -12 51 -7 241 3 127 8 236 11 241 4 5 93 9 200 9 229 0 207 -18
203 165 l-3 120 -338 1 c-311 1 -340 0 -360 -16z m333 -69 c0 -13 -26 -32 -33
-24 -8 7 11 33 24 33 5 0 9 -4 9 -9z m-50 -41 c0 -5 -7 -10 -15 -10 -8 0 -15
5 -15 10 0 6 7 10 15 10 8 0 15 -4 15 -10z m160 -61 c0 -18 -2 -19 -15 -9 -15
12 -12 30 6 30 5 0 9 -10 9 -21z m-124 2 c16 13 30 6 19 -10 -8 -13 -95 -15
-95 -2 0 15 23 19 43 9 12 -6 23 -5 33 3z m-115 -54 c-1 -12 -15 -9 -19 4 -3
6 1 10 8 8 6 -3 11 -8 11 -12z m-113 -38 c-2 -6 -8 -10 -13 -10 -5 0 -11 4
-13 10 -2 6 4 11 13 11 9 0 15 -5 13 -11z m22 -169 c0 -5 -4 -10 -10 -10 -5 0
-10 5 -10 10 0 6 5 10 10 10 6 0 10 -4 10 -10z m75 -10 c-3 -5 -15 -10 -26
-10 -10 0 -19 5 -19 10 0 6 12 10 26 10 14 0 23 -4 19 -10z m-85 -40 c0 -5 -5
-10 -11 -10 -5 0 -7 5 -4 10 3 6 8 10 11 10 2 0 4 -4 4 -10z m-5 -150 c3 -5
17 -10 31 -10 13 0 24 -4 24 -10 0 -14 -54 -12 -68 2 -7 7 -12 16 -12 20 0 11
18 10 25 -2z m95 -103 c0 -20 -1 -20 -16 -5 -9 9 -13 21 -9 27 10 16 25 3 25
-22z m0 -57 c0 -21 -24 -28 -35 -10 -8 14 3 30 21 30 8 0 14 -9 14 -20z m-80
-60 c0 -5 -5 -10 -11 -10 -5 0 -7 5 -4 10 3 6 8 10 11 10 2 0 4 -4 4 -10z
m220 -39 c0 -6 -4 -13 -10 -16 -5 -3 -10 1 -10 9 0 9 5 16 10 16 6 0 10 -4 10
-9z m65 -18 c2 -28 0 -28 -25 -3 -26 26 -25 32 2 28 14 -2 22 -11 23 -25z
m-57 -44 c-2 -6 -8 -10 -13 -10 -5 0 -11 4 -13 10 -2 6 4 11 13 11 9 0 15 -5
13 -11z m-161 -164 c-8 -18 -61 -21 -55 -3 4 12 48 28 57 22 2 -2 1 -10 -2
-19z m15 -87 c-2 -10 -8 -15 -13 -12 -5 3 -18 0 -29 -6 -16 -9 -25 -8 -37 1
-13 12 -13 14 2 25 9 7 31 12 49 11 27 -1 32 -4 28 -19z m-2 -73 c0 -20 -20
-29 -33 -16 -6 6 -29 11 -50 11 -33 0 -38 2 -27 14 23 28 110 21 110 -9z m20
-345 c0 -11 -4 -20 -10 -20 -5 0 -10 9 -10 20 0 11 5 20 10 20 6 0 10 -9 10
-20z m-62 -51 c-2 -6 -8 -10 -13 -10 -5 0 -11 4 -13 10 -2 6 4 11 13 11 9 0
15 -5 13 -11z m47 -119 c0 -22 -29 -18 -33 3 -3 14 1 18 15 15 10 -2 18 -10
18 -18z m85 -60 c0 -5 -4 -10 -10 -10 -5 0 -10 5 -10 10 0 6 5 10 10 10 6 0
10 -4 10 -10z m-56 -72 c-7 -11 -32 -10 -39 2 -4 6 -1 17 5 26 11 12 14 12 25
-3 7 -10 11 -21 9 -25z m88 7 c0 -5 -5 -11 -11 -13 -6 -2 -11 4 -11 13 0 9 5
15 11 13 6 -2 11 -8 11 -13z m93 5 c-3 -5 -10 -10 -16 -10 -5 0 -9 5 -9 10 0
6 7 10 16 10 8 0 12 -4 9 -10z m-45 -20 l20 -20 -20 0 c-11 0 -20 2 -20 4 0 2
-3 11 -6 20 -8 22 2 20 26 -4z"/>
<path d="M5106 4191 c-4 -7 -5 -15 -2 -18 9 -9 19 4 14 18 -4 11 -6 11 -12 0z"/>
</g>
</svg>
